<svg width="161" height="180" viewBox="0 0 161 180" fill="none" xmlns="http://www.w3.org/2000/svg">
<path d="M1.23371 17.1884C0.817984 17.6683 0.871728 18.397 1.35239 18.8124C1.83306 19.2278 2.56273 19.1745 2.97846 18.6946L7.49997 13.4727C7.91569 12.9928 7.86195 12.2641 7.38128 11.8487C6.90061 11.4333 6.17094 11.4866 5.75522 11.9665L1.23371 17.1884Z" fill="#EBB333"/>
<path d="M46.8305 29.8928C46.8305 29.8928 53.8265 20.9728 47.7769 12.7059C41.7272 4.43905 32.5406 1.43986 26.0989 5.47927C19.6571 9.51868 17.7913 11.0834 14.9793 14.2172C12.1674 17.351 6.5878 24.4991 8.06846 27.6014C9.54913 30.7037 17.8085 32.1921 20.6334 38.6693L46.8343 29.8935L46.8305 29.8928Z" fill="#532A35"/>
<path d="M15.8456 9.91631C15.8456 9.91631 13.5421 11.0841 12.6618 11.6146C11.7809 12.1488 12.2183 12.8291 12.4538 13.2198C12.6854 13.61 13.319 14.9924 13.9927 16.1057C14.6664 17.2189 16.1521 18.0088 16.2581 18.0644C16.3647 18.1163 14.3787 14.1618 15.8462 9.91258L15.8456 9.91631Z" fill="#28324A"/>
<path d="M20.6046 20.994C20.6046 20.994 17.81 22.0932 15.9525 23.0657C14.0951 24.0381 12.2328 25.3698 12.1466 26.4626C12.0642 27.5559 13.0344 31.0843 12.5777 31.6035C12.1211 32.1226 7.78176 28.9832 7.12913 27.5057C6.4765 26.0282 6.22703 23.2071 6.80943 21.5404C7.3881 19.873 8.7985 18.6554 9.84697 17.3289C10.8954 16.0024 12.4023 13.4409 13.1027 13.5666C13.8026 13.696 20.6009 20.9934 20.6009 20.9934L20.6046 20.994Z" fill="url(#paint0_linear_209_867)"/>
<path d="M9.02642 21.8446C8.63485 22.294 8.68469 22.9761 9.13851 23.368C9.5886 23.7593 10.2716 23.7098 10.6638 23.2567L13.6408 19.8166C14.0323 19.3672 13.9825 18.6851 13.5287 18.2932C13.0786 17.9019 12.3956 17.9514 12.0034 18.4045L9.02642 21.8446Z" fill="url(#paint1_linear_209_867)"/>
<path d="M21.9525 37.1651L24.8887 35.8324C19.7875 24.6181 15.4498 20.8814 15.2699 20.7142L13.1784 23.1689C13.219 23.2024 17.1982 26.7159 21.9487 37.1645L21.9525 37.1651Z" fill="url(#paint2_linear_209_867)"/>
<path d="M16.7156 19.6097C18.0133 20.729 19.4923 21.2076 20.8833 20.9556C22.9147 20.586 27.0846 17.8498 28.4595 14.968C29.2683 13.2769 28.9351 12.0047 28.5122 11.2349C27.954 10.2133 27.2295 9.34066 26.2345 8.4814C25.7033 8.02329 25.1686 7.63355 24.6551 7.25493C24.1996 6.92023 23.7678 6.60472 23.3877 6.27848C22.9875 5.93367 22.228 5.15876 22.0016 4.83077L21.0914 5.70874C20.9481 5.81175 17.6112 8.35447 16.2086 9.50066L14.9985 9.53696C14.9786 9.84774 14.9411 11.1591 14.831 11.6696C14.5332 13.0726 14.1964 14.6683 14.4413 15.9414C14.6831 17.2102 15.5545 18.6161 16.7106 19.6165L16.7156 19.6097Z" fill="#EBB333"/>
<path d="M21.3291 6.06111C21.3291 6.06111 17.8174 8.59446 16.4284 9.72756C16.7808 10.4361 15.4495 13.8496 15.7998 15.6761C16.1507 17.4989 18.4038 20.0033 20.633 19.5969C22.8621 19.1906 28.9089 14.8455 27.2957 11.8978C25.6824 8.95009 22.78 8.19343 21.3248 6.06423L21.3291 6.06111Z" fill="#A4D6FC"/>
<path d="M26.0882 10.2498L20.885 19.5349C20.7967 19.5588 20.7128 19.5796 20.6338 19.5936C19.4362 19.8119 18.2342 19.187 17.323 18.2839L23.1604 7.8613C24.112 8.5871 25.1655 9.27591 26.0845 10.2491L26.0882 10.2498Z" fill="white"/>
<path d="M16.4292 9.72429C17.4999 8.84952 19.825 7.14907 20.8384 6.41431L15.7711 15.4536C15.5495 13.5906 16.7671 10.4036 16.4254 9.72368L16.4292 9.72429Z" fill="white"/>
<path d="M30.4823 28.5758C35.121 32.5836 38.451 33.2109 38.9454 33.2838L39.556 29.186L39.2488 31.2346L39.5822 29.1902C39.5336 29.1823 34.2134 28.131 27.5493 19.2814L24.2365 21.7706C26.4689 24.7312 28.5834 26.9334 30.4792 28.5715L30.4823 28.5758Z" fill="#EBB333"/>
<path d="M23.318 22.4631L28.4748 18.5895C27.9796 17.9342 27.4861 17.2448 27.0099 16.5429L21.678 20.1735C22.2135 20.9579 22.7664 21.7297 23.318 22.4631Z" fill="url(#paint3_linear_209_867)"/>
<path d="M80.1128 74.353C89.2412 79.2844 95.5651 87.0215 98.7782 93.3284C101.991 99.639 117.344 120.158 122.137 124.256C126.93 128.354 127.161 136.79 123.105 138.523C119.048 140.259 116.018 141.465 103.747 134.826C91.4722 128.187 74.0932 112.47 67.688 107.982C61.2835 103.491 57.1023 102.04 53.6434 97.4046C50.1846 92.7696 57.9977 62.3981 80.1128 74.353Z" fill="url(#paint4_linear_209_867)"/>
<path d="M113.552 131.561C113.537 134.994 113.922 140.629 124.874 139.528C135.827 138.422 164.558 130.71 170.782 129.04C177.006 127.37 188.799 126.241 190.19 125.399C191.585 124.558 184.423 117.96 178.498 117.442C172.574 116.92 164.87 119.294 157.099 119.042C149.328 118.79 141.663 117.142 133.29 120.299C124.918 123.453 122.854 125.082 118.579 125.097C114.304 125.112 113.544 131.564 113.544 131.564L113.552 131.561Z" fill="url(#paint5_linear_209_867)"/>
<path d="M160.393 118.997C167.019 118.672 173.418 116.988 178.503 117.435C184.428 117.956 191.586 124.55 190.195 125.392C188.8 126.233 177.01 127.367 170.787 129.033C167.779 129.841 159.522 132.056 150.549 134.258C154.859 129.297 157.531 124.225 160.393 118.997Z" fill="#E79A2E"/>
<path d="M153.5 118.842C154.008 118.879 154.517 118.908 155.022 118.937C154.94 119.092 154.853 119.246 154.77 119.401C151.659 125.098 148.655 130.59 143.39 135.971C142.517 136.173 141.652 136.373 140.793 136.566C146.936 130.827 150.164 124.954 153.5 118.842Z" fill="#E79A2E"/>
<path d="M85.3873 83.0222C92.9552 90.1157 97.0952 99.2048 98.5902 106.124C100.085 113.043 109.693 136.792 113.28 141.976C116.869 147.157 114.938 155.375 110.573 156.019C106.207 156.663 102.967 157.061 92.7925 147.513C82.6177 137.968 69.8255 118.346 64.7787 112.372C59.7319 106.398 56.0577 103.93 53.8991 98.5648C51.7405 93.1997 67.0483 65.8311 85.3836 83.0216L85.3873 83.0222Z" fill="url(#paint6_linear_209_867)"/>
<path d="M19.4835 38.5242C19.4835 38.5242 20.9061 32.2455 21.9572 30.6207C23.0083 28.996 28.7232 27.4385 31.9447 27.1786C35.1663 26.9188 47.1242 26.7278 48.3276 27.2495C49.5348 27.7719 51.5768 30.8891 52.2795 32.7884C52.986 34.6883 50.5583 38.7349 51.1985 40.7121C51.8355 42.6849 19.4791 38.5273 19.4791 38.5273L19.4835 38.5242Z" fill="#A75EFF"/>
<path d="M14.9995 29.264C22.0185 35.3259 27.7876 32.2837 33.4133 29.3214C39.0688 26.341 44.9211 23.2587 52.7561 28.7375L53.8114 27.2283C45.0531 21.1087 38.4121 24.6063 32.551 27.6948C25.1294 31.6051 18.7156 34.9789 8.85454 18.477L7.27015 19.4212C10.0202 24.0287 12.5812 27.1846 14.9946 29.2709L14.9995 29.264Z" fill="#EBB333"/>
<path d="M89.0993 89.2569C89.0993 89.2569 73.7896 95.3048 56.5216 107.977C56.5216 107.977 53.0519 108.935 50.5361 106.913C48.0204 104.89 31.4271 87.9761 22.6882 75.7167C13.9493 63.4573 11.7929 52.1755 14.3597 45.5588C17.4548 37.5843 22.9254 33.4325 30.934 32.743C38.9464 32.0542 46.3165 33.3517 55.3997 43.8289C64.4792 54.3055 82.024 79.942 89.0999 89.2532L89.0993 89.2569Z" fill="url(#paint7_linear_209_867)"/>
<path d="M19.1856 70.2437C18.6796 70.525 18.5027 71.1626 18.7815 71.6637L20.9639 75.566C21.2464 76.0678 21.8843 76.2484 22.386 75.9702L33.4721 69.7889C33.9782 69.5076 34.1587 68.8707 33.8762 68.3689L31.6938 64.4666C31.4113 63.9648 30.7735 63.7842 30.2712 64.0662L19.185 70.2474L19.1856 70.2437Z" fill="#A75EFF"/>
<path d="M19.1128 37.9275C22.1422 34.8713 26.0677 33.1637 30.937 32.7474C38.9493 32.0586 46.3194 33.356 55.4026 43.8333C64.4821 54.3099 82.0269 79.9464 89.1028 89.2576C89.1028 89.2576 83.4296 91.4998 75.104 96.109C65.1478 88.1167 51.7627 67.8499 48.7199 58.4993C45.3473 48.1375 41.8586 42.8389 33.4452 38.767C27.1892 35.7402 22.2499 37.7152 19.116 37.9318L19.1128 37.9275Z" fill="url(#paint8_linear_209_867)"/>
<path d="M49.3361 106.487C67.7789 90.8206 83.5151 83.1916 83.6698 83.1134L81.0755 77.7155C80.4096 78.0358 64.5261 85.7213 45.4513 101.925L49.333 106.483L49.3361 106.487Z" fill="#A75EFF"/>
<path d="M58.8236 20.8354L68.3625 33.1162L64.8551 35.833L55.3162 23.5521L58.8236 20.8354Z" fill="#202020"/>
<path d="M66.0575 28.0687C66.8116 29.0418 66.6376 30.4381 65.6635 31.1908L62.5123 33.6297C61.542 34.383 60.14 34.208 59.386 33.2349C58.6314 32.2654 58.806 30.8654 59.78 30.1127L62.9318 27.6701C63.9059 26.9174 65.3035 27.0955 66.0581 28.0649L66.0575 28.0687Z" fill="#404040"/>
<path d="M64.2314 28.1423L59.9119 31.4899C55.3909 34.9922 54.5726 41.492 58.0814 46.0088L98.412 97.9027C99.6768 99.5298 102.047 99.8321 103.677 98.5659L118.435 87.1276C120.064 85.8613 120.361 83.4971 119.097 81.8662L78.7666 29.9723C75.2578 25.4555 68.7493 24.6355 64.2282 28.1379L64.2314 28.1423Z" fill="#2B2B2B"/>
<path d="M64.2314 28.1423L62.6642 29.3573L111.649 92.3862L118.435 87.1276C120.064 85.8613 120.361 83.4971 119.097 81.8662L78.7666 29.9723C75.2578 25.4555 68.7493 24.6355 64.2282 28.1379L64.2314 28.1423Z" fill="#383839"/>
<g opacity="0.2">
<path d="M71.4932 63.2662L79.5237 30.9501L78.766 29.9764C77.463 28.3009 75.7506 27.1371 73.8816 26.5106L66.3801 56.6878L71.4932 63.2662Z" fill="#5A5A5A"/>
<path d="M104.893 63.588L101.399 59.0966L93.3688 91.4126L96.8589 95.9034L104.893 63.588Z" fill="#5A5A5A"/>
<path d="M78.5403 72.3313L88.1163 84.6544L96.1506 52.3389L86.5708 40.0152L78.5403 72.3313Z" fill="#5A5A5A"/>
</g>
<path d="M92.1423 91.1972L97.6644 98.3018C99.4363 100.582 102.736 100.998 105.014 99.2284L118.746 88.584C121.028 86.8153 121.443 83.5203 119.67 81.2437L114.148 74.139L92.1386 91.1966L92.1423 91.1972Z" fill="#222222"/>
<path d="M63.2519 24.6011C63.452 24.8559 63.7667 24.9723 63.9703 24.8523L68.7465 22.0196C69.137 21.7884 69.2341 21.2872 68.939 20.9097L66.7838 18.134C66.4887 17.7565 65.9802 17.7234 65.656 18.042L61.7226 21.962C61.5577 22.1266 61.5913 22.4614 61.7914 22.7161L63.2525 24.5974L63.2519 24.6011Z" fill="#202020"/>
<path d="M54.9556 25.0789L53.415 23.0966C52.9011 22.4383 53.022 21.4853 53.6846 20.9729L56.7005 18.6345C57.3631 18.1221 58.3137 18.2426 58.8277 18.9009L60.3682 20.8831L54.9599 25.0757L54.9556 25.0789Z" fill="#D8A42F"/>
<path d="M64.3275 20.9761L65.5741 22.5798L56.63 29.5127L55.3834 27.909L64.3275 20.9761Z" fill="#202020"/>
<path d="M54.2655 20.8554L64.3057 33.7815L60.6128 36.6419L50.5727 23.7158L54.2655 20.8554Z" fill="#323232"/>
<path d="M61.8892 28.4654C62.6852 29.4875 62.499 30.9585 61.4759 31.7529L58.1616 34.3223C57.1391 35.113 55.6656 34.9302 54.8697 33.9081C54.0738 32.886 54.2599 31.415 55.283 30.6206L58.5974 28.0512C59.6204 27.2568 61.0933 27.4433 61.8892 28.4654Z" fill="#535353"/>
<path d="M59.9631 28.5417L55.416 32.0628C50.6579 35.7486 49.7955 42.5897 53.4919 47.3439L95.9338 101.953C97.2649 103.667 99.76 103.982 101.476 102.653L117.007 90.6173C118.723 89.2849 119.037 86.7969 117.706 85.0824L75.2647 30.4698C71.572 25.7163 64.7212 24.8558 59.9668 28.5423L59.9631 28.5417Z" fill="#3D3D3D"/>
<path d="M59.9633 28.542L58.3129 29.8201L109.865 96.1514L117.007 90.6139C118.724 89.2815 119.038 86.7935 117.707 85.079L75.2654 30.4664C71.5728 25.7128 64.7219 24.8524 59.9676 28.5388L59.9633 28.542Z" fill="#4A4A4B"/>
<g opacity="0.2">
<path d="M67.6109 65.5093L76.0631 31.5003L75.2641 30.4739C73.8948 28.711 72.0926 27.4865 70.1215 26.8281L62.2277 58.5881L67.6065 65.5124L67.6109 65.5093Z" fill="#6E6E6E"/>
<path d="M102.757 65.8476L99.0799 61.1157L90.6276 95.1247L94.3046 99.8566L102.757 65.8476Z" fill="#6E6E6E"/>
<path d="M75.0218 75.0473L85.1024 88.0157L93.5547 54.0067L83.4741 41.0383L75.0218 75.0473Z" fill="#6E6E6E"/>
</g>
<path d="M89.3413 94.8997L95.1515 102.377C97.0154 104.776 100.488 105.212 102.889 103.351L117.34 92.1501C119.741 90.2897 120.18 86.8226 118.316 84.4238L112.506 76.9466L89.3456 94.8965L89.3413 94.8997Z" fill="#333333"/>
<path d="M58.9368 24.8163C59.1457 25.0878 59.479 25.2073 59.6913 25.0811L64.7177 22.1015C65.1294 21.8584 65.227 21.3305 64.92 20.9319L62.6504 18.0112C62.3434 17.6127 61.8044 17.5784 61.4659 17.9138L57.3267 22.0376C57.1568 22.2091 57.1874 22.5626 57.3969 22.8304L58.9343 24.8083L58.9368 24.8163Z" fill="#323232"/>
<path d="M50.2035 25.319L48.5835 23.2357C48.0446 22.5427 48.1696 21.5405 48.8639 20.9988L52.0374 18.5406C52.731 18.0026 53.7345 18.1279 54.2772 18.8215L55.8971 20.9048L50.2041 25.3152L50.2035 25.319Z" fill="#EBB333"/>
<path d="M60.0711 20.994L61.3827 22.6814L51.9723 29.9758L50.6607 28.2884L60.0711 20.994Z" fill="#323232"/>
<path d="M48.9651 31.6198C50.4869 33.576 53.3056 33.9284 55.2594 32.4125C57.2168 30.8972 57.5722 28.0828 56.0504 26.1266C54.5323 24.171 51.7141 23.8149 49.7561 25.3339C47.7986 26.8492 47.4426 29.6673 48.9607 31.6229L48.9651 31.6198Z" fill="#354468"/>
<path d="M49.645 31.095C50.8748 32.6781 53.152 32.9651 54.7366 31.7376C56.3212 30.51 56.6082 28.2321 55.3778 26.6528C54.148 25.0697 51.8708 24.7826 50.2862 26.0102C48.7016 27.2378 48.4146 29.5157 49.645 31.095Z" fill="white"/>
<path d="M54.4572 31.3815C55.8401 30.3087 56.0927 28.3124 55.018 26.9308C53.9432 25.5492 51.9443 25.296 50.5614 26.3688L50.869 26.7636C52.0366 25.8587 53.7193 26.0756 54.6228 27.2378C55.5262 28.4 55.3166 30.0854 54.1533 30.9872C52.9862 31.8884 51.3023 31.679 50.3995 30.513L50.0043 30.8201C51.0791 32.2017 53.078 32.4549 54.4609 31.3821L54.4572 31.3815Z" fill="#B3B3B3"/>
<path d="M50.0006 30.8201L50.3958 30.5131C49.4929 29.3471 49.7057 27.6661 50.869 26.7643L50.5614 26.3694C49.1785 27.4422 48.9258 29.4385 50.0006 30.8201Z" fill="#C63E7B"/>
<path d="M52.7203 29.1456L52.7795 28.665L51.126 27.0933L52.2397 29.0825L52.7203 29.1456Z" fill="#EBB333"/>
<path d="M57.3391 28.8299C58.1538 29.8781 59.6677 30.0713 60.7175 29.2544C61.7666 28.4412 61.9595 26.9293 61.1411 25.8805C60.3264 24.8324 58.8124 24.6391 57.7633 25.4523C56.7104 26.2649 56.5213 27.7774 57.3359 28.8256L57.3391 28.8299Z" fill="#354468"/>
<path d="M57.7034 28.5486C58.3624 29.399 59.5875 29.5528 60.435 28.8944C61.2862 28.2366 61.4397 27.0131 60.7801 26.1664C60.1211 25.316 58.896 25.1622 58.0485 25.8206C57.1972 26.4784 57.0437 27.7019 57.7034 28.5486Z" fill="white"/>
<path d="M60.2866 28.6978C61.0286 28.1217 61.1646 27.0524 60.5875 26.3111C60.0105 25.5698 58.9397 25.4335 58.1977 26.0095L58.3627 26.2202C58.99 25.7366 59.892 25.8492 60.3803 26.4764C60.8655 27.0994 60.7525 28.0039 60.1253 28.4876C59.498 28.9713 58.596 28.8587 58.1114 28.232L57.9005 28.3968C58.4775 29.1381 59.5483 29.2744 60.2941 28.699L60.2866 28.6978Z" fill="#B3B3B3"/>
<path d="M57.8963 28.4001L58.1073 28.2353C57.6221 27.6124 57.7351 26.7078 58.3586 26.2235L58.1936 26.0128C57.4515 26.5888 57.3149 27.6619 57.8926 28.3995L57.8963 28.4001Z" fill="#C63E7B"/>
<path d="M59.3545 27.5001L59.3853 27.2409L58.4986 26.3993L59.0955 27.4655L59.3545 27.5001Z" fill="#EBB333"/>
<path d="M31.8531 37.125C40.8404 38.7359 45.3549 47.9741 44.3932 53.3782C43.8551 56.3964 41.7752 60.6147 39.5748 65.0776C38.1427 67.9807 36.6643 70.9796 35.7285 73.4734C33.3935 79.7029 33.0921 85.3142 34.8087 90.5919C33.9339 89.6067 33.0572 88.6097 32.186 87.6021C31.4258 82.9744 32.0292 78.0979 34.0044 72.8284C34.2354 72.2112 34.4968 71.5721 34.7812 70.91C31.119 70.4622 20.9575 68.3151 16.1868 58.1313C13.6584 52.7288 14.1919 46.6345 17.579 42.2311C20.825 38.0114 26.1634 36.1053 31.8569 37.1256L31.8531 37.125ZM19.0374 43.3536C16.0694 47.2088 15.6129 52.5726 17.8514 57.3534C22.4622 67.2009 32.9467 68.8722 35.5648 69.1382C36.2999 67.5462 37.1145 65.8905 37.9167 64.2634C39.9663 60.1129 42.0858 55.8168 42.5745 53.0548C43.407 48.3727 39.4265 40.3513 31.527 38.9369C26.4481 38.0283 21.8982 39.6379 19.0374 43.3536Z" fill="#A75EFF"/>
<path d="M19.0413 43.3541C16.0734 47.2093 15.6168 52.5731 17.8553 57.3539C22.4661 67.2014 32.9506 68.8727 35.5687 69.1387C36.3038 67.5467 37.1184 65.891 37.9206 64.2639C39.9702 60.1135 42.0897 55.8174 42.5784 53.0553C43.4109 48.3732 39.4304 40.3518 31.5309 38.9374C26.452 38.0288 21.9021 39.6384 19.0413 43.3541Z" fill="#43232B"/>
<path d="M102.227 145.769C100.652 148.821 98.428 154.016 108.692 158.002C118.953 161.989 148.059 168.155 154.368 169.494C160.673 170.833 171.696 175.177 173.318 175.058C174.944 174.941 171.565 165.818 166.522 162.668C161.479 159.517 153.536 158.134 146.727 154.381C139.918 150.632 133.837 145.684 124.944 144.697C116.046 143.71 113.47 144.221 109.654 142.296C105.838 140.368 102.227 145.769 102.227 145.769Z" fill="url(#paint9_linear_209_867)"/>
<path d="M154.368 169.494C150.294 168.631 136.716 165.751 124.843 162.746C132.873 160.651 138.648 156.989 145.033 153.415C145.593 153.744 146.157 154.066 146.728 154.377C153.537 158.126 161.48 159.509 166.523 162.664C171.566 165.815 174.944 174.941 173.319 175.055C171.693 175.172 160.674 170.829 154.369 169.491L154.368 169.494Z" fill="#EBB333"/>
<path d="M138.476 151.691C131.971 155.391 125.724 158.941 116.581 160.541C115.474 160.226 114.417 159.912 113.427 159.609C124.001 158.334 130.738 154.504 137.793 150.492C138.19 150.266 138.588 150.039 138.989 149.814C139.452 150.081 139.91 150.351 140.368 150.621C139.735 150.977 139.105 151.334 138.48 151.691L138.476 151.691Z" fill="#EBB333"/>
<path d="M171.75 174.772C171.75 174.772 169.32 168.11 166.524 165.242C163.728 162.373 160.126 160.782 160.204 159.784C160.283 158.786 162.334 157.213 164.036 155.641C165.738 154.068 170.504 150.457 177.239 156.867C183.975 163.277 194.164 176.148 208.175 183.545C222.185 190.946 245.733 191.198 246.642 192.441C247.549 193.68 232.042 193.691 222.185 190.946C206.841 186.671 201.363 184.376 195.627 180.791C189.891 177.209 185.212 182.294 171.746 174.775L171.75 174.772Z" fill="#28324A"/>
<path d="M19.2748 57.6083C22.1215 64.1159 26.8629 65.8005 31.8986 68.4561C36.9305 71.111 40.994 72.8842 46.6501 77.8967C52.3062 82.9092 58.1114 90.1825 60.5863 90.1035C63.0575 90.0239 69.8155 87.3612 66.2089 80.1514C62.6023 72.9416 55.5518 67.0967 49.8832 61.5728C44.2146 56.049 39.6498 50.1536 34.5706 45.5071C27.6621 39.1913 14.0238 45.596 19.2829 57.6058L19.2748 57.6083Z" fill="#532A35"/>
<path d="M64.4976 122.046C64.4976 122.046 64.1574 124.415 64.0837 127.336C64.01 130.258 64.3824 134.512 64.5112 135.51C64.64 136.508 66.3662 140.55 67.1402 142.694C67.9098 144.842 68.1323 146.089 68.3242 146.181C68.5162 146.274 69.2649 145.963 69.3345 144.783C69.4035 143.607 67.725 138.661 67.725 138.661C67.725 138.661 69.8414 142.239 70.3766 143.073C70.9117 143.907 72.2066 145.255 72.5654 146.019C72.7673 146.45 73.6314 145.737 73.2487 144.391C72.866 143.046 72.0464 142.005 71.8502 141.467C71.6578 140.93 70.2048 138.223 70.2048 138.223C70.2048 138.223 71.8254 139.832 72.5937 140.953C73.3583 142.073 74.9432 143.431 75.3732 144.274C75.6878 144.885 76.781 143.707 75.7329 142.138C74.6848 140.57 74.0153 139.901 73.7843 139.343C73.5501 138.78 72.329 137.049 72.329 137.049C72.329 137.049 73.9556 137.563 74.7499 138.336C75.5443 139.109 77.2799 139.495 78.0425 140.275C78.8052 141.054 78.8453 139.303 78.0345 138.466C77.2238 137.629 75.895 137.217 75.5328 136.687C75.1705 136.157 73.2638 134.444 73.117 133.792C72.9659 133.143 73.5131 130.046 72.9886 127.054C72.4635 124.065 72.05 123.308 71.2734 121.297C70.5005 119.287 70.4614 119.127 70.4614 119.127L64.502 122.043L64.4976 122.046Z" fill="#28324A"/>
<path d="M68.3711 121.785L71.1237 120.92C71.1695 121.039 71.2179 121.166 71.2688 121.3C72.0423 123.307 72.4589 124.068 72.984 127.056C73.3903 129.386 73.1498 131.779 73.0953 133.03C72.3869 132.788 71.4555 132.291 70.346 131.287C67.7001 128.887 68.3673 121.785 68.3673 121.785L68.3711 121.785Z" fill="#EBB333"/>
<path d="M56.0684 80.792C56.5563 78.317 63.4256 75.4656 66.6008 80.6404C69.7724 85.8146 70.2684 91.6861 70.7335 98.4296C71.1986 105.173 70.9027 112.727 71.4044 118.281L63.6101 120.714C63.6101 120.714 62.5809 112.209 61.2055 106.462C59.8301 100.715 54.6217 88.1352 56.0684 80.792Z" fill="#532A35"/>
<path d="M69.2424 87.0188C70.1509 90.5257 70.4494 94.316 70.733 98.4333C71.1981 105.177 70.9021 112.731 71.4038 118.285L63.6095 120.718C63.6095 120.718 62.8501 114.462 61.7684 109.055C63.0649 102.514 65.0443 93.856 69.2424 87.0188Z" fill="#EBB333"/>
<path d="M67.0637 81.4473C67.4252 82.0999 67.75 82.7656 68.0381 83.4445C64.0139 90.6968 62.2276 99.7234 61.0464 105.838C60.7605 104.746 60.3649 103.456 59.9221 102.032C61.2092 95.785 63.2 87.8794 67.0637 81.4473Z" fill="#EBB333"/>
<path d="M62.885 120.174C62.885 120.174 70.8278 117.866 71.9544 117.8C71.9544 117.8 72.7885 121.387 72.8095 122.999L63.9456 125.759C63.9456 125.759 63.0813 123.91 62.885 120.174Z" fill="#28324A"/>
<path d="M122.086 70.5694C122.104 70.7141 122.083 70.8677 122.01 71.009C121.824 71.3731 121.375 71.5182 121.007 71.328C116.09 68.7951 111.549 66.5151 107.156 64.3129C84.5577 52.9724 69.6268 45.4786 56.6035 29.9547C56.3366 29.6393 56.3784 29.1712 56.6935 28.9085C57.0086 28.6459 57.4773 28.6878 57.741 28.9989C70.5656 44.2836 85.3862 51.7249 107.822 62.9815C112.218 65.188 116.762 67.4686 121.687 70.0064C121.909 70.1232 122.051 70.334 122.082 70.5688L122.086 70.5694Z" fill="#EBB333"/>
<path d="M119.751 72.1649C119.173 71.8791 118.937 71.182 119.223 70.6043L120.086 68.8646C120.371 68.2907 121.074 68.0528 121.648 68.3381L126.289 70.6382C126.868 70.924 127.103 71.6248 126.817 72.1987L125.954 73.9385C125.669 74.5161 124.967 74.7502 124.392 74.465L119.751 72.1649Z" fill="#2B2E4D"/>
<path d="M131.882 81.7988L133.213 76.4588L136.662 72.1689C134.501 72.4445 131.683 72.6016 131.047 70.5064L129.396 74.5648L127.159 78.3362C129.215 77.5763 130.935 79.9171 131.882 81.7988Z" fill="#2B2E4D"/>
<path d="M134.605 84.3641C131.401 82.777 130.093 78.8949 131.681 75.6955C133.269 72.4961 137.152 71.1913 140.36 72.7791C143.564 74.3662 144.871 78.2483 143.284 81.4477C141.696 84.6471 137.813 85.9519 134.609 84.3647L134.605 84.3641Z" fill="#2B2E4D"/>
<path d="M134.896 83.7797C132.015 82.3524 130.839 78.8633 132.267 75.9863C133.694 73.1093 137.188 71.9364 140.069 73.3636C142.95 74.7909 144.126 78.28 142.698 81.157C141.27 84.034 137.777 85.2069 134.896 83.7797Z" fill="white"/>
<path d="M133.061 76.3801C134.271 73.9463 137.233 72.9509 139.671 74.1565C142.108 75.3659 143.106 78.3244 141.896 80.7581L141.201 80.4149C142.218 78.3633 141.378 75.871 139.324 74.8506C137.269 73.8339 134.774 74.6717 133.757 76.7233C132.74 78.7749 133.58 81.2672 135.634 82.2839L135.287 82.9779C132.85 81.7686 131.852 78.8101 133.058 76.3757L133.061 76.3801Z" fill="#B3B3B3"/>
<path d="M135.29 82.9825L135.638 82.2885C137.688 83.3046 140.187 82.4674 141.204 80.4158L141.9 80.759C140.695 83.1897 137.728 84.1881 135.291 82.9788L135.29 82.9825Z" fill="#C63E7B"/>
<path d="M137.003 78.3328L137.717 78.0931L140.622 80.1293L137.244 79.0461L137.003 78.3328Z" fill="#EBB333"/>
<path d="M124.265 77.8298C121.686 76.5513 120.634 73.4271 121.913 70.8514C123.192 68.2757 126.32 67.227 128.896 68.5049C131.475 69.7834 132.527 72.9038 131.248 75.4795C129.969 78.0552 126.845 79.1046 124.265 77.8298Z" fill="#2B2E4D"/>
<path d="M127.954 77.6422C130.429 76.8852 131.818 74.2663 131.059 71.7948C130.3 69.3234 127.677 67.9345 125.203 68.6914C122.729 69.4484 121.339 72.0674 122.098 74.5388C122.857 77.0102 125.476 78.3986 127.951 77.6416L127.954 77.6422Z" fill="white"/>
<path d="M123.024 71.4039C123.995 69.4444 126.381 68.6424 128.343 69.6171C130.305 70.5882 131.109 72.9712 130.138 74.9307L129.577 74.6516C130.395 73.0003 129.717 70.994 128.068 70.1736C126.414 69.3563 124.406 70.0284 123.585 71.6792C122.767 73.3305 123.445 75.3368 125.095 76.1535L124.815 76.7131C122.854 75.7383 122.05 73.3553 123.02 71.3995L123.024 71.4039Z" fill="#B3B3B3"/>
<path d="M124.814 76.7209L125.094 76.1613C126.747 76.9786 128.756 76.3027 129.577 74.6557L130.137 74.9348C129.166 76.8942 126.776 77.6957 124.817 76.7252L124.814 76.7209Z" fill="#C63E7B"/>
<path d="M126.171 73.292L126.453 72.7597L129.275 72.3428L126.707 73.5786L126.171 73.292Z" fill="#EBB333"/>
<path d="M7.7037 14.4347L11.1489 17.4092L7.8009 21.2776L4.35567 18.3031L7.7037 14.4347Z" fill="url(#paint10_linear_209_867)"/>
<path d="M1.23937 18.5184C0.743114 19.0923 0.807368 19.9684 1.38168 20.468L2.64577 21.5588C3.22069 22.0546 4.09778 21.9908 4.59778 21.4175L10.3999 14.7155C10.8962 14.1415 10.8319 13.2655 10.2576 12.7659L8.99352 11.6751C8.4186 11.1792 7.54148 11.243 7.04149 11.8164L1.23937 18.5184Z" fill="url(#paint11_linear_209_867)"/>
<defs>
<linearGradient id="paint0_linear_209_867" x1="14.8784" y1="13.8561" x2="17.7766" y2="29.8029" gradientUnits="userSpaceOnUse">
<stop stop-color="#1A237E"/>
<stop offset="1" stop-color="#1E014A"/>
</linearGradient>
<linearGradient id="paint1_linear_209_867" x1="11.8194" y1="17.8514" x2="12.7987" y2="23.2033" gradientUnits="userSpaceOnUse">
<stop stop-color="#1A237E"/>
<stop offset="1" stop-color="#1E014A"/>
</linearGradient>
<linearGradient id="paint2_linear_209_867" x1="20.3317" y1="21.5396" x2="22.1279" y2="35.3187" gradientUnits="userSpaceOnUse">
<stop stop-color="#1A237E"/>
<stop offset="1" stop-color="#1E014A"/>
</linearGradient>
<linearGradient id="paint3_linear_209_867" x1="25.5773" y1="16.3093" x2="26.1734" y2="22.2285" gradientUnits="userSpaceOnUse">
<stop stop-color="#1A237E"/>
<stop offset="1" stop-color="#1E014A"/>
</linearGradient>
<linearGradient id="paint4_linear_209_867" x1="95.523" y1="75.4693" x2="97.8201" y2="131.799" gradientUnits="userSpaceOnUse">
<stop stop-color="#1A237E"/>
<stop offset="1" stop-color="#1E014A"/>
</linearGradient>
<linearGradient id="paint5_linear_209_867" x1="154.375" y1="113.482" x2="152.896" y2="143.156" gradientUnits="userSpaceOnUse">
<stop stop-color="#1A237E"/>
<stop offset="1" stop-color="#1E014A"/>
</linearGradient>
<linearGradient id="paint6_linear_209_867" x1="91.4022" y1="80.208" x2="98.9912" y2="146.655" gradientUnits="userSpaceOnUse">
<stop stop-color="#1A237E"/>
<stop offset="1" stop-color="#1E014A"/>
</linearGradient>
<linearGradient id="paint7_linear_209_867" x1="56.7177" y1="35.8969" x2="61.5325" y2="102.571" gradientUnits="userSpaceOnUse">
<stop stop-color="#1A237E"/>
<stop offset="1" stop-color="#1E014A"/>
</linearGradient>
<linearGradient id="paint8_linear_209_867" x1="58.5738" y1="36.2035" x2="60.2793" y2="89.1919" gradientUnits="userSpaceOnUse">
<stop stop-color="#1A237E"/>
<stop offset="1" stop-color="#1E014A"/>
</linearGradient>
<linearGradient id="paint9_linear_209_867" x1="139.755" y1="147.018" x2="137.996" y2="168.228" gradientUnits="userSpaceOnUse">
<stop stop-color="#1A237E"/>
<stop offset="1" stop-color="#1E014A"/>
</linearGradient>
<linearGradient id="paint10_linear_209_867" x1="9.42631" y1="15.9219" x2="7.52106" y2="20.2014" gradientUnits="userSpaceOnUse">
<stop stop-color="#1A237E"/>
<stop offset="1" stop-color="#1E014A"/>
</linearGradient>
<linearGradient id="paint11_linear_209_867" x1="6.71939" y1="11.0989" x2="8.39624" y2="21.0881" gradientUnits="userSpaceOnUse">
<stop stop-color="#1A237E"/>
<stop offset="1" stop-color="#1E014A"/>
</linearGradient>
</defs>
</svg>
