<svg width="208" height="296" viewBox="0 0 208 296" fill="none" xmlns="http://www.w3.org/2000/svg">
<path d="M103.82 261.737L0.191025 202.02L103.82 142.304L207.462 202.02L103.82 261.737Z" fill="url(#paint0_linear_274_257)"/>
<path d="M207.462 202.02V235.863L103.82 295.579V261.736L207.462 202.02Z" fill="url(#paint1_linear_274_257)"/>
<path opacity="0.6" d="M0.191254 202.02V235.863L103.82 295.579V261.736L0.191254 202.02Z" fill="url(#paint2_linear_274_257)"/>
<path d="M73.5774 259.94L54.8034 249.119V251.358L73.5644 262.166L73.5774 259.94Z" fill="#FF4081"/>
<path d="M52.1024 247.582L47.0142 244.652V246.892L52.1024 249.822V247.582Z" fill="#FF4081"/>
<path d="M28.28 233.857L17.8819 227.867L17.8688 230.094L28.28 236.097V233.857Z" fill="#FF4081"/>
<path d="M37.7783 239.327L30.2504 234.991V237.23L37.7783 241.566V239.327Z" fill="#FF4081"/>
<path d="M44.8222 243.402L39.7471 240.472V242.699L44.8222 245.629V243.402Z" fill="#FF4081"/>
<path d="M103.924 173.502L100.637 171.614L103.924 169.713L107.225 171.614L103.924 173.502Z" fill="#681CFF"/>
<path opacity="0.1" d="M110.513 177.305L107.225 175.404L110.513 173.503L113.8 175.404L110.513 177.305Z" fill="#681CFF"/>
<path opacity="0.4" d="M117.088 181.094L113.8 179.193L117.088 177.305L120.388 179.193L117.088 181.094Z" fill="#681CFF"/>
<path d="M123.676 184.884L120.389 182.996L123.676 181.095L126.964 182.996L123.676 184.884Z" fill="#681CFF"/>
<path opacity="0.4" d="M130.251 188.673L126.964 186.785L130.251 184.884L133.552 186.785L130.251 188.673Z" fill="#681CFF"/>
<path d="M136.839 192.474L133.552 190.573L136.839 188.672L140.127 190.573L136.839 192.474Z" fill="#681CFF"/>
<path d="M143.415 196.264L140.127 194.363L143.415 192.475L146.703 194.363L143.415 196.264Z" fill="#681CFF"/>
<path d="M150.003 200.054L146.715 198.166L150.003 196.264L153.291 198.166L150.003 200.054Z" fill="#681CFF"/>
<path opacity="0.1" d="M156.579 203.843L153.291 201.955L156.579 200.054L159.867 201.955L156.579 203.843Z" fill="#681CFF"/>
<path d="M97.3218 177.318L94.0341 175.417L97.3218 173.529L100.61 175.417L97.3218 177.318Z" fill="#681CFF"/>
<path d="M103.897 181.108L100.609 179.22L103.897 177.318L107.198 179.22L103.897 181.108Z" fill="#681CFF"/>
<path d="M110.485 184.896L107.198 183.008L110.485 181.107L113.773 183.008L110.485 184.896Z" fill="#681CFF"/>
<path opacity="0.8" d="M117.061 188.698L113.773 186.797L117.061 184.896L120.361 186.797L117.061 188.698Z" fill="#FFEEF7"/>
<path d="M123.649 192.489L120.361 190.587L123.649 188.699L126.937 190.587L123.649 192.489Z" fill="#681CFF"/>
<path d="M130.224 196.278L126.936 194.39L130.224 192.489L133.525 194.39L130.224 196.278Z" fill="#681CFF"/>
<path opacity="0.8" d="M136.814 200.067L133.527 198.178L136.814 196.277L140.102 198.178L136.814 200.067Z" fill="url(#paint3_radial_274_257)"/>
<path d="M143.39 203.869L140.102 201.968L143.39 200.067L146.678 201.968L143.39 203.869Z" fill="#681CFF"/>
<path opacity="0.8" d="M149.978 207.658L146.677 205.757L149.978 203.869L153.266 205.757L149.978 207.658Z" fill="#FFEEF7"/>
<path d="M90.7077 181.12L87.42 179.232L90.7077 177.331L94.0085 179.232L90.7077 181.12Z" fill="#681CFF"/>
<path opacity="0.8" d="M97.2959 184.923L94.0082 183.022L97.2959 181.12L100.584 183.022L97.2959 184.923Z" fill="#FFEEF7"/>
<path d="M103.871 188.712L100.584 186.811L103.871 184.923L107.172 186.811L103.871 188.712Z" fill="#681CFF"/>
<path opacity="0.1" d="M110.46 192.501L107.172 190.6L110.46 188.712L113.747 190.6L110.46 192.501Z" fill="#681CFF"/>
<path opacity="0.4" d="M117.035 196.291L113.748 194.403L117.035 192.501L120.336 194.403L117.035 196.291Z" fill="#681CFF"/>
<path opacity="0.4" d="M123.623 200.092L120.336 198.191L123.623 196.29L126.911 198.191L123.623 200.092Z" fill="#681CFF"/>
<path d="M130.199 203.882L126.911 201.981L130.199 200.093L133.487 201.981L130.199 203.882Z" fill="#681CFF"/>
<path d="M136.788 207.671L133.487 205.77L136.788 203.882L140.075 205.77L136.788 207.671Z" fill="#681CFF"/>
<path d="M143.363 211.46L140.075 209.572L143.363 207.671L146.65 209.572L143.363 211.46Z" fill="#681CFF"/>
<path opacity="0.4" d="M84.1057 184.936L80.8179 183.035L84.1057 181.147L87.3934 183.035L84.1057 184.936Z" fill="#681CFF"/>
<path opacity="0.4" d="M90.6804 188.724L87.3927 186.823L90.6804 184.935L93.9812 186.823L90.6804 188.724Z" fill="#681CFF"/>
<path opacity="0.1" d="M97.2687 192.514L93.9809 190.626L97.2687 188.725L100.556 190.626L97.2687 192.514Z" fill="#681CFF"/>
<path d="M103.844 196.316L100.556 194.415L103.844 192.514L107.145 194.415L103.844 196.316Z" fill="#681CFF"/>
<path d="M110.432 200.106L107.145 198.205L110.432 196.316L113.72 198.205L110.432 200.106Z" fill="#681CFF"/>
<path opacity="0.8" d="M117.01 203.895L113.722 201.994L117.01 200.106L120.31 201.994L117.01 203.895Z" fill="#FFEEF7"/>
<path opacity="0.4" d="M123.598 207.685L120.31 205.797L123.598 203.895L126.886 205.797L123.598 207.685Z" fill="#681CFF"/>
<path d="M130.173 211.486L126.886 209.585L130.173 207.684L133.461 209.585L130.173 211.486Z" fill="#681CFF"/>
<path d="M136.762 215.276L133.461 213.375L136.762 211.487L140.05 213.375L136.762 215.276Z" fill="#681CFF"/>
<path opacity="0.8" d="M77.4915 188.738L74.2038 186.85L77.4915 184.949L80.7923 186.85L77.4915 188.738Z" fill="#FFEEF7"/>
<path d="M84.0798 192.527L80.7921 190.638L84.0798 188.737L87.3675 190.638L84.0798 192.527Z" fill="#681CFF"/>
<path d="M90.6552 196.329L87.3675 194.428L90.6552 192.527L93.956 194.428L90.6552 196.329Z" fill="#681CFF"/>
<path d="M97.2435 200.119L93.9557 198.218L97.2435 196.33L100.531 198.218L97.2435 200.119Z" fill="#681CFF"/>
<path opacity="0.8" d="M103.819 203.908L100.531 202.02L103.819 200.119L107.12 202.02L103.819 203.908Z" fill="#FFEEF7"/>
<path opacity="0.8" d="M110.407 207.697L107.119 205.809L110.407 203.908L113.695 205.809L110.407 207.697Z" fill="#FFEEF7"/>
<path d="M116.983 211.5L113.695 209.598L116.983 207.697L120.271 209.598L116.983 211.5Z" fill="#681CFF"/>
<path d="M123.571 215.289L120.27 213.388L123.571 211.499L126.859 213.388L123.571 215.289Z" fill="#681CFF"/>
<path d="M130.146 219.078L126.859 217.19L130.146 215.289L133.434 217.19L130.146 219.078Z" fill="#681CFF"/>
<path d="M70.8886 192.553L67.6008 190.652L70.8886 188.751L74.1763 190.652L70.8886 192.553Z" fill="#681CFF"/>
<path d="M77.4642 196.342L74.1765 194.441L77.4642 192.553L80.765 194.441L77.4642 196.342Z" fill="#681CFF"/>
<path opacity="0.4" d="M84.0546 200.132L80.7669 198.244L84.0546 196.343L87.3424 198.244L84.0546 200.132Z" fill="#681CFF"/>
<path opacity="0.8" d="M90.6279 203.921L87.3402 202.033L90.6279 200.132L93.9287 202.033L90.6279 203.921Z" fill="#FFEEF7"/>
<path opacity="0.1" d="M97.2179 207.723L93.9301 205.822L97.2179 203.921L100.506 205.822L97.2179 207.723Z" fill="#681CFF"/>
<path d="M103.794 211.513L100.506 209.612L103.794 207.724L107.081 209.612L103.794 211.513Z" fill="#681CFF"/>
<path d="M110.382 215.302L107.081 213.414L110.382 211.513L113.67 213.414L110.382 215.302Z" fill="#681CFF"/>
<path opacity="0.8" d="M116.957 219.091L113.669 217.203L116.957 215.302L120.245 217.203L116.957 219.091Z" fill="#FFEEF7"/>
<path d="M123.546 222.893L120.245 220.992L123.546 219.091L126.833 220.992L123.546 222.893Z" fill="#681CFF"/>
<path d="M64.2754 196.355L60.9877 194.454L64.2754 192.566L67.5762 194.454L64.2754 196.355Z" fill="#681CFF"/>
<path d="M70.8636 200.144L67.5759 198.256L70.8636 196.355L74.1514 198.256L70.8636 200.144Z" fill="#681CFF"/>
<path opacity="0.4" d="M77.4391 203.947L74.1514 202.046L77.4391 200.145L80.7399 202.046L77.4391 203.947Z" fill="#681CFF"/>
<path d="M84.0276 207.736L80.7398 205.835L84.0276 203.947L87.3153 205.835L84.0276 207.736Z" fill="#681CFF"/>
<path d="M90.6026 211.526L87.3148 209.625L90.6026 207.736L93.9033 209.625L90.6026 211.526Z" fill="#681CFF"/>
<path opacity="0.1" d="M97.191 215.315L93.9033 213.427L97.191 211.526L100.479 213.427L97.191 215.315Z" fill="#681CFF"/>
<path opacity="0.4" d="M103.766 219.117L100.478 217.216L103.766 215.315L107.054 217.216L103.766 219.117Z" fill="#681CFF"/>
<path d="M110.355 222.907L107.054 221.006L110.355 219.117L113.642 221.006L110.355 222.907Z" fill="#681CFF"/>
<path opacity="0.1" d="M116.93 226.695L113.642 224.794L116.93 222.906L120.218 224.794L116.93 226.695Z" fill="#681CFF"/>
<path d="M57.6743 200.158L54.3866 198.27L57.6743 196.369L60.9621 198.27L57.6743 200.158Z" fill="#681CFF"/>
<path opacity="0.4" d="M64.2481 203.961L60.9604 202.06L64.2481 200.158L67.5489 202.06L64.2481 203.961Z" fill="#681CFF"/>
<path d="M70.8366 207.75L67.5489 205.849L70.8366 203.96L74.1243 205.849L70.8366 207.75Z" fill="#681CFF"/>
<path d="M77.4118 211.538L74.1241 209.65L77.4118 207.749L80.7126 209.65L77.4118 211.538Z" fill="#681CFF"/>
<path d="M84.0017 215.341L80.714 213.439L84.0017 211.538L87.2894 213.439L84.0017 215.341Z" fill="#681CFF"/>
<path d="M90.5776 219.131L87.2899 217.23L90.5776 215.341L93.8654 217.23L90.5776 219.131Z" fill="#681CFF"/>
<path d="M97.1659 222.919L93.8651 221.018L97.1659 219.13L100.454 221.018L97.1659 222.919Z" fill="#681CFF"/>
<path opacity="0.4" d="M103.741 226.709L100.453 224.821L103.741 222.919L107.029 224.821L103.741 226.709Z" fill="#681CFF"/>
<path d="M110.33 230.511L107.029 228.61L110.33 226.709L113.617 228.61L110.33 230.511Z" fill="#681CFF"/>
<path d="M51.0588 203.973L47.771 202.072L51.0588 200.184L54.3595 202.072L51.0588 203.973Z" fill="#681CFF"/>
<path opacity="0.1" d="M57.647 207.763L54.3593 205.874L57.647 203.973L60.9348 205.874L57.647 207.763Z" fill="#681CFF"/>
<path opacity="0.8" d="M64.2225 211.552L60.9347 209.664L64.2225 207.763L67.5232 209.664L64.2225 211.552Z" fill="#FFEEF7"/>
<path d="M70.8107 215.354L67.523 213.453L70.8107 211.552L74.0985 213.453L70.8107 215.354Z" fill="#681CFF"/>
<path d="M77.3864 219.143L74.0987 217.242L77.3864 215.354L80.6741 217.242L77.3864 219.143Z" fill="#681CFF"/>
<path d="M83.9749 222.933L80.6741 221.045L83.9749 219.144L87.2626 221.045L83.9749 222.933Z" fill="#681CFF"/>
<path opacity="0.4" d="M90.5499 226.721L87.2621 224.833L90.5499 222.932L93.8376 224.833L90.5499 226.721Z" fill="#681CFF"/>
<path opacity="0.8" d="M97.1386 230.524L93.8378 228.623L97.1386 226.722L100.426 228.623L97.1386 230.524Z" fill="#FFEEF7"/>
<path d="M103.714 234.313L100.426 232.412L103.714 230.524L107.002 232.412L103.714 234.313Z" fill="#681CFF"/>
<path d="M152.868 114.469C151.734 114.469 150.673 114.695 149.686 115.147C148.699 115.565 147.839 116.14 147.107 116.87C146.375 117.601 145.791 118.453 145.352 119.426C144.95 120.366 144.749 121.358 144.749 122.402C144.749 123.237 144.913 124.037 145.243 124.802C145.572 125.533 146.011 126.176 146.56 126.733C147.144 127.29 147.821 127.725 148.589 128.037C149.357 128.386 150.18 128.56 151.057 128.56C152.118 128.56 153.123 128.334 154.075 127.881C155.027 127.463 155.85 126.89 156.545 126.159C157.275 125.394 157.842 124.524 158.244 123.55C158.683 122.576 158.902 121.55 158.902 120.471C158.902 118.767 158.335 117.34 157.202 116.192C156.105 115.043 154.66 114.469 152.868 114.469Z" fill="url(#paint4_linear_274_257)"/>
<path d="M87.5514 80.6468C87.8335 80.6944 88.1175 80.7174 88.3996 80.7174H89.3888C93.489 80.7174 97.3528 79.8462 100.98 78.1022C104.655 76.3121 107.859 74.0497 110.593 71.3165C113.326 68.5829 115.47 65.5445 117.026 62.1976C118.629 58.8522 119.429 55.6005 119.429 52.4438C119.429 50.1814 119.004 48.0385 118.158 46.0124C117.357 43.9863 116.061 42.2193 114.269 40.7116C112.525 39.2036 110.265 38.0011 107.484 37.1069C104.75 36.2111 101.476 35.7632 97.6579 35.7632C93.3694 35.7632 89.6712 36.1636 86.5606 36.9643C83.4973 37.765 80.8347 38.8019 78.5739 40.0748C76.3588 41.3465 74.4737 42.8083 72.9184 44.4571C71.4107 46.1061 70.0915 47.8025 68.9596 49.5465C67.8751 51.2905 66.8858 52.9869 65.99 54.6356C65.0942 56.2846 64.1525 57.7465 63.1632 59.0179C62.2214 60.2895 61.16 61.3264 59.982 62.1285C58.804 62.9293 57.3438 63.3297 55.5998 63.3297C53.2438 63.3297 51.4768 62.7406 50.2988 61.5627C49.1208 60.3371 48.5318 58.6407 48.5318 56.4733C48.5318 54.4472 49.0732 52.2551 50.1577 49.8993C51.2881 47.5431 52.8665 45.1873 54.8942 42.8311C56.968 40.4752 59.4881 38.2128 62.4576 36.0455C65.4271 33.8306 68.7479 31.898 72.4246 30.249C76.1473 28.5526 80.1996 27.209 84.5818 26.2196C88.9641 25.1827 93.6054 24.6643 98.5061 24.6643C103.407 24.6643 107.907 25.2763 112.289 26.5019C116.719 27.7274 120.63 29.565 124.023 32.0145C127.416 34.4181 130.102 37.4566 132.081 41.1332C134.107 44.8083 135.121 49.0971 135.121 53.9976C135.121 57.2969 134.509 60.4536 133.283 63.4692C132.105 66.4388 130.502 69.2411 128.476 71.8807C126.45 74.4731 124.071 76.8767 121.338 79.0899C118.652 81.2573 115.777 83.1898 112.714 84.8864C109.651 86.5828 106.494 88.0201 103.243 89.198C100.038 90.3759 96.9278 91.2241 93.9122 91.7426C94.3372 93.9576 95.0197 96.4546 95.9616 99.2355C96.9508 101.969 98.1287 104.584 99.4954 107.081C100.91 109.532 102.463 111.629 104.16 113.371C105.856 115.115 107.646 116.057 109.532 116.198C109.909 116.246 110.262 116.269 110.591 116.269H111.581C115.021 116.269 118.084 115.703 120.77 114.572C123.456 113.442 125.694 112.194 127.485 110.827C129.605 109.272 131.444 107.457 132.998 105.385C134.458 103.736 135.943 102.911 137.45 102.911C138.392 102.911 139.195 103.24 139.854 103.9C140.514 104.56 140.844 105.455 140.844 106.586C140.844 107.716 140.491 108.942 139.784 110.402C139.124 111.816 137.969 113.299 136.32 114.855C131.467 119.426 126.707 122.771 122.042 124.892C117.423 126.966 113.041 128.003 108.895 128.003C105.502 128.003 102.368 127.036 99.4938 125.105C96.6195 123.173 94.0043 120.558 91.6484 117.26C89.2923 113.961 87.1479 110.121 85.217 105.739C83.2843 101.309 81.5649 96.6448 80.0569 91.7441C79.2088 93.6768 78.3375 95.9623 77.4417 98.6006C76.5459 101.193 75.5813 103.878 74.5444 106.658C73.5075 109.439 72.423 112.195 71.2927 114.928C70.1621 117.614 68.9135 120.041 67.5469 122.208C66.1803 124.328 64.72 126.049 63.1647 127.368C61.6094 128.687 59.9129 129.347 58.0754 129.347C56.5676 129.347 55.3421 129.11 54.4003 128.639C53.4585 128.169 52.7269 127.579 52.2084 126.872C51.69 126.165 51.3127 125.388 51.078 124.54C50.8893 123.691 50.7958 122.891 50.7958 122.136C50.7958 121.051 50.9369 119.944 51.2191 118.814C51.5013 117.683 51.9017 116.622 52.4201 115.632L73.2712 77.4626C75.0613 74.2583 76.8529 71.1723 78.6427 68.2027C80.4804 65.187 82.2474 62.5245 83.9438 60.216C85.6878 57.9074 87.3135 56.07 88.8215 54.7031C90.3768 53.2891 91.7664 52.582 92.992 52.582C93.3217 52.582 93.7222 52.6524 94.193 52.7935C94.6638 52.8872 95.0888 53.1004 95.4646 53.4302C95.8417 53.7123 96.1717 54.1603 96.4538 54.7738C96.736 55.3399 96.8788 56.07 96.8788 56.9656C96.8788 57.8614 96.6195 59.11 96.1011 60.7114C95.5826 62.3143 94.9001 64.1517 94.0519 66.2239C93.2037 68.2977 92.2142 70.5832 91.0823 73.0803C89.9518 75.5299 88.7738 78.0514 87.5483 80.6436L87.5514 80.6468Z" fill="#681CFF"/>
<path style="mix-blend-mode:lighten" opacity="0.5" d="M207.443 202.026V0.434465H0.193268V202.026L103.827 261.737L207.443 202.026Z" fill="url(#paint5_linear_274_257)"/>
<defs>
<linearGradient id="paint0_linear_274_257" x1="103.826" y1="142.304" x2="103.826" y2="261.737" gradientUnits="userSpaceOnUse">
<stop stop-color="#681CFF"/>
<stop offset="1" stop-color="#FD3F83"/>
</linearGradient>
<linearGradient id="paint1_linear_274_257" x1="103.82" y1="248.8" x2="207.462" y2="248.8" gradientUnits="userSpaceOnUse">
<stop stop-color="#2E256B"/>
<stop offset="1" stop-color="#5A3087"/>
</linearGradient>
<linearGradient id="paint2_linear_274_257" x1="0.191254" y1="248.8" x2="103.82" y2="248.8" gradientUnits="userSpaceOnUse">
<stop stop-color="#681CFF"/>
<stop offset="1" stop-color="#681CFF"/>
</linearGradient>
<radialGradient id="paint3_radial_274_257" cx="0" cy="0" r="1" gradientUnits="userSpaceOnUse" gradientTransform="translate(136.814 198.178) scale(2.68759 2.68243)">
<stop stop-color="#FF2C9C"/>
<stop offset="0.03" stop-color="#F52E9F"/>
<stop offset="0.2" stop-color="#C53EB0"/>
<stop offset="0.37" stop-color="#9D4ABE"/>
<stop offset="0.54" stop-color="#7E54C8"/>
<stop offset="0.7" stop-color="#685BD0"/>
<stop offset="0.86" stop-color="#5B5FD5"/>
<stop offset="1" stop-color="#5761D7"/>
</radialGradient>
<linearGradient id="paint4_linear_274_257" x1="151.826" y1="114.469" x2="151.826" y2="128.56" gradientUnits="userSpaceOnUse">
<stop stop-color="#681CFF"/>
<stop offset="1" stop-color="#FD3F83"/>
</linearGradient>
<linearGradient id="paint5_linear_274_257" x1="103.827" y1="261.737" x2="103.827" y2="-89.5756" gradientUnits="userSpaceOnUse">
<stop stop-color="#681CFF"/>
<stop offset="0.11" stop-color="#5D2CBE"/>
<stop offset="0.22" stop-color="#50289E"/>
<stop offset="0.34" stop-color="#452389"/>
<stop offset="0.46" stop-color="#32166A"/>
<stop offset="0.58" stop-color="#2C1559"/>
<stop offset="0.71" stop-color="#1E0B44"/>
<stop offset="0.85" stop-color="#1F0651"/>
<stop offset="1" stop-color="#160240"/>
</linearGradient>
</defs>
</svg>
