<svg width="89" height="103" viewBox="0 0 89 103" fill="none" xmlns="http://www.w3.org/2000/svg">
<path d="M66.8945 4.5543L79.7937 17.4536L3.32123 17.4536C2.67429 17.4536 2.05382 17.7106 1.59636 18.168C1.13889 18.6255 0.881896 19.2459 0.881896 19.8929C0.881896 20.5399 1.13889 21.1603 1.59636 21.6178C2.05382 22.0752 2.67428 22.3322 3.32123 22.3322L79.8181 22.3323L66.8896 35.2559C66.4322 35.714 66.1755 36.3349 66.1759 36.9822C66.1764 37.6296 66.434 38.2502 66.892 38.7076C67.3501 39.165 67.9711 39.4217 68.6184 39.4212C69.2657 39.4208 69.8863 39.1632 70.3437 38.7051L87.3703 21.6785L87.4191 21.6297C87.6464 21.4032 87.8267 21.134 87.9498 20.8376C88.0728 20.5413 88.1362 20.2236 88.1363 19.9027L88.1363 19.8929C88.1364 19.5365 88.0582 19.1845 87.9073 18.8616C87.7564 18.5387 87.5365 18.2529 87.263 18.0244L70.3437 1.10018C70.1169 0.873701 69.8477 0.69411 69.5515 0.571662C69.2553 0.449215 68.9379 0.386309 68.6174 0.386535C68.2968 0.386762 67.9795 0.450116 67.6835 0.572982C67.3874 0.695848 67.1185 0.87582 66.892 1.10262C66.6655 1.32942 66.486 1.59861 66.3635 1.89481C66.2411 2.19102 66.1782 2.50845 66.1784 2.82896C66.1786 3.14948 66.242 3.46682 66.3648 3.76285C66.4877 4.05888 66.6677 4.32782 66.8945 4.5543ZM22.1237 98.1168L9.22445 85.2176L85.6969 85.2176C86.3439 85.2176 86.9644 84.9606 87.4218 84.5031C87.8793 84.0456 88.1363 83.4252 88.1363 82.7782C88.1363 82.1313 87.8793 81.5108 87.4218 81.0534C86.9644 80.5959 86.3439 80.3389 85.6969 80.3389L9.20006 80.3389L22.1286 67.4104C22.3551 67.1836 22.5347 66.9144 22.6571 66.6182C22.7796 66.322 22.8425 66.0045 22.8422 65.684C22.8418 65.0367 22.5842 64.4161 22.1262 63.9587C21.6681 63.5013 21.0471 63.2446 20.3998 63.245C19.7525 63.2455 19.1319 63.5031 18.6745 63.9611L1.64784 80.9878L1.59906 81.0365C1.37164 81.264 1.19127 81.534 1.06821 81.8312C0.945164 82.1283 0.881848 82.4468 0.881893 82.7685L0.881893 82.7782C0.882145 83.1346 0.960461 83.4865 1.11133 83.8093C1.2622 84.1322 1.48198 84.418 1.75518 84.6468L18.6745 101.566C18.8995 101.799 19.1687 101.985 19.4663 102.113C19.7639 102.241 20.084 102.308 20.4079 102.311C20.7318 102.314 21.053 102.252 21.3528 102.129C21.6526 102.006 21.9249 101.825 22.1539 101.596C22.383 101.367 22.5641 101.095 22.6868 100.795C22.8094 100.495 22.8711 100.174 22.8683 99.8502C22.8655 99.5264 22.7982 99.2063 22.6704 98.9086C22.5425 98.611 22.3567 98.3419 22.1237 98.1168Z" fill="white"/>
</svg>
