<svg width="149" height="104" viewBox="0 0 149 104" fill="none" xmlns="http://www.w3.org/2000/svg">
<path d="M35.2871 42.7458L58.2582 30.4M35.2871 60.9644L60.4762 74.4302M92.7639 72.6898L114.023 61.9149M92.7639 30.4L114.023 42.7458" stroke="white" stroke-width="3"/>
<path d="M93.0014 74.0578L92.952 91.9986L75.8237 102L75.8731 84.0716L93.0014 74.0578Z" stroke="white" stroke-width="3" stroke-linejoin="round"/>
<path d="M75.8746 84.0716L75.8252 102L58.5859 91.9986L58.6352 74.0578L75.8746 84.0716Z" stroke="white" stroke-width="3" stroke-linejoin="round"/>
<path d="M93.003 74.0573L75.8747 84.0711L58.6354 74.0573L75.7637 64.0558L93.003 74.0573Z" stroke="white" stroke-width="3" stroke-linejoin="round"/>
<path d="M93.0014 12.2086L92.952 30.1494L75.8237 40.1508L75.8731 22.2223L93.0014 12.2086Z" stroke="white" stroke-width="3" stroke-linejoin="round"/>
<path d="M75.8746 22.2223L75.8252 40.1508L58.5859 30.1494L58.6352 12.2086L75.8746 22.2223Z" stroke="white" stroke-width="3" stroke-linejoin="round"/>
<path d="M93.003 12.2082L75.8747 22.222L58.6354 12.2082L75.7637 2.20676L93.003 12.2082Z" stroke="white" stroke-width="3" stroke-linejoin="round"/>
<path d="M36.2974 43.043L36.2481 60.9838L19.1198 70.9852L19.1691 53.0568L36.2974 43.043Z" stroke="white" stroke-width="3" stroke-linejoin="round"/>
<path d="M19.1706 53.0568L19.1213 70.9852L1.8819 60.9838L1.93126 43.043L19.1706 53.0568Z" stroke="white" stroke-width="3" stroke-linejoin="round"/>
<path d="M36.2988 43.0426L19.1705 53.0564L1.93114 43.0426L19.0594 33.0412L36.2988 43.0426Z" stroke="white" stroke-width="3" stroke-linejoin="round"/>
<path d="M147.327 43.043L147.278 60.9838L130.15 70.9852L130.199 53.0568L147.327 43.043Z" stroke="white" stroke-width="3" stroke-linejoin="round"/>
<path d="M130.201 53.0568L130.151 70.9852L112.912 60.9838L112.961 43.043L130.201 53.0568Z" stroke="white" stroke-width="3" stroke-linejoin="round"/>
<path d="M147.328 43.0426L130.2 53.0564L112.961 43.0426L130.089 33.0412L147.328 43.0426Z" stroke="white" stroke-width="3" stroke-linejoin="round"/>
</svg>
