<svg width="55" height="29" viewBox="0 0 55 29" fill="none" xmlns="http://www.w3.org/2000/svg">
<path opacity="0.5" d="M52.8712 5.60653L41.7444 11.9499C41.211 11.2721 40.561 10.5067 39.8012 9.71087L41.4277 6.201C41.7055 5.60097 41.5207 4.83983 41.0193 4.50787L36.3372 1.42024C34.2121 0.020178 31.5647 0.828546 30.2147 3.16476C27.784 2.22722 25.0297 1.6258 21.9379 1.6258C7.48871 1.6258 0.266174 14.65 0.266174 14.65C0.266174 14.65 7.4901 27.6755 21.9379 27.6755C25.0297 27.6755 27.784 27.0727 30.2147 26.1338C31.5647 28.4728 34.2121 29.2812 36.3372 27.8783L41.0193 24.7921C41.5207 24.4601 41.7055 23.699 41.4277 23.1003L39.8012 19.5891C40.561 18.7932 41.2124 18.0279 41.7444 17.3501L52.8712 23.692C55.1574 17.6654 55.1574 11.636 52.8712 5.60653Z" fill="black"/>
</svg>
