<svg width="72" height="33" viewBox="0 0 72 33" fill="none" xmlns="http://www.w3.org/2000/svg">
<path fill-rule="evenodd" clip-rule="evenodd" d="M23.1273 14.5049L33.2929 8.66561C33.9414 8.29363 34.1671 7.45834 33.7941 6.80978L32.4062 4.39503C30.7318 1.47806 26.9746 0.462329 24.0576 2.13783L18.0164 5.60765C17.3689 5.97961 17.1432 6.81382 17.5152 7.46348L21.2726 14.0036C21.6445 14.6511 22.4798 14.8768 23.1273 14.5049Z" fill="#1E0135"/>
<path fill-rule="evenodd" clip-rule="evenodd" d="M23.196 18.6822L33.548 24.1843C34.2084 24.5358 34.4615 25.3621 34.1099 26.0226L32.8021 28.4827C31.2245 31.4532 27.5027 32.5918 24.5323 31.0131L18.3803 27.7426C17.7209 27.3921 17.4679 26.5658 17.8184 25.9053L21.3588 19.2452C21.7092 18.5848 22.5367 18.3317 23.196 18.6822Z" fill="#1E0135"/>
<path fill-rule="evenodd" clip-rule="evenodd" d="M14.8288 16.7305C14.8288 16.7305 23.9999 2.36105 42.8104 2.05187C61.6199 1.74271 71.2582 15.8031 71.2582 15.8031C71.2582 15.8031 62.0872 30.1726 43.2777 30.4817C24.4672 30.7909 14.8288 16.7305 14.8288 16.7305Z" fill="#00B8D4"/>
<path fill-rule="evenodd" clip-rule="evenodd" d="M58.1799 10.9576C58.1951 11.8785 58.9546 12.6145 59.8755 12.5994C60.7974 12.5842 61.5323 11.8236 61.5172 10.9028C61.5021 9.98194 60.7425 9.24698 59.8206 9.26213C58.8998 9.27727 58.1648 10.0368 58.1799 10.9576Z" fill="#1E0135"/>
<path fill-rule="evenodd" clip-rule="evenodd" d="M50.6265 16.0316C52.1317 16.0069 53.3323 14.7662 53.3076 13.2609C53.2828 11.7546 52.0421 10.5551 50.5369 10.5798M50.7317 22.4359C52.237 22.4101 53.4375 21.1694 53.4128 19.6652C53.3881 18.1589 52.1474 16.9583 50.6421 16.9831" fill="#FFFF8D"/>
<path fill-rule="evenodd" clip-rule="evenodd" d="M32.7312 16.3255C34.2365 16.3008 35.437 15.0601 35.4123 13.5549C35.3875 12.0485 34.1469 10.849 32.6416 10.8738M32.8365 22.7299C34.3417 22.704 35.5423 21.4634 35.5175 19.9592C35.4928 18.4528 34.2521 17.2523 32.7468 17.277" fill="#EA80FC"/>
<path fill-rule="evenodd" clip-rule="evenodd" d="M26.8131 19.2594C28.3183 19.2346 29.5189 17.994 29.4941 16.4887C29.4694 14.9834 28.2287 13.7829 26.7234 13.8076" fill="#FFFF8D"/>
<path fill-rule="evenodd" clip-rule="evenodd" d="M44.7098 19.0884C46.2151 19.0637 47.4157 17.823 47.3909 16.3188C47.3662 14.8125 46.1255 13.6119 44.6202 13.6366M44.6006 12.4387C46.1058 12.4129 47.3064 11.1722 47.2816 9.668C47.2569 8.16165 46.0162 6.9611 44.5109 6.98584M44.8151 25.4928C46.3204 25.4681 47.5209 24.2274 47.4962 22.7222C47.4715 21.2169 46.2308 20.0163 44.7255 20.0411" fill="#EA80FC"/>
<path fill-rule="evenodd" clip-rule="evenodd" d="M38.7451 19.1866C40.2504 19.1618 41.4509 17.9211 41.4262 16.417C41.4015 14.9106 40.1608 13.7101 38.6555 13.7348M38.6358 12.5368C40.1411 12.511 41.3416 11.2703 41.3169 9.76614C41.2921 8.25979 40.0515 7.05924 38.5462 7.08398M38.8504 25.591C40.3557 25.5662 41.5562 24.3256 41.5315 22.8203C41.5067 21.315 40.2661 20.1145 38.7608 20.1392" fill="#FFFF8D"/>
<path fill-rule="evenodd" clip-rule="evenodd" d="M2.9293 26.7974L23.4204 16.5896L2.60487 7.0585C-0.265171 13.6882 -0.157044 20.2667 2.9293 26.7974Z" fill="#00B8D4"/>
</svg>
