<svg width="125" height="19" viewBox="0 0 125 19" fill="none" xmlns="http://www.w3.org/2000/svg">
<path opacity="0.4" d="M122.164 19L109.126 12.6498C108.224 15.8808 105.314 18.2491 101.854 18.2491L20.4122 18.2491C16.3396 18.2491 12.937 15.3558 12.0567 11.4773L1.56501 11.4917C0.851383 11.4948 0.272705 10.9067 0.272705 10.1793C0.272705 9.45192 0.851383 8.85967 1.56501 8.85667L11.861 8.84285C11.8864 8.49567 11.927 8.1533 11.9907 7.81933L1.56501 7.83375C0.851383 7.83675 0.272705 7.24931 0.272705 6.52191C0.272705 5.79451 0.851383 5.20226 1.56501 5.19926L12.9518 5.18304C14.4285 2.53835 17.2129 0.750792 20.4122 0.750792L101.854 0.750792C105.314 0.750792 108.224 3.12039 109.126 6.35072L122.164 -3.05176e-05C124.976 6.3333 124.976 12.6666 122.164 19Z" fill="black"/>
</svg>
