<svg width="88" height="48" viewBox="0 0 88 48" fill="none" xmlns="http://www.w3.org/2000/svg">
<path opacity="0.5" d="M84.7398 12.3763L73.0573 17.934C72.8029 16.9672 72.4833 16.0268 72.1138 15.1117C71.7101 14.1118 71.2411 13.1449 70.7113 12.2155C70.0134 10.9932 69.217 9.83364 68.3222 8.75667C67.0911 7.27226 65.6864 5.93761 64.1378 4.78356C60.1128 1.7817 55.1244 -3.05176e-05 49.7388 -3.05176e-05H15.2876C8.83798 -3.05176e-05 3.56085 5.25267 3.56085 11.6737V21.1925L1.78558 21.1859C1.01021 21.1826 0.381958 21.8058 0.381958 22.5778C0.381958 23.3497 1.01021 23.9774 1.78558 23.9807L3.56085 23.9873V23.9994C3.56085 24.3595 3.57301 24.7163 3.5885 25.072L1.78558 25.0654C1.01021 25.0632 0.381958 25.6865 0.381958 26.4584C0.381958 27.2292 1.01021 27.8591 1.78558 27.8613L3.88161 27.869C3.91148 28.0518 3.94577 28.2335 3.98005 28.4152L3.99222 28.4802C4.12938 29.1927 4.2975 29.8941 4.4977 30.5835C4.50655 30.6143 4.5154 30.6473 4.52536 30.6793C4.72445 31.3609 4.95452 32.0304 5.21223 32.6856C5.22551 32.7209 5.23989 32.755 5.25316 32.7881C5.5142 33.4422 5.80067 34.082 6.11701 34.7063C6.1325 34.7372 6.14798 34.7669 6.16236 34.7966C6.48423 35.4254 6.82933 36.0388 7.20319 36.6345C7.21425 36.6522 7.22531 36.6687 7.23637 36.6852C8.39444 38.5242 9.79364 40.1991 11.3919 41.6615C11.3953 41.6637 11.3986 41.667 11.4008 41.6703C11.9151 42.1383 12.4505 42.5843 13.0035 43.0072C13.0411 43.0369 13.0765 43.0655 13.1152 43.0952C13.6472 43.4983 14.1992 43.8782 14.7644 44.2383C14.8263 44.2779 14.8894 44.3187 14.9513 44.3583C15.5066 44.703 16.0762 45.0245 16.6602 45.3263C16.7388 45.367 16.8184 45.4078 16.898 45.4474C17.4776 45.7381 18.0694 46.0057 18.6733 46.2491C18.7629 46.2854 18.8514 46.3195 18.941 46.3537C19.5471 46.5904 20.1654 46.8063 20.7937 46.9935C20.8833 47.0199 20.9717 47.043 21.0613 47.0695C21.7007 47.2523 22.3488 47.4119 23.008 47.5419C23.0855 47.5573 23.164 47.5694 23.2414 47.5837C23.9195 47.7104 24.6063 47.8128 25.3032 47.881C25.3541 47.8866 25.406 47.8887 25.4569 47.8932C26.1858 47.9592 26.9225 48 27.668 48H49.7388C53.6798 48 57.4062 47.0386 60.7001 45.3494C61.2134 45.0862 61.721 44.8098 62.2144 44.5125C62.8769 44.1094 63.5184 43.6767 64.1378 43.2153C64.7572 42.7528 65.3534 42.2627 65.9253 41.7452C66.496 41.2276 67.0435 40.6836 67.5634 40.1143C68.863 38.6916 69.9935 37.1147 70.9237 35.4144C71.2964 34.735 71.636 34.0346 71.9424 33.3188C72.3892 32.2683 72.762 31.1825 73.0573 30.0648L84.7398 35.6225C88.2627 27.8734 88.2627 20.1243 84.7398 12.3763Z" fill="black"/>
</svg>
