<svg width="146" height="29" viewBox="0 0 146 29" fill="none" xmlns="http://www.w3.org/2000/svg">
<g opacity="0.3">
<path d="M143.363 22.4697L128.028 15.1945C126.968 18.8961 123.544 21.6095 119.476 21.6095L23.6871 21.6095C18.8972 21.6095 14.8952 18.2946 13.8598 13.8512L1.51993 13.8677C0.680595 13.8712 -1.26362e-05 13.1975 -1.26362e-05 12.3641C-1.26362e-05 11.5308 0.680595 10.8523 1.51993 10.8488L13.6297 10.833C13.6595 10.4352 13.7073 10.043 13.7821 9.66038L1.51993 9.6769C0.680595 9.68034 -1.26362e-05 9.00732 -1.26362e-05 8.17397C-1.26362e-05 7.34061 0.680595 6.66209 1.51993 6.65865L14.9126 6.64007C16.6495 3.61013 19.9243 1.56219 23.6871 1.56219L119.476 1.56219C123.544 1.56219 126.968 4.27695 128.028 7.97784L143.363 0.701997C146.67 7.95789 146.67 15.2138 143.363 22.4697Z" fill="black"/>
</g>
</svg>
