<svg width="140" height="33" viewBox="0 0 140 33" fill="none" xmlns="http://www.w3.org/2000/svg">
<path d="M135.168 7.96627C130.704 7.96627 126.391 9.5989 123.019 12.5633L118.457 16.5742L113.895 12.5633C110.614 9.67884 106.441 8.06042 102.107 7.97515C104.785 4.63112 106.438 2.35834 106.438 2.35834C106.438 2.35834 104.83 2.18246 102.19 1.9829C101.619 2.75569 99.9541 4.98228 97.5591 7.96627H95.4352C98.484 4.19705 100.399 1.56423 100.399 1.56423C100.399 1.56423 98.7908 1.38835 96.151 1.18879C95.5305 2.02909 93.6187 4.58434 90.8801 7.96627H88.6289C91.9716 3.86603 94.1001 0.939481 94.1001 0.939481C94.1001 0.939481 46.0577 -2.45429 32.3329 3.65876C29.8274 4.77383 27.7631 6.27027 26.0547 7.96627H21.4832C17.0199 7.96627 12.7061 9.5989 9.33475 12.5633L0.327393 20.4831L9.33475 28.4035C12.7061 31.368 17.0199 33 21.4832 33H101.746C106.209 33 110.523 31.368 113.895 28.4035L118.457 24.3915L123.019 28.4035C126.391 31.368 130.704 33 135.168 33H139.327V7.96627H135.168Z" fill="black"/>
</svg>
