<svg width="127" height="65" viewBox="0 0 127 65" fill="none" xmlns="http://www.w3.org/2000/svg">
<path d="M111.891 43.1472C111.141 43.1472 110.439 43.3043 109.786 43.6192C109.133 43.91 108.563 44.3103 108.079 44.8188C107.595 45.3281 107.208 45.9213 106.918 46.5993C106.651 47.254 106.519 47.9444 106.519 48.6713C106.519 49.2529 106.627 49.8104 106.846 50.343C107.063 50.8522 107.353 51.3001 107.717 51.688C108.104 52.076 108.552 52.3784 109.06 52.5962C109.568 52.8387 110.113 52.96 110.693 52.96C111.395 52.96 112.06 52.8029 112.69 52.4873C113.32 52.1965 113.865 51.7969 114.324 51.2876C114.808 50.755 115.183 50.1494 115.449 49.4714C115.74 48.7926 115.885 48.0781 115.885 47.327C115.885 46.1398 115.51 45.1462 114.759 44.3469C114.033 43.5469 113.077 43.1472 111.891 43.1472Z" fill="url(#paint0_linear_158_1847)"/>
<path d="M73.7326 40.0957C74.0224 39.417 74.3741 38.7141 74.785 37.9879C75.1973 37.2361 75.6571 36.4858 76.165 35.7347C76.6978 34.9829 77.2904 34.3166 77.9443 33.735C78.6215 33.1294 79.3601 32.645 80.1585 32.2819C80.9569 31.9188 81.8166 31.7368 82.7362 31.7368H83.0631C83.1594 31.7368 83.2674 31.7485 83.3886 31.7726C83.6798 31.8216 83.9338 31.9546 84.1512 32.173C84.3935 32.3907 84.5147 32.6815 84.5147 33.0454C84.5147 33.4808 84.3089 34.0024 83.898 34.6074C83.4864 35.1897 82.7362 35.8187 81.6473 36.4975C81.405 36.6429 80.9817 36.922 80.3767 37.3333C79.7958 37.7453 79.1054 38.2056 78.307 38.7141C77.5086 39.2234 76.6489 39.7567 75.7286 40.3134C74.8339 40.8709 73.9625 41.3677 73.1159 41.8039C73.2612 41.3436 73.467 40.7737 73.7326 40.0957ZM49.2282 37.9879C49.639 37.2361 50.0988 36.4858 50.6075 35.7347C51.1402 34.9829 51.7328 34.3166 52.3867 33.735C53.064 33.1294 53.8018 32.645 54.6009 32.2819C55.4001 31.9188 56.259 31.7368 57.1786 31.7368H57.5055C57.6019 31.7368 57.7106 31.7485 57.8318 31.7726C58.1222 31.8216 58.3762 31.9546 58.5944 32.173C58.8367 32.3907 58.9578 32.6815 58.9578 33.0454C58.9578 33.4808 58.752 34.0024 58.3404 34.6074C57.9288 35.1897 57.1786 35.8187 56.089 36.4975C55.8474 36.6429 55.4242 36.922 54.8184 37.3333C54.2382 37.7453 53.5486 38.2056 52.7494 38.7141C51.9503 39.2234 51.0921 39.7567 50.1718 40.3134C49.3435 40.8292 48.5378 41.2873 47.7503 41.6994C47.716 41.6519 47.6803 41.6052 47.6401 41.562C47.7788 41.1449 47.951 40.6678 48.1751 40.0957C48.4655 39.417 48.8166 38.7141 49.2282 37.9879ZM125.864 14.2921C125.574 13.468 125.186 12.7893 124.703 12.2566C124.243 11.7233 123.698 11.3237 123.069 11.057C122.464 10.791 121.823 10.6573 121.145 10.6573C119.693 10.6573 118.168 10.9116 116.571 11.4201C114.998 11.9293 113.376 12.8382 111.706 14.146C110.036 15.4545 108.33 17.2357 106.587 19.4889C104.869 21.7421 103.151 24.601 101.432 28.0663H97.1482C95.9871 28.0663 95.1033 28.3446 94.4983 28.9021C93.8933 29.4347 93.5905 29.9921 93.5905 30.5737C93.5905 31.1304 93.8327 31.6156 94.3166 32.0276C94.8012 32.4397 95.7083 32.645 97.0395 32.645H98.964L94.9508 41.1588C94.7063 41.2866 94.3524 41.4883 93.8809 41.7673C93.2518 42.1553 92.4527 42.6156 91.485 43.1482C90.5414 43.6815 89.4766 44.2507 88.2907 44.8564C87.1047 45.4379 85.8816 45.9837 84.6241 46.4922C83.3886 47.0007 82.1312 47.4252 80.8482 47.7642C79.59 48.0791 78.4041 48.2369 77.2904 48.2369C76.2497 48.2369 75.4148 48.0425 74.785 47.6553C74.1566 47.2433 73.7815 46.6858 73.6604 45.9837C76.9518 44.7716 79.6863 43.5727 81.8648 42.3854C84.0673 41.1741 85.8217 39.9985 87.1288 38.8603C88.4359 37.6971 89.3554 36.5581 89.8875 35.4439C90.4202 34.329 90.6866 33.2631 90.6866 32.2453C90.6866 30.5248 90.1903 29.1804 89.1971 28.2109C88.206 27.2421 86.7055 26.7577 84.6957 26.7577C82.7843 26.7577 80.9817 27.0361 79.2864 27.5936C77.6173 28.151 76.0804 28.8897 74.677 29.8102C73.2729 30.7315 72.0023 31.7975 70.8652 33.0088C69.7516 34.1961 68.8079 35.4198 68.0329 36.6794C67.2586 37.939 66.666 39.1993 66.2544 40.4596C65.9172 41.47 65.726 42.4132 65.6647 43.2943C64.786 43.7853 63.8125 44.3055 62.7331 44.8564C61.5472 45.4379 60.3248 45.9837 59.0659 46.4922C57.8318 47.0007 56.5729 47.4252 55.2906 47.7642C54.0324 48.0791 52.8465 48.2369 51.7328 48.2369C50.6921 48.2369 49.8573 48.0425 49.2282 47.6553C48.5991 47.2433 48.224 46.6858 48.1028 45.9837C51.3942 44.7716 54.1295 43.5727 56.3072 42.3854C58.5098 41.1741 60.2642 39.9985 61.5713 38.8603C62.8783 37.6971 63.7979 36.5581 64.3299 35.4439C64.8626 34.329 65.129 33.2631 65.129 32.2453C65.129 30.5248 64.6328 29.1804 63.6402 28.2109C62.6484 27.2421 61.148 26.7577 59.1388 26.7577C57.2268 26.7577 55.4242 27.0361 53.7296 27.5936C52.0598 28.151 50.5228 28.8897 49.1187 29.8102C47.716 30.7315 46.4447 31.7975 45.3077 33.0088C44.194 34.1961 43.2497 35.4198 42.4761 36.6794C41.701 37.939 41.1084 39.1993 40.6968 40.4596C40.2852 41.6943 40.0801 42.8333 40.0801 43.8751C40.0801 44.5195 40.1298 45.1493 40.2224 45.7667C39.5116 46.2036 38.711 46.6164 37.7995 47.0007C36.4195 47.5823 34.8467 47.873 33.0799 47.873H32.572C32.4019 47.873 32.2202 47.8606 32.0275 47.8365C31.0584 47.7642 30.1395 47.2798 29.2674 46.3826C28.3968 45.4861 27.5977 44.4085 26.8715 43.1482C26.1702 41.8645 25.5652 40.5195 25.0565 39.1145C24.5726 37.6847 24.2216 36.4003 24.0034 35.262C25.5528 34.9953 27.1503 34.5592 28.796 33.9535C30.4658 33.3478 32.0881 32.6084 33.6608 31.7368C35.2335 30.8645 36.7107 29.8709 38.0892 28.756C39.4934 27.6177 40.7158 26.3822 41.7565 25.0496C42.7964 23.6928 43.6197 22.2514 44.2247 20.7244C44.8545 19.174 45.1683 17.5506 45.1683 15.8542C45.1683 13.335 44.6479 11.13 43.608 9.23996C42.5914 7.34988 41.2113 5.78784 39.4693 4.55165C37.7265 3.29135 35.7174 2.34668 33.4426 1.71689C31.1919 1.08711 28.8325 0.772217 26.3636 0.772217C23.8465 0.772217 21.463 1.03889 19.2123 1.5715C16.9608 2.08 14.8794 2.77116 12.9674 3.64277C11.0794 4.49101 9.37312 5.48464 7.8493 6.62365C6.32402 7.73783 5.02935 8.90096 3.96385 10.1123C2.92388 11.3237 2.11308 12.535 1.53216 13.7463C0.976049 14.9577 0.697266 16.085 0.697266 17.1269C0.697266 18.241 1.00013 19.1134 1.60441 19.7432C2.20941 20.3489 3.11728 20.6521 4.32729 20.6521C5.22275 20.6521 5.97298 20.446 6.57799 20.034C7.18372 19.6219 7.72815 19.0893 8.21201 18.4354C8.71994 17.7808 9.20453 17.0297 9.6643 16.1815C10.1241 15.3332 10.632 14.4616 11.1889 13.5652C11.7698 12.668 12.447 11.7964 13.2221 10.9481C14.0205 10.0999 14.9889 9.34955 16.1259 8.69493C17.2878 8.0403 18.6547 7.50769 20.2289 7.09563C21.8257 6.68356 23.7261 6.47753 25.9279 6.47753C27.8888 6.47753 29.5703 6.70767 30.9737 7.16869C32.4019 7.62897 33.5638 8.24633 34.4592 9.02224C35.3788 9.79741 36.0443 10.7056 36.456 11.7474C36.8916 12.7893 37.1091 13.8917 37.1091 15.0549C37.1091 16.6783 36.6982 18.3499 35.875 20.0705C35.0759 21.7903 33.9746 23.3531 32.572 24.7588C31.1678 26.1638 29.5221 27.3269 27.6341 28.2475C25.7702 29.1439 23.7866 29.5925 21.6804 29.5925H21.1718C21.0265 29.5925 20.882 29.5801 20.7368 29.556C21.3659 28.2233 21.9709 26.9272 22.5518 25.6669C23.1327 24.3833 23.6407 23.2077 24.0764 22.1418C24.5121 21.0758 24.8631 20.1311 25.1287 19.307C25.3959 18.4829 25.5287 17.8414 25.5287 17.3811C25.5287 16.9208 25.4564 16.5453 25.3105 16.2545C25.1652 15.9396 24.9967 15.7095 24.8025 15.5634C24.6084 15.3939 24.3916 15.285 24.1494 15.2368C23.9071 15.1637 23.7013 15.1279 23.5319 15.1279C22.9029 15.1279 22.1884 15.491 21.39 16.218C20.6157 16.9208 19.7808 17.8655 18.8853 19.0528C18.0132 20.24 17.1061 21.6091 16.1624 23.1595C15.2422 24.6857 14.3233 26.2733 13.4031 27.9201L2.694 47.5457C2.42762 48.055 2.22182 48.6 2.07659 49.1816C1.93136 49.7631 1.85911 50.3323 1.85911 50.8897C1.85911 51.2777 1.90727 51.689 2.00434 52.1252C2.12548 52.5613 2.31888 52.961 2.58526 53.3248C2.8509 53.6879 3.22675 53.9911 3.71061 54.233C4.19446 54.4755 4.82355 54.5968 5.5986 54.5968C6.54223 54.5968 7.4136 54.2571 8.21201 53.5791C9.0104 52.9003 9.76137 52.0163 10.4627 50.9262C11.1648 49.8113 11.8063 48.5635 12.3865 47.1826C12.9674 45.7769 13.5242 44.3595 14.0562 42.9305C14.589 41.5007 15.086 40.1198 15.5458 38.7872C16.0048 37.4305 16.4529 36.2556 16.8879 35.262C17.6629 37.7819 18.5467 40.1805 19.5385 42.4578C20.531 44.711 21.6315 46.6858 22.8423 48.3815C24.0523 50.078 25.3959 51.4223 26.8715 52.416C28.3479 53.4096 29.9578 53.9064 31.6999 53.9064C33.8294 53.9064 36.0808 53.3731 38.4527 52.3071C39.6007 51.7847 40.7603 51.1133 41.9309 50.3016C42.1009 50.5551 42.2827 50.7999 42.4761 51.0351C43.2745 51.9798 44.2305 52.7308 45.3442 53.2883C46.4812 53.8458 47.7759 54.1241 49.2282 54.1241C50.922 54.1241 52.6407 53.894 54.3827 53.4337C56.1255 52.9975 57.796 52.4401 59.3935 51.7621C61.0144 51.0833 62.539 50.3447 63.9672 49.5447C64.8422 49.0486 65.6428 48.5722 66.3865 48.1105C66.7893 49.202 67.333 50.181 68.0329 51.0351C68.832 51.9798 69.7881 52.7308 70.901 53.2883C72.0388 53.8458 73.3334 54.1241 74.785 54.1241C76.4796 54.1241 78.1983 53.894 79.941 53.4337C81.6831 52.9975 83.3536 52.4401 84.9504 51.7621C86.572 51.0833 88.0965 50.3447 89.5247 49.5447C90.2487 49.1341 90.9274 48.7359 91.5609 48.3494L86.1487 59.8302C85.8816 60.3876 85.6765 60.872 85.5313 61.2833C85.3861 61.7202 85.3138 62.0958 85.3138 62.4107C85.3138 63.0405 85.5437 63.5007 86.0027 63.7915C86.4632 64.0823 86.9836 64.2277 87.5645 64.2277C87.9761 64.2277 88.4235 64.1305 88.9073 63.9369C89.3919 63.7674 89.8634 63.5132 90.3231 63.1734C90.7836 62.8344 91.2069 62.4231 91.5937 61.938C91.9812 61.4777 92.3082 60.9692 92.5738 60.4117C92.9614 59.6366 93.47 58.5823 94.0991 57.2497C94.7282 55.9411 95.4303 54.4755 96.2046 52.8521C96.9789 51.2046 97.7897 49.4723 98.637 47.6553C99.5084 45.8134 100.367 43.9964 101.215 42.2035C102.086 40.4106 102.909 38.7024 103.683 37.079C104.482 35.4315 105.196 33.99 105.825 32.7546H112.142C113.207 32.7297 114.296 32.7056 115.409 32.6815C116.546 32.6574 117.745 32.6209 119.003 32.5726C119.657 32.5237 120.189 32.4273 120.6 32.2819C121.012 32.1124 121.326 31.9188 121.544 31.7003C121.786 31.4577 121.956 31.2035 122.053 30.9368C122.15 30.6709 122.198 30.4042 122.198 30.1375C122.198 29.6042 122.053 29.2045 121.762 28.9386C121.496 28.6478 121.109 28.4411 120.6 28.3205C120.116 28.1992 119.548 28.1269 118.894 28.1021C118.241 28.0779 117.538 28.0663 116.789 28.0663H108.33C108.934 26.6124 109.71 25.195 110.653 23.8134C111.598 22.4084 112.578 21.1606 113.594 20.0705C114.634 18.9804 115.651 18.1081 116.643 17.4535C117.659 16.7996 118.543 16.4722 119.293 16.4722C119.923 16.4722 120.419 16.69 120.782 17.1269C121.169 17.563 121.363 18.2893 121.363 19.307C121.363 19.5737 121.338 19.8403 121.29 20.107C121.266 20.373 121.254 20.6637 121.254 20.9786C121.254 21.4638 121.459 21.8269 121.871 22.0694C122.282 22.2872 122.73 22.396 123.214 22.396C123.408 22.396 123.638 22.3719 123.904 22.3237C124.17 22.2514 124.436 22.1418 124.703 21.9964C124.969 21.851 125.211 21.6698 125.429 21.4513C125.647 21.2088 125.792 20.918 125.864 20.579C126.155 19.3194 126.3 18.1687 126.3 17.1269C126.3 16.0361 126.155 15.0914 125.864 14.2921Z" fill="#681CFF"/>
<defs>
<linearGradient id="paint0_linear_158_1847" x1="111.202" y1="43.1472" x2="111.202" y2="52.96" gradientUnits="userSpaceOnUse">
<stop stop-color="#681CFF"/>
<stop offset="1" stop-color="#FD3F83"/>
</linearGradient>
</defs>
</svg>
