<svg width="89" height="101" viewBox="0 0 89 101" fill="none" xmlns="http://www.w3.org/2000/svg">
<path d="M44.4866 101C35.2355 101 25.9843 101 16.7331 101C13.8198 101 11.4983 99.0843 10.9615 96.2331C10.8484 95.6341 10.7393 95.0342 10.6429 94.432C10.6007 94.1687 10.5036 94.0326 10.2105 93.9706C8.7196 93.6516 7.18411 93.4447 5.76091 92.9292C2.91452 91.899 1.33443 89.7606 0.944189 86.7606C0.891626 86.3549 0.889237 85.9412 0.889237 85.5307C0.885255 81.2483 0.874105 76.9659 0.89083 72.6835C0.903572 69.4233 1.60521 66.3215 3.14469 63.4281C5.26634 59.4401 8.37873 56.4958 12.4819 54.6C15.1148 53.3836 17.8935 52.8355 20.7853 52.8347C36.5934 52.8331 52.4014 52.8347 68.2095 52.8331C76.9892 52.8331 84.5026 58.2834 87.2104 66.6294C87.8372 68.5618 88.1175 70.5546 88.1255 72.5801C88.143 76.9683 88.135 81.3573 88.1294 85.7455C88.1247 89.5442 85.6534 92.5044 81.9182 93.2013C80.9012 93.3914 79.8841 93.584 78.8647 93.7622C78.5987 93.8091 78.4562 93.8998 78.4148 94.2005C78.32 94.8958 78.1742 95.584 78.05 96.2753C77.5578 99.008 75.1821 100.997 72.3994 100.998C63.0949 100.999 53.7912 100.998 44.4866 100.998V101ZM44.5265 69.2778C33.2444 69.2778 21.9624 69.2778 10.6804 69.2778C9.50168 69.2778 8.99755 69.868 9.20302 71.0136C10.6748 79.2181 12.1474 87.4225 13.6207 95.6261C13.917 97.2769 15.1148 98.2721 16.7968 98.2721C35.2729 98.2721 53.749 98.2721 72.225 98.2721C73.9046 98.2721 75.1009 97.2737 75.3971 95.6221C76.8705 87.4177 78.3431 79.2133 79.8148 71.0089C80.0179 69.8784 79.5146 69.2778 78.3717 69.2778C67.0897 69.2778 55.8077 69.2778 44.5257 69.2778H44.5265ZM10.0034 91.1838C10.0034 91.0255 10.0114 90.973 10.0026 90.9229C8.87888 84.6612 7.74638 78.4018 6.64095 72.1369C6.50636 71.3756 6.38451 70.5681 6.49521 69.8171C6.7859 67.8529 8.45439 66.5522 10.5028 66.5522C23.6827 66.5522 36.8633 66.5522 50.0432 66.5522C59.5469 66.5522 69.0505 66.5506 78.5541 66.553C81.1226 66.553 82.9941 68.7368 82.5497 71.238C81.5431 76.9006 80.5189 82.5609 79.5027 88.222C79.3418 89.1178 79.1833 90.0136 79.0136 90.9666C79.8634 90.8059 80.6535 90.6556 81.4435 90.5076C83.8622 90.0525 85.3953 88.2077 85.3961 85.7463C85.3961 81.3843 85.4073 77.0224 85.3866 72.6604C85.3818 71.7487 85.3221 70.8283 85.1811 69.9285C83.8869 61.6541 76.7502 55.5666 68.3345 55.5626C52.4468 55.5546 36.5583 55.5594 20.6706 55.561C18.3594 55.561 16.1095 55.9508 14.0134 56.9238C7.38242 60.0001 3.86226 65.2165 3.64961 72.5188C3.5198 76.9834 3.61696 81.4543 3.62731 85.9229C3.63209 87.9269 4.73354 89.6651 6.53583 90.3119C7.63647 90.7073 8.81358 90.8926 10.005 91.1846L10.0034 91.1838Z" fill="#FFFBF8"/>
<path d="M44.5113 46.7973C31.9224 46.8005 21.5857 36.499 21.5682 23.966C21.5507 11.0862 32.1191 0.746555 44.9247 0.967716C57.195 1.18013 67.4823 11.2223 67.4513 24.04C67.421 36.5046 57.0724 46.7941 44.5121 46.7973H44.5113ZM44.528 44.0599C55.7002 44.0447 64.7204 34.966 64.7132 23.7449C64.706 12.7545 55.5727 3.68529 44.5097 3.6837C33.332 3.68211 24.2903 12.7831 24.3047 24.0217C24.319 35.0106 33.4666 44.0742 44.5288 44.0591L44.528 44.0599Z" fill="#FFFBF8"/>
</svg>
