<svg width="317" height="282" viewBox="0 0 317 282" fill="none" xmlns="http://www.w3.org/2000/svg">
<path d="M158.358 221.249L96.89 193.563V119.868L158.358 147.553V221.249Z" fill="url(#paint0_linear_274_25)"/>
<path opacity="0.6" d="M158.358 221.249L96.89 193.563V119.868L158.358 147.553V221.249Z" fill="url(#paint1_linear_274_25)"/>
<path d="M158.357 221.249L219.826 193.563V119.868L158.357 147.553V221.249Z" fill="url(#paint2_linear_274_25)"/>
<path d="M96.89 119.867L158.358 147.553L219.827 119.867L158.358 94.7272L96.89 119.867Z" fill="url(#paint3_linear_274_25)"/>
<path style="mix-blend-mode:lighten" opacity="0.5" d="M219.826 120.009V0.962158H96.8899V120.009L158.465 147.54L219.826 120.009Z" fill="url(#paint4_linear_274_25)"/>
<path d="M197.334 80.3905C196.582 80.3905 195.878 80.5397 195.224 80.8387C194.569 81.1147 193.998 81.4949 193.513 81.9778C193.028 82.4613 192.64 83.0246 192.349 83.6683C192.082 84.2899 191.949 84.9455 191.949 85.6358C191.949 86.1878 192.058 86.7172 192.276 87.2229C192.494 87.7064 192.786 88.1317 193.15 88.5C193.537 88.8684 193.987 89.1557 194.496 89.3623C195.005 89.5927 195.551 89.7077 196.133 89.7077C196.837 89.7077 197.503 89.5587 198.135 89.259C198.766 88.9828 199.312 88.6035 199.773 88.12C200.257 87.6141 200.633 87.0391 200.9 86.3953C201.191 85.7509 201.337 85.0725 201.337 84.3593C201.337 83.2321 200.961 82.2886 200.209 81.5295C199.481 80.77 198.523 80.3905 197.334 80.3905Z" fill="url(#paint5_linear_274_25)"/>
<path d="M154.007 58.025C154.194 58.0565 154.383 58.0717 154.57 58.0717H155.226C157.946 58.0717 160.509 57.4956 162.915 56.3424C165.353 55.1587 167.478 53.6626 169.291 51.8552C171.104 50.0477 172.527 48.0385 173.558 45.8253C174.622 43.6132 175.153 41.463 175.153 39.3756C175.153 37.8795 174.871 36.4626 174.309 35.1228C173.778 33.783 172.918 32.6145 171.73 31.6176C170.573 30.6204 169.073 29.8252 167.229 29.234C165.416 28.6416 163.244 28.3455 160.711 28.3455C157.866 28.3455 155.413 28.6102 153.35 29.1396C151.318 29.6692 149.552 30.3548 148.052 31.1965C146.583 32.0374 145.332 33.0041 144.301 34.0943C143.301 35.1847 142.425 36.3065 141.675 37.4597C140.955 38.613 140.299 39.7347 139.705 40.8249C139.111 41.9153 138.486 42.882 137.83 43.7227C137.205 44.5636 136.501 45.2492 135.72 45.7797C134.938 46.3092 133.97 46.574 132.813 46.574C131.25 46.574 130.078 46.1844 129.296 45.4055C128.515 44.5951 128.124 43.4734 128.124 42.0401C128.124 40.7003 128.483 39.2508 129.203 37.693C129.953 36.135 131 34.5772 132.345 33.0191C133.72 31.4613 135.392 29.9653 137.362 28.5321C139.331 27.0675 141.534 25.7895 143.973 24.6992C146.442 23.5774 149.13 22.6889 152.037 22.0347C154.944 21.349 158.023 21.0062 161.274 21.0062C164.524 21.0062 167.51 21.4109 170.417 22.2213C173.355 23.0317 175.949 24.2468 178.2 25.8666C180.451 27.456 182.232 29.4652 183.545 31.8964C184.889 34.3266 185.561 37.1626 185.561 40.403C185.561 42.5847 185.155 44.6721 184.342 46.6662C183.561 48.6299 182.498 50.4829 181.154 52.2284C179.81 53.9426 178.232 55.532 176.418 56.9955C174.637 58.4287 172.73 59.7066 170.698 60.8285C168.667 61.9502 166.573 62.9006 164.416 63.6795C162.29 64.4585 160.227 65.0193 158.226 65.3621C158.508 66.8269 158.961 68.478 159.586 70.3169C160.242 72.1242 161.023 73.8536 161.93 75.5049C162.868 77.1257 163.899 78.5122 165.024 79.6644C166.149 80.8176 167.337 81.4405 168.587 81.5337C168.837 81.5651 169.072 81.5803 169.29 81.5803H169.946C172.229 81.5803 174.26 81.2061 176.042 80.4585C177.824 79.7111 179.308 78.8855 180.496 77.9818C181.902 76.9533 183.122 75.7534 184.153 74.3831C185.122 73.2927 186.107 72.7471 187.107 72.7471C187.731 72.7471 188.263 72.9651 188.701 73.4012C189.139 73.8375 189.357 74.4297 189.357 75.1773C189.357 75.9247 189.123 76.7351 188.654 77.7007C188.217 78.6359 187.451 79.6166 186.357 80.6451C183.138 83.6677 179.98 85.8798 176.885 87.2826C173.822 88.6539 170.915 89.3395 168.165 89.3395C165.914 89.3395 163.836 88.7004 161.929 87.4235C160.022 86.1456 158.288 84.4163 156.725 82.2355C155.162 80.0539 153.739 77.5152 152.459 74.6174C151.177 71.6881 150.036 68.6038 149.036 65.3632C148.473 66.6412 147.895 68.1525 147.301 69.897C146.707 71.6111 146.067 73.387 145.379 75.2249C144.691 77.0637 143.972 78.8865 143.222 80.6939C142.472 82.4698 141.644 84.0743 140.738 85.5076C139.831 86.9093 138.862 88.0473 137.831 88.9195C136.799 89.7919 135.674 90.228 134.455 90.228C133.455 90.228 132.642 90.0717 132.017 89.7604C131.392 89.4491 130.907 89.0595 130.563 88.5919C130.219 88.1243 129.969 87.6102 129.813 87.0493C129.688 86.4884 129.626 85.9589 129.626 85.46C129.626 84.7429 129.72 84.0105 129.907 83.2631C130.094 82.5155 130.36 81.8136 130.704 81.1594L144.535 55.9194C145.722 53.8006 146.91 51.7599 148.098 49.7962C149.317 47.8021 150.489 46.0415 151.614 44.515C152.771 42.9885 153.849 41.7734 154.85 40.8696C155.881 39.9346 156.803 39.467 157.616 39.467C157.835 39.467 158.1 39.5135 158.413 39.6068C158.725 39.6688 159.007 39.8098 159.256 40.0278C159.506 40.2144 159.725 40.5107 159.912 40.9163C160.1 41.2906 160.194 41.7734 160.194 42.3656C160.194 42.958 160.022 43.7836 159.678 44.8426C159.334 45.9025 158.882 47.1175 158.319 48.4878C157.756 49.8591 157.1 51.3703 156.349 53.0216C155.599 54.6414 154.818 56.3088 154.005 58.0229L154.007 58.025Z" fill="#681CFF"/>
<path d="M190.091 173.673L248.462 214.236" stroke="white" stroke-width="2.78696" stroke-dasharray="3.72 3.72"/>
<path d="M120.725 173.673L62.3548 214.236" stroke="white" stroke-width="2.78696" stroke-dasharray="3.72 3.72"/>
<path d="M250.898 251.395L62.355 251.395" stroke="white" stroke-width="2.78696" stroke-dasharray="3.72 3.72"/>
<path opacity="0.6" d="M249.475 266.536V184.813L281.961 176.313L287.944 172.857C289.319 172.068 291.716 172.161 293.304 173.08L298.887 176.304H316.213L311.085 255.184C311.122 255.723 310.825 256.243 310.165 256.624L277.744 281.084C276.369 281.874 273.972 281.781 272.383 280.861L250.785 268.385C249.874 267.855 249.428 267.177 249.484 266.536H249.475Z" fill="url(#paint6_linear_274_25)"/>
<path d="M290.443 172.328C291.446 172.355 292.487 172.606 293.313 173.08L298.897 176.304H316.222V258.24C316.259 258.779 315.962 259.299 315.303 259.68L277.753 281.093C277.093 281.474 276.192 281.651 275.263 281.623L274.873 199.166L290.434 172.328H290.443Z" fill="url(#paint7_linear_274_25)"/>
<path opacity="0.2" d="M277.41 281.251C276.23 281.762 274.512 281.735 273.128 281.205V198.181H277.41V281.251Z" fill="url(#paint8_linear_274_25)"/>
<path d="M277.753 199.166L315.303 177.753C316.678 176.964 316.501 175.579 314.922 174.66L293.314 162.193C291.725 161.273 289.328 161.18 287.953 161.97L250.404 183.383C249.029 184.172 249.205 185.557 250.785 186.476L272.393 198.953C273.981 199.872 276.378 199.965 277.753 199.176V199.166Z" fill="url(#paint9_linear_274_25)"/>
<g style="mix-blend-mode:screen">
<path d="M250.785 184.953L272.394 197.429C273.982 198.349 276.379 198.442 277.754 197.652L315.303 176.239C315.61 176.063 315.833 175.858 315.991 175.635C316.465 176.397 316.251 177.215 315.303 177.763L277.754 199.176C276.379 199.965 273.982 199.873 272.394 198.953L250.785 186.477C249.55 185.761 249.178 184.767 249.717 183.987C249.931 184.331 250.293 184.665 250.785 184.953Z" fill="#681CFF"/>
</g>
<path d="M276.694 190.49L301.693 175.998C302.334 175.626 302.259 174.976 301.516 174.549L291.409 168.714C290.666 168.287 289.542 168.241 288.901 168.612L263.901 183.105C263.26 183.476 263.344 184.126 264.078 184.554L274.185 190.388C274.929 190.815 276.053 190.862 276.694 190.49Z" fill="#681CFF"/>
<path d="M290.192 176.648L291.641 175.812C291.734 175.756 291.716 175.672 291.614 175.607L290.211 174.799C290.109 174.743 289.951 174.734 289.867 174.78L288.418 175.617C288.325 175.672 288.344 175.756 288.446 175.821L289.848 176.629C289.951 176.685 290.109 176.694 290.192 176.648Z" fill="#FF2C9C"/>
<path d="M285.342 179.434L286.791 178.598C286.884 178.543 286.865 178.459 286.763 178.394L285.36 177.586C285.258 177.53 285.1 177.521 285.017 177.567L283.567 178.403C283.475 178.459 283.493 178.543 283.595 178.608L284.998 179.416C285.1 179.472 285.258 179.481 285.342 179.434Z" fill="#D4ECFF"/>
<path d="M280.503 182.213L281.952 181.376C282.045 181.321 282.026 181.237 281.924 181.172L280.521 180.364C280.419 180.308 280.261 180.299 280.178 180.345L278.728 181.181C278.636 181.237 278.654 181.321 278.756 181.386L280.159 182.194C280.261 182.25 280.419 182.259 280.503 182.213Z" fill="#D4ECFF"/>
<path d="M275.662 185L277.111 184.163C277.204 184.108 277.186 184.024 277.083 183.959L275.681 183.151C275.579 183.095 275.421 183.086 275.337 183.132L273.888 183.968C273.795 184.024 273.813 184.108 273.916 184.173L275.318 184.981C275.421 185.037 275.579 185.046 275.662 185Z" fill="#D4ECFF"/>
<g style="mix-blend-mode:screen">
<path d="M301.693 175.998L301.665 176.016C301.619 175.979 301.572 175.942 301.516 175.914L291.409 170.08C290.666 169.653 289.542 169.606 288.901 169.978L263.93 184.452C263.335 184.024 263.307 183.448 263.902 183.105L288.901 168.612C289.542 168.241 290.666 168.287 291.409 168.714L301.516 174.549C302.26 174.976 302.343 175.626 301.693 175.998Z" fill="#681CFF"/>
</g>
<path d="M268.175 215.358L253.961 207.22C253.163 206.756 252.512 205.52 252.512 204.452V199.37C252.512 198.302 253.163 197.81 253.961 198.274L268.175 206.412C268.974 206.877 269.624 208.112 269.624 209.18V214.262C269.624 215.33 268.974 215.823 268.175 215.358Z" fill="#681CFF"/>
<g style="mix-blend-mode:screen">
<path d="M253.255 198.125C253.033 198.339 252.893 198.692 252.893 199.184V204.266C252.893 205.334 253.543 206.57 254.342 207.034L268.556 215.172C268.816 215.321 269.048 215.358 269.262 215.321C268.993 215.572 268.612 215.609 268.175 215.358L253.962 207.22C253.163 206.756 252.512 205.52 252.512 204.452V199.37C252.512 198.646 252.819 198.2 253.255 198.125Z" fill="#681CFF"/>
</g>
<path d="M263.9 209.84L262.599 209.088C262.423 208.985 262.284 208.716 262.284 208.484V207.09C262.284 206.858 262.423 206.747 262.599 206.849L263.9 207.601C264.076 207.703 264.216 207.973 264.216 208.205V209.599C264.216 209.831 264.076 209.942 263.9 209.84Z" fill="#FF2C9C"/>
<path d="M259.534 207.322L258.234 206.57C258.057 206.468 257.918 206.198 257.918 205.966V204.573C257.918 204.34 258.057 204.229 258.234 204.331L259.534 205.084C259.711 205.186 259.85 205.455 259.85 205.687V207.081C259.85 207.313 259.711 207.425 259.534 207.322Z" fill="white"/>
<path d="M268.175 252.1L253.961 243.962C253.163 243.498 252.512 242.262 252.512 241.194V236.112C252.512 235.044 253.163 234.552 253.961 235.016L268.175 243.154C268.974 243.619 269.624 244.854 269.624 245.922V251.004C269.624 252.072 268.974 252.565 268.175 252.1Z" fill="#681CFF"/>
<g style="mix-blend-mode:screen">
<path d="M253.255 234.858C253.033 235.072 252.893 235.425 252.893 235.917V240.999C252.893 242.067 253.543 243.303 254.342 243.767L268.556 251.905C268.816 252.054 269.048 252.091 269.262 252.054C268.993 252.305 268.612 252.342 268.175 252.091L253.962 243.953C253.163 243.488 252.512 242.253 252.512 241.185V236.103C252.512 235.378 252.819 234.932 253.255 234.858Z" fill="#681CFF"/>
</g>
<path d="M263.9 246.572L262.599 245.82C262.423 245.718 262.284 245.448 262.284 245.216V243.823C262.284 243.59 262.423 243.479 262.599 243.581L263.9 244.333C264.076 244.436 264.216 244.705 264.216 244.937V246.331C264.216 246.563 264.076 246.675 263.9 246.572Z" fill="#FF2C9C"/>
<path d="M259.534 244.055L258.234 243.302C258.057 243.2 257.918 242.931 257.918 242.699V241.305C257.918 241.073 258.057 240.961 258.234 241.064L259.534 241.816C259.711 241.918 259.85 242.188 259.85 242.42V243.813C259.85 244.046 259.711 244.157 259.534 244.055Z" fill="white"/>
<path d="M268.175 270.466L253.961 262.328C253.163 261.863 252.512 260.628 252.512 259.559V254.478C252.512 253.41 253.163 252.917 253.961 253.382L268.175 261.52C268.974 261.984 269.624 263.22 269.624 264.288V269.37C269.624 270.438 268.974 270.93 268.175 270.466Z" fill="#681CFF"/>
<g style="mix-blend-mode:screen">
<path d="M253.256 253.224C253.033 253.437 252.893 253.79 252.893 254.283V259.364C252.893 260.432 253.544 261.668 254.343 262.133L268.556 270.27C268.816 270.419 269.048 270.456 269.262 270.419C268.993 270.67 268.612 270.707 268.175 270.456L253.962 262.318C253.163 261.854 252.513 260.618 252.513 259.55V254.468C252.513 253.744 252.819 253.298 253.256 253.224Z" fill="#681CFF"/>
</g>
<path d="M263.9 264.938L262.599 264.185C262.423 264.083 262.284 263.814 262.284 263.581V262.188C262.284 261.956 262.423 261.844 262.599 261.946L263.9 262.699C264.076 262.801 264.216 263.07 264.216 263.303V264.696C264.216 264.928 264.076 265.04 263.9 264.938Z" fill="#FF2C9C"/>
<path d="M259.534 262.42L258.234 261.668C258.057 261.565 257.918 261.296 257.918 261.064V259.67C257.918 259.438 258.057 259.327 258.234 259.429L259.534 260.181C259.711 260.283 259.85 260.553 259.85 260.785V262.179C259.85 262.411 259.711 262.522 259.534 262.42Z" fill="white"/>
<path d="M268.175 233.725L253.961 225.587C253.163 225.122 252.512 223.887 252.512 222.819V217.737C252.512 216.669 253.163 216.176 253.961 216.641L268.175 224.779C268.974 225.243 269.624 226.479 269.624 227.547V232.629C269.624 233.697 268.974 234.189 268.175 233.725Z" fill="#681CFF"/>
<g style="mix-blend-mode:screen">
<path d="M253.255 216.492C253.032 216.706 252.893 217.059 252.893 217.551V222.633C252.893 223.701 253.543 224.936 254.342 225.401L268.556 233.539C268.816 233.687 269.048 233.725 269.262 233.687C268.992 233.938 268.612 233.975 268.175 233.725L253.961 225.587C253.162 225.122 252.512 223.887 252.512 222.818V217.737C252.512 217.012 252.819 216.566 253.255 216.492Z" fill="#681CFF"/>
</g>
<path d="M263.9 228.207L262.599 227.454C262.423 227.352 262.284 227.083 262.284 226.85V225.457C262.284 225.225 262.423 225.113 262.599 225.215L263.9 225.968C264.076 226.07 264.216 226.339 264.216 226.572V227.965C264.216 228.197 264.076 228.309 263.9 228.207Z" fill="#FF2C9C"/>
<path d="M259.534 225.689L258.234 224.937C258.057 224.834 257.918 224.565 257.918 224.333V222.939C257.918 222.707 258.057 222.596 258.234 222.698L259.534 223.45C259.711 223.552 259.85 223.822 259.85 224.054V225.448C259.85 225.68 259.711 225.791 259.534 225.689Z" fill="white"/>
<path d="M280.483 210.156L313.276 191.223C314.01 190.796 314.605 189.663 314.605 188.687V182.435C314.605 181.46 314.01 181.005 313.276 181.432L280.483 200.365C279.749 200.792 279.155 201.925 279.155 202.901V209.153C279.155 210.128 279.749 210.583 280.483 210.156Z" fill="#681CFF"/>
<path opacity="0.4" d="M281.431 207.964L312.348 190.118C312.719 189.904 313.026 189.328 313.026 188.827V184.126C313.026 183.634 312.719 183.402 312.348 183.615L281.431 201.461C281.059 201.675 280.753 202.251 280.753 202.752V207.453C280.753 207.945 281.05 208.178 281.431 207.964Z" fill="#D4ECFF"/>
<path d="M305.9 191.456L310.517 188.79C310.879 188.586 311.167 188.019 311.167 187.536C311.167 187.053 310.87 186.83 310.517 187.044L305.9 189.71C305.537 189.914 305.25 190.481 305.25 190.964C305.25 191.447 305.547 191.67 305.9 191.456Z" fill="#D4ECFF"/>
<path d="M301.971 192.858C301.971 193.341 302.305 193.536 302.723 193.295C303.141 193.053 303.476 192.468 303.476 191.985C303.476 191.502 303.141 191.307 302.723 191.548C302.305 191.79 301.971 192.375 301.971 192.858Z" fill="#FF2C9C"/>
<path d="M299.303 194.4C299.303 194.883 299.638 195.079 300.056 194.837C300.474 194.595 300.808 194.01 300.808 193.527C300.808 193.044 300.474 192.849 300.056 193.091C299.638 193.332 299.303 193.917 299.303 194.4Z" fill="#FF2C9C"/>
<path d="M296.629 195.933C296.629 196.417 296.964 196.612 297.382 196.37C297.8 196.129 298.134 195.543 298.134 195.06C298.134 194.577 297.8 194.382 297.382 194.624C296.964 194.865 296.629 195.45 296.629 195.933Z" fill="#D4ECFF"/>
<path d="M293.962 197.476C293.962 197.959 294.297 198.154 294.715 197.913C295.133 197.671 295.467 197.086 295.467 196.603C295.467 196.12 295.133 195.925 294.715 196.166C294.297 196.408 293.962 196.993 293.962 197.476Z" fill="#FF2C9C"/>
<path d="M282.732 205.344L284.283 204.443C284.515 204.313 284.701 203.951 284.701 203.644V202C284.701 201.693 284.515 201.544 284.283 201.684L282.732 202.585C282.5 202.715 282.314 203.077 282.314 203.384V205.028C282.314 205.335 282.5 205.483 282.732 205.344Z" fill="#FF2C9C"/>
<path d="M280.483 221.184L313.276 202.251C314.01 201.823 314.605 200.69 314.605 199.715V193.463C314.605 192.487 314.01 192.032 313.276 192.459L280.483 211.392C279.749 211.819 279.155 212.953 279.155 213.928V220.18C279.155 221.156 279.749 221.611 280.483 221.184Z" fill="#681CFF"/>
<path opacity="0.4" d="M281.431 218.991L312.348 201.145C312.719 200.932 313.026 200.356 313.026 199.854V195.153C313.026 194.661 312.719 194.429 312.348 194.642L281.431 212.488C281.059 212.702 280.753 213.278 280.753 213.779V218.48C280.753 218.972 281.05 219.205 281.431 218.991Z" fill="#D4ECFF"/>
<path d="M305.9 202.492L310.517 199.826C310.879 199.622 311.167 199.055 311.167 198.572C311.167 198.089 310.87 197.866 310.517 198.08L305.9 200.746C305.537 200.95 305.25 201.517 305.25 202C305.25 202.483 305.547 202.706 305.9 202.492Z" fill="#D4ECFF"/>
<path d="M301.971 203.886C301.971 204.369 302.305 204.564 302.723 204.322C303.141 204.081 303.476 203.495 303.476 203.012C303.476 202.529 303.141 202.334 302.723 202.576C302.305 202.817 301.971 203.403 301.971 203.886Z" fill="white"/>
<path d="M299.303 205.428C299.303 205.911 299.638 206.106 300.056 205.864C300.474 205.623 300.808 205.038 300.808 204.555C300.808 204.071 300.474 203.876 300.056 204.118C299.638 204.359 299.303 204.945 299.303 205.428Z" fill="#FF2C9C"/>
<path d="M296.629 206.961C296.629 207.444 296.964 207.639 297.382 207.398C297.8 207.156 298.134 206.571 298.134 206.088C298.134 205.605 297.8 205.41 297.382 205.651C296.964 205.893 296.629 206.478 296.629 206.961Z" fill="#D4ECFF"/>
<path d="M293.962 208.503C293.962 208.986 294.297 209.181 294.715 208.94C295.133 208.698 295.467 208.113 295.467 207.63C295.467 207.147 295.133 206.952 294.715 207.193C294.297 207.435 293.962 208.02 293.962 208.503Z" fill="#FF2C9C"/>
<path d="M282.732 216.371L284.283 215.47C284.515 215.34 284.701 214.978 284.701 214.671V213.027C284.701 212.72 284.515 212.572 284.283 212.711L282.732 213.612C282.5 213.742 282.314 214.104 282.314 214.411V216.055C282.314 216.362 282.5 216.51 282.732 216.371Z" fill="#FF2C9C"/>
<path d="M280.483 232.21L313.276 213.277C314.01 212.85 314.605 211.716 314.605 210.741V204.489C314.605 203.513 314.01 203.058 313.276 203.485L280.483 222.418C279.749 222.846 279.155 223.979 279.155 224.954V231.206C279.155 232.182 279.749 232.637 280.483 232.21Z" fill="#681CFF"/>
<path opacity="0.4" d="M281.431 230.017L312.348 212.171C312.719 211.958 313.026 211.382 313.026 210.88V206.179C313.026 205.687 312.719 205.455 312.348 205.669L281.431 223.514C281.059 223.728 280.753 224.304 280.753 224.806V229.506C280.753 229.999 281.05 230.231 281.431 230.017Z" fill="#D4ECFF"/>
<path d="M305.9 213.519L310.517 210.852C310.879 210.648 311.167 210.081 311.167 209.598C311.167 209.115 310.87 208.892 310.517 209.106L305.9 211.772C305.537 211.976 305.25 212.543 305.25 213.026C305.25 213.509 305.547 213.732 305.9 213.519Z" fill="#D4ECFF"/>
<path d="M301.971 214.912C301.971 215.395 302.305 215.59 302.723 215.348C303.141 215.107 303.476 214.522 303.476 214.039C303.476 213.555 303.141 213.36 302.723 213.602C302.305 213.843 301.971 214.429 301.971 214.912Z" fill="white"/>
<path d="M299.303 216.454C299.303 216.937 299.638 217.132 300.056 216.891C300.474 216.649 300.808 216.064 300.808 215.581C300.808 215.098 300.474 214.903 300.056 215.144C299.638 215.386 299.303 215.971 299.303 216.454Z" fill="#FF2C9C"/>
<path d="M296.629 217.996C296.629 218.479 296.964 218.674 297.382 218.433C297.8 218.191 298.134 217.606 298.134 217.123C298.134 216.64 297.8 216.445 297.382 216.686C296.964 216.928 296.629 217.513 296.629 217.996Z" fill="#D4ECFF"/>
<path d="M293.962 219.529C293.962 220.013 294.297 220.208 294.715 219.966C295.133 219.725 295.467 219.139 295.467 218.656C295.467 218.173 295.133 217.978 294.715 218.22C294.297 218.461 293.962 219.046 293.962 219.529Z" fill="#FF2C9C"/>
<path d="M282.732 227.397L284.283 226.496C284.515 226.366 284.701 226.004 284.701 225.697V224.053C284.701 223.746 284.515 223.598 284.283 223.737L282.732 224.638C282.5 224.768 282.314 225.131 282.314 225.437V227.082C282.314 227.388 282.5 227.537 282.732 227.397Z" fill="#FF2C9C"/>
<path d="M280.483 243.237L313.276 224.304C314.01 223.877 314.605 222.744 314.605 221.768V215.516C314.605 214.541 314.01 214.085 313.276 214.513L280.483 233.446C279.749 233.873 279.155 235.006 279.155 235.982V242.234C279.155 243.209 279.749 243.664 280.483 243.237Z" fill="#681CFF"/>
<path opacity="0.4" d="M281.431 241.045L312.348 223.199C312.719 222.985 313.026 222.409 313.026 221.908V217.207C313.026 216.714 312.719 216.482 312.348 216.696L281.431 234.542C281.059 234.755 280.753 235.331 280.753 235.833V240.534C280.753 241.026 281.05 241.258 281.431 241.045Z" fill="#D4ECFF"/>
<path d="M305.9 224.546L310.517 221.88C310.879 221.675 311.167 221.109 311.167 220.626C311.167 220.143 310.87 219.92 310.517 220.133L305.9 222.8C305.537 223.004 305.25 223.571 305.25 224.054C305.25 224.537 305.547 224.76 305.9 224.546Z" fill="#D4ECFF"/>
<path d="M301.971 225.939C301.971 226.422 302.305 226.617 302.723 226.375C303.141 226.134 303.476 225.549 303.476 225.066C303.476 224.583 303.141 224.387 302.723 224.629C302.305 224.871 301.971 225.456 301.971 225.939Z" fill="#FF2C9C"/>
<path d="M299.303 227.481C299.303 227.964 299.638 228.16 300.056 227.918C300.474 227.676 300.808 227.091 300.808 226.608C300.808 226.125 300.474 225.93 300.056 226.171C299.638 226.413 299.303 226.998 299.303 227.481Z" fill="#FF2C9C"/>
<path d="M296.629 229.023C296.629 229.507 296.964 229.702 297.382 229.46C297.8 229.219 298.134 228.633 298.134 228.15C298.134 227.667 297.8 227.472 297.382 227.714C296.964 227.955 296.629 228.54 296.629 229.023Z" fill="#D4ECFF"/>
<path d="M293.962 230.557C293.962 231.04 294.297 231.235 294.715 230.993C295.133 230.752 295.467 230.167 295.467 229.684C295.467 229.2 295.133 229.005 294.715 229.247C294.297 229.488 293.962 230.074 293.962 230.557Z" fill="#FF2C9C"/>
<path d="M282.732 238.434L284.283 237.533C284.515 237.403 284.701 237.041 284.701 236.734V235.09C284.701 234.784 284.515 234.635 284.283 234.774L282.732 235.675C282.5 235.805 282.314 236.168 282.314 236.474V238.119C282.314 238.425 282.5 238.574 282.732 238.434Z" fill="#D4ECFF"/>
<path d="M280.483 254.273L313.276 235.34C314.01 234.913 314.605 233.78 314.605 232.804V226.552C314.605 225.577 314.01 225.122 313.276 225.549L280.483 244.482C279.749 244.909 279.155 246.042 279.155 247.018V253.27C279.155 254.245 279.749 254.701 280.483 254.273Z" fill="#681CFF"/>
<path opacity="0.4" d="M281.431 252.072L312.348 234.226C312.719 234.012 313.026 233.436 313.026 232.935V228.234C313.026 227.742 312.719 227.509 312.348 227.723L281.431 245.569C281.059 245.783 280.753 246.359 280.753 246.86V251.561C280.753 252.053 281.05 252.286 281.431 252.072Z" fill="#D4ECFF"/>
<path d="M305.9 235.573L310.517 232.907C310.879 232.702 311.167 232.136 311.167 231.653C311.167 231.17 310.87 230.947 310.517 231.16L305.9 233.827C305.537 234.031 305.25 234.598 305.25 235.081C305.25 235.564 305.547 235.787 305.9 235.573Z" fill="#D4ECFF"/>
<path d="M301.971 236.966C301.971 237.449 302.305 237.644 302.723 237.403C303.141 237.161 303.476 236.576 303.476 236.093C303.476 235.61 303.141 235.415 302.723 235.656C302.305 235.898 301.971 236.483 301.971 236.966Z" fill="#FF2C9C"/>
<path d="M299.303 238.508C299.303 238.991 299.638 239.186 300.056 238.945C300.474 238.703 300.808 238.118 300.808 237.635C300.808 237.152 300.474 236.957 300.056 237.198C299.638 237.44 299.303 238.025 299.303 238.508Z" fill="white"/>
<path d="M296.629 240.051C296.629 240.534 296.964 240.729 297.382 240.487C297.8 240.246 298.134 239.661 298.134 239.177C298.134 238.694 297.8 238.499 297.382 238.741C296.964 238.982 296.629 239.568 296.629 240.051Z" fill="#D4ECFF"/>
<path d="M293.962 241.583C293.962 242.066 294.297 242.261 294.715 242.02C295.133 241.778 295.467 241.193 295.467 240.71C295.467 240.227 295.133 240.032 294.715 240.273C294.297 240.515 293.962 241.1 293.962 241.583Z" fill="white"/>
<path d="M282.732 249.461L284.283 248.56C284.515 248.43 284.701 248.067 284.701 247.761V246.116C284.701 245.81 284.515 245.661 284.283 245.801L282.732 246.702C282.5 246.832 282.314 247.194 282.314 247.501V249.145C282.314 249.452 282.5 249.6 282.732 249.461Z" fill="#D4ECFF"/>
<path d="M280.483 265.301L313.276 246.368C314.01 245.94 314.605 244.807 314.605 243.832V237.58C314.605 236.604 314.01 236.149 313.276 236.576L280.483 255.509C279.749 255.936 279.155 257.07 279.155 258.045V264.297C279.155 265.273 279.749 265.728 280.483 265.301Z" fill="#681CFF"/>
<path opacity="0.4" d="M281.431 263.108L312.348 245.262C312.719 245.049 313.026 244.473 313.026 243.971V239.27C313.026 238.778 312.719 238.546 312.348 238.759L281.431 256.605C281.059 256.819 280.753 257.395 280.753 257.896V262.597C280.753 263.09 281.05 263.322 281.431 263.108Z" fill="#D4ECFF"/>
<path d="M305.9 246.6L310.517 243.934C310.879 243.73 311.167 243.163 311.167 242.68C311.167 242.197 310.87 241.974 310.517 242.187L305.9 244.854C305.537 245.058 305.25 245.625 305.25 246.108C305.25 246.591 305.547 246.814 305.9 246.6Z" fill="#D4ECFF"/>
<path d="M301.971 247.993C301.971 248.476 302.305 248.671 302.723 248.43C303.141 248.188 303.476 247.603 303.476 247.12C303.476 246.637 303.141 246.442 302.723 246.683C302.305 246.925 301.971 247.51 301.971 247.993Z" fill="#FF2C9C"/>
<path d="M299.303 249.536C299.303 250.019 299.638 250.214 300.056 249.972C300.474 249.731 300.808 249.145 300.808 248.662C300.808 248.179 300.474 247.984 300.056 248.226C299.638 248.467 299.303 249.053 299.303 249.536Z" fill="#FF2C9C"/>
<path d="M296.629 251.078C296.629 251.561 296.964 251.756 297.382 251.515C297.8 251.273 298.134 250.688 298.134 250.205C298.134 249.722 297.8 249.526 297.382 249.768C296.964 250.01 296.629 250.595 296.629 251.078Z" fill="#D4ECFF"/>
<path d="M293.962 252.62C293.962 253.103 294.297 253.299 294.715 253.057C295.133 252.815 295.467 252.23 295.467 251.747C295.467 251.264 295.133 251.069 294.715 251.311C294.297 251.552 293.962 252.137 293.962 252.62Z" fill="#FF2C9C"/>
<path d="M282.732 260.488L284.283 259.587C284.515 259.457 284.701 259.094 284.701 258.788V257.144C284.701 256.837 284.515 256.688 284.283 256.828L282.732 257.729C282.5 257.859 282.314 258.221 282.314 258.528V260.172C282.314 260.479 282.5 260.627 282.732 260.488Z" fill="#FF2C9C"/>
<path d="M280.483 276.328L313.276 257.395C314.01 256.968 314.605 255.834 314.605 254.859V248.607C314.605 247.631 314.01 247.176 313.276 247.604L280.483 266.536C279.749 266.964 279.155 268.097 279.155 269.072V275.324C279.155 276.3 279.749 276.755 280.483 276.328Z" fill="#681CFF"/>
<path opacity="0.4" d="M281.431 274.135L312.348 256.289C312.719 256.076 313.026 255.5 313.026 254.998V250.297C313.026 249.805 312.719 249.573 312.348 249.786L281.431 267.632C281.059 267.846 280.753 268.422 280.753 268.924V273.624C280.753 274.117 281.05 274.349 281.431 274.135Z" fill="#D4ECFF"/>
<path d="M305.9 257.628L310.517 254.962C310.879 254.757 311.167 254.19 311.167 253.707C311.167 253.224 310.87 253.001 310.517 253.215L305.9 255.881C305.537 256.086 305.25 256.652 305.25 257.135C305.25 257.618 305.547 257.841 305.9 257.628Z" fill="#D4ECFF"/>
<path d="M301.126 259.625C301.126 260.535 301.767 260.907 302.556 260.452C303.346 259.996 303.987 258.891 303.987 257.981C303.987 257.07 303.346 256.699 302.556 257.154C301.767 257.609 301.126 258.714 301.126 259.625Z" fill="white"/>
<path d="M295.597 262.857C295.597 263.34 295.931 263.535 296.349 263.294C296.767 263.052 297.102 262.467 297.102 261.984C297.102 261.501 296.767 261.306 296.349 261.547C295.931 261.789 295.597 262.374 295.597 262.857Z" fill="#FF2C9C"/>
<path d="M292.931 264.39C292.931 264.873 293.266 265.069 293.684 264.827C294.102 264.585 294.436 264 294.436 263.517C294.436 263.034 294.102 262.839 293.684 263.081C293.266 263.322 292.931 263.907 292.931 264.39Z" fill="#D4ECFF"/>
<path d="M290.266 265.933C290.266 266.416 290.6 266.611 291.018 266.37C291.436 266.128 291.771 265.543 291.771 265.06C291.771 264.577 291.436 264.381 291.018 264.623C290.6 264.865 290.266 265.45 290.266 265.933Z" fill="#FF2C9C"/>
<path d="M282.732 271.515L284.283 270.614C284.515 270.484 284.701 270.122 284.701 269.815V268.171C284.701 267.864 284.515 267.716 284.283 267.855L282.732 268.756C282.5 268.886 282.314 269.249 282.314 269.555V271.199C282.314 271.506 282.5 271.655 282.732 271.515Z" fill="#D4ECFF"/>
<path d="M302.494 117.159L282.393 80.4609V129.331L302.494 117.159Z" fill="#681CFF"/>
<path d="M263.214 116.237L282.393 80.4609V129.331L263.214 116.237Z" fill="#7B38FF"/>
<path d="M282.578 131.743L301.388 120.663L282.578 154.78V131.743Z" fill="#560FE3"/>
<path d="M282.578 131.744L264.321 120.663L282.578 154.78V131.744Z" fill="#681CFF"/>
<path d="M67.2393 266.536V184.813L34.7526 176.313L28.77 172.857C27.3951 172.068 24.9983 172.161 23.4097 173.08L17.8265 176.304H0.500885L5.62889 255.184C5.59173 255.723 5.88901 256.243 6.54859 256.624L38.9702 281.084C40.3451 281.874 42.7419 281.781 44.3305 280.861L65.9294 268.385C66.8399 267.855 67.2858 267.177 67.23 266.536H67.2393Z" fill="url(#paint10_linear_274_25)"/>
<path opacity="0.6" d="M26.2713 172.328C25.268 172.355 24.2276 172.606 23.4008 173.08L17.8175 176.304H0.49194V258.24C0.454781 258.779 0.752052 259.299 1.41164 259.68L38.9613 281.093C39.6209 281.474 40.522 281.651 41.451 281.623L41.8412 199.166L26.2806 172.328H26.2713Z" fill="url(#paint11_linear_274_25)"/>
<path opacity="0.1" d="M39.3037 281.251C40.4835 281.762 42.2021 281.735 43.5863 281.205V198.181H39.3037V281.251Z" fill="url(#paint12_linear_274_25)"/>
<path d="M38.9612 199.166L1.41149 177.753C0.0365906 176.963 0.213097 175.579 1.79237 174.66L23.4006 162.193C24.9892 161.273 27.386 161.18 28.7609 161.97L66.3105 183.383C67.6854 184.172 67.5089 185.557 65.9297 186.476L44.3214 198.953C42.7328 199.872 40.3361 199.965 38.9612 199.175V199.166Z" fill="url(#paint13_linear_274_25)"/>
<g style="mix-blend-mode:screen">
<path d="M65.9292 184.953L44.3209 197.429C42.7324 198.349 40.3356 198.442 38.9607 197.652L1.411 176.239C1.10444 176.063 0.881485 175.858 0.723557 175.635C0.249771 176.397 0.46344 177.215 1.411 177.763L38.9607 199.176C40.3356 199.965 42.7324 199.873 44.3209 198.953L65.9292 186.477C67.1647 185.761 67.5363 184.767 66.9975 183.987C66.7838 184.331 66.4215 184.665 65.9292 184.953Z" fill="#681CFF"/>
</g>
<path d="M40.0203 190.49L15.0213 175.998C14.3803 175.626 14.4546 174.976 15.1978 174.549L25.3052 168.714C26.0484 168.287 27.1724 168.241 27.8134 168.612L52.8125 183.105C53.4535 183.476 53.3699 184.126 52.636 184.554L42.5286 190.388C41.7854 190.815 40.6613 190.862 40.0203 190.49Z" fill="#681CFF"/>
<path d="M26.5223 176.648L25.0731 175.812C24.9802 175.756 24.9987 175.672 25.1009 175.607L26.5037 174.799C26.6059 174.743 26.7638 174.734 26.8474 174.78L28.2967 175.616C28.3895 175.672 28.371 175.756 28.2688 175.821L26.866 176.629C26.7638 176.685 26.6059 176.694 26.5223 176.648Z" fill="#FF2C9C"/>
<path d="M31.3723 179.434L29.923 178.598C29.8301 178.543 29.8487 178.459 29.9509 178.394L31.3537 177.586C31.4559 177.53 31.6138 177.521 31.6974 177.567L33.1466 178.403C33.2395 178.459 33.2209 178.543 33.1188 178.608L31.716 179.416C31.6138 179.472 31.4559 179.481 31.3723 179.434Z" fill="#D4ECFF"/>
<path d="M36.2115 182.212L34.7623 181.376C34.6694 181.32 34.688 181.237 34.7901 181.172L36.1929 180.364C36.2951 180.308 36.453 180.298 36.5366 180.345L37.9859 181.181C38.0788 181.237 38.0602 181.32 37.958 181.385L36.5552 182.194C36.453 182.249 36.2951 182.259 36.2115 182.212Z" fill="#D4ECFF"/>
<path d="M41.0524 184.999L39.6032 184.163C39.5103 184.108 39.5289 184.024 39.6311 183.959L41.0339 183.151C41.136 183.095 41.294 183.086 41.3776 183.132L42.8268 183.968C42.9197 184.024 42.9011 184.108 42.7989 184.173L41.3962 184.981C41.294 185.037 41.136 185.046 41.0524 184.999Z" fill="#D4ECFF"/>
<g style="mix-blend-mode:screen">
<path d="M15.021 175.998L15.0489 176.016C15.0953 175.979 15.1418 175.942 15.1975 175.914L25.3049 170.08C26.0481 169.653 27.1721 169.606 27.8131 169.978L52.7843 184.452C53.3789 184.024 53.4067 183.448 52.8122 183.105L27.8131 168.612C27.1721 168.241 26.0481 168.287 25.3049 168.714L15.1975 174.549C14.4543 174.976 14.3707 175.626 15.021 175.998Z" fill="#681CFF"/>
</g>
<path d="M48.5393 215.358L62.7528 207.22C63.5517 206.756 64.202 205.52 64.202 204.452V199.37C64.202 198.302 63.5517 197.81 62.7528 198.274L48.5393 206.412C47.7403 206.877 47.09 208.112 47.09 209.18V214.262C47.09 215.33 47.7403 215.823 48.5393 215.358Z" fill="#681CFF"/>
<g style="mix-blend-mode:screen">
<path d="M63.4589 198.125C63.6819 198.339 63.8212 198.692 63.8212 199.184V204.266C63.8212 205.334 63.1709 206.57 62.372 207.034L48.1585 215.172C47.8984 215.321 47.6661 215.358 47.4525 215.321C47.7219 215.572 48.1028 215.609 48.5394 215.358L62.7529 207.22C63.5518 206.756 64.2021 205.52 64.2021 204.452V199.37C64.2021 198.646 63.8956 198.2 63.4589 198.125Z" fill="#681CFF"/>
</g>
<path d="M52.8117 209.84L54.1123 209.088C54.2888 208.985 54.4281 208.716 54.4281 208.484V207.09C54.4281 206.858 54.2888 206.747 54.1123 206.849L52.8117 207.601C52.6352 207.703 52.4958 207.973 52.4958 208.205V209.599C52.4958 209.831 52.6352 209.942 52.8117 209.84Z" fill="#FF2C9C"/>
<path d="M57.1775 207.322L58.4781 206.57C58.6546 206.468 58.7939 206.198 58.7939 205.966V204.573C58.7939 204.34 58.6546 204.229 58.4781 204.331L57.1775 205.084C57.001 205.186 56.8616 205.455 56.8616 205.687V207.081C56.8616 207.313 57.001 207.425 57.1775 207.322Z" fill="white"/>
<path d="M48.5393 252.1L62.7528 243.962C63.5517 243.498 64.202 242.262 64.202 241.194V236.112C64.202 235.044 63.5517 234.552 62.7528 235.016L48.5393 243.154C47.7403 243.619 47.09 244.854 47.09 245.922V251.004C47.09 252.072 47.7403 252.565 48.5393 252.1Z" fill="#681CFF"/>
<g style="mix-blend-mode:screen">
<path d="M63.4589 234.859C63.6819 235.072 63.8212 235.425 63.8212 235.918V240.999C63.8212 242.068 63.1709 243.303 62.372 243.768L48.1585 251.906C47.8984 252.054 47.6661 252.091 47.4525 252.054C47.7219 252.305 48.1028 252.342 48.5394 252.091L62.7529 243.953C63.5518 243.489 64.2021 242.253 64.2021 241.185V236.103C64.2021 235.379 63.8956 234.933 63.4589 234.859Z" fill="#681CFF"/>
</g>
<path d="M52.8117 246.572L54.1123 245.82C54.2888 245.718 54.4281 245.448 54.4281 245.216V243.823C54.4281 243.59 54.2888 243.479 54.1123 243.581L52.8117 244.333C52.6352 244.436 52.4958 244.705 52.4958 244.937V246.331C52.4958 246.563 52.6352 246.675 52.8117 246.572Z" fill="#FF2C9C"/>
<path d="M57.1775 244.055L58.4781 243.302C58.6546 243.2 58.7939 242.931 58.7939 242.699V241.305C58.7939 241.073 58.6546 240.961 58.4781 241.064L57.1775 241.816C57.001 241.918 56.8616 242.188 56.8616 242.42V243.813C56.8616 244.046 57.001 244.157 57.1775 244.055Z" fill="white"/>
<path d="M48.5393 270.466L62.7528 262.328C63.5517 261.863 64.202 260.628 64.202 259.559V254.478C64.202 253.41 63.5517 252.917 62.7528 253.382L48.5393 261.52C47.7403 261.984 47.09 263.22 47.09 264.288V269.37C47.09 270.438 47.7403 270.93 48.5393 270.466Z" fill="#681CFF"/>
<g style="mix-blend-mode:screen">
<path d="M63.4589 253.224C63.6819 253.437 63.8212 253.79 63.8212 254.283V259.364C63.8212 260.432 63.1709 261.668 62.372 262.133L48.1585 270.27C47.8984 270.419 47.6661 270.456 47.4525 270.419C47.7219 270.67 48.1028 270.707 48.5394 270.456L62.7529 262.318C63.5518 261.854 64.2021 260.618 64.2021 259.55V254.468C64.2021 253.744 63.8956 253.298 63.4589 253.224Z" fill="#681CFF"/>
</g>
<path d="M52.8117 264.938L54.1123 264.185C54.2888 264.083 54.4281 263.814 54.4281 263.581V262.188C54.4281 261.956 54.2888 261.844 54.1123 261.946L52.8117 262.699C52.6352 262.801 52.4958 263.07 52.4958 263.303V264.696C52.4958 264.928 52.6352 265.04 52.8117 264.938Z" fill="#FF2C9C"/>
<path d="M57.1775 262.42L58.4781 261.668C58.6546 261.565 58.7939 261.296 58.7939 261.064V259.67C58.7939 259.438 58.6546 259.327 58.4781 259.429L57.1775 260.181C57.001 260.283 56.8616 260.553 56.8616 260.785V262.179C56.8616 262.411 57.001 262.522 57.1775 262.42Z" fill="white"/>
<path d="M48.5391 233.725L62.7527 225.587C63.5516 225.122 64.2019 223.887 64.2019 222.819V217.737C64.2019 216.669 63.5516 216.176 62.7527 216.641L48.5391 224.779C47.7402 225.243 47.0899 226.479 47.0899 227.547V232.629C47.0899 233.697 47.7402 234.189 48.5391 233.725Z" fill="#681CFF"/>
<g style="mix-blend-mode:screen">
<path d="M63.4589 216.492C63.6819 216.705 63.8212 217.058 63.8212 217.551V222.632C63.8212 223.701 63.1709 224.936 62.372 225.401L48.1585 233.538C47.8984 233.687 47.6661 233.724 47.4524 233.687C47.7219 233.938 48.1027 233.975 48.5394 233.724L62.7529 225.586C63.5518 225.122 64.2021 223.886 64.2021 222.818V217.736C64.2021 217.012 63.8955 216.566 63.4589 216.492Z" fill="#681CFF"/>
</g>
<path d="M52.8117 228.207L54.1123 227.454C54.2888 227.352 54.4281 227.083 54.4281 226.85V225.457C54.4281 225.225 54.2888 225.113 54.1123 225.215L52.8117 225.968C52.6352 226.07 52.4958 226.339 52.4958 226.572V227.965C52.4958 228.197 52.6352 228.309 52.8117 228.207Z" fill="#FF2C9C"/>
<path d="M57.1775 225.689L58.4781 224.937C58.6546 224.834 58.7939 224.565 58.7939 224.333V222.939C58.7939 222.707 58.6546 222.596 58.4781 222.698L57.1775 223.45C57.001 223.552 56.8616 223.822 56.8616 224.054V225.448C56.8616 225.68 57.001 225.791 57.1775 225.689Z" fill="white"/>
<path d="M36.2312 210.156L3.43793 191.223C2.70403 190.796 2.10948 189.663 2.10948 188.687V182.435C2.10948 181.46 2.70403 181.005 3.43793 181.432L36.2312 200.365C36.9651 200.792 37.5596 201.925 37.5596 202.901V209.153C37.5596 210.128 36.9651 210.583 36.2312 210.156Z" fill="#681CFF"/>
<path opacity="0.4" d="M35.2826 207.964L4.3659 190.118C3.9943 189.904 3.68774 189.328 3.68774 188.827V184.126C3.68774 183.634 3.9943 183.402 4.3659 183.615L35.2826 201.461C35.6542 201.675 35.9608 202.251 35.9608 202.752V207.453C35.9608 207.945 35.6635 208.178 35.2826 207.964Z" fill="#D4ECFF"/>
<path d="M10.8142 191.456L6.19712 188.79C5.83482 188.586 5.54683 188.019 5.54683 187.536C5.54683 187.053 5.84411 186.83 6.19712 187.044L10.8142 189.71C11.1765 189.914 11.4645 190.481 11.4645 190.964C11.4645 191.447 11.1672 191.67 10.8142 191.456Z" fill="#D4ECFF"/>
<path d="M14.7432 192.858C14.7432 193.341 14.4087 193.536 13.9907 193.295C13.5726 193.053 13.2382 192.468 13.2382 191.985C13.2382 191.502 13.5726 191.307 13.9907 191.548C14.4087 191.79 14.7432 192.375 14.7432 192.858Z" fill="#FF2C9C"/>
<path d="M17.4105 194.4C17.4105 194.883 17.076 195.079 16.658 194.837C16.2399 194.595 15.9055 194.01 15.9055 193.527C15.9055 193.044 16.2399 192.849 16.658 193.091C17.076 193.332 17.4105 193.917 17.4105 194.4Z" fill="#FF2C9C"/>
<path d="M20.0849 195.933C20.0849 196.417 19.7505 196.612 19.3324 196.37C18.9144 196.129 18.5799 195.543 18.5799 195.06C18.5799 194.577 18.9144 194.382 19.3324 194.624C19.7505 194.865 20.0849 195.45 20.0849 195.933Z" fill="#D4ECFF"/>
<path d="M22.7517 197.476C22.7517 197.959 22.4173 198.154 21.9992 197.913C21.5812 197.671 21.2468 197.086 21.2468 196.603C21.2468 196.12 21.5812 195.925 21.9992 196.166C22.4173 196.408 22.7517 196.993 22.7517 197.476Z" fill="#FF2C9C"/>
<path d="M33.9826 205.344L32.4312 204.443C32.1989 204.313 32.0131 203.951 32.0131 203.644V202C32.0131 201.693 32.1989 201.544 32.4312 201.684L33.9826 202.585C34.2148 202.715 34.4006 203.077 34.4006 203.384V205.028C34.4006 205.335 34.2148 205.483 33.9826 205.344Z" fill="#FF2C9C"/>
<path d="M36.2312 221.184L3.43793 202.251C2.70403 201.823 2.10948 200.69 2.10948 199.715V193.463C2.10948 192.487 2.70403 192.032 3.43793 192.459L36.2312 211.392C36.9651 211.819 37.5596 212.953 37.5596 213.928V220.18C37.5596 221.156 36.9651 221.611 36.2312 221.184Z" fill="#681CFF"/>
<path opacity="0.4" d="M35.2826 218.991L4.3659 201.145C3.9943 200.932 3.68774 200.356 3.68774 199.854V195.153C3.68774 194.661 3.9943 194.429 4.3659 194.642L35.2826 212.488C35.6542 212.702 35.9608 213.278 35.9608 213.779V218.48C35.9608 218.972 35.6635 219.205 35.2826 218.991Z" fill="#D4ECFF"/>
<path d="M10.8142 202.492L6.19712 199.826C5.83482 199.622 5.54683 199.055 5.54683 198.572C5.54683 198.089 5.84411 197.866 6.19712 198.08L10.8142 200.746C11.1765 200.95 11.4645 201.517 11.4645 202C11.4645 202.483 11.1672 202.706 10.8142 202.492Z" fill="#D4ECFF"/>
<path d="M14.7432 203.886C14.7432 204.369 14.4087 204.564 13.9907 204.322C13.5726 204.081 13.2382 203.495 13.2382 203.012C13.2382 202.529 13.5726 202.334 13.9907 202.576C14.4087 202.817 14.7432 203.403 14.7432 203.886Z" fill="white"/>
<path d="M17.4105 205.428C17.4105 205.911 17.076 206.106 16.658 205.864C16.2399 205.623 15.9055 205.038 15.9055 204.555C15.9055 204.071 16.2399 203.876 16.658 204.118C17.076 204.359 17.4105 204.945 17.4105 205.428Z" fill="#FF2C9C"/>
<path d="M20.0849 206.961C20.0849 207.444 19.7505 207.639 19.3324 207.398C18.9144 207.156 18.5799 206.571 18.5799 206.088C18.5799 205.605 18.9144 205.41 19.3324 205.651C19.7505 205.893 20.0849 206.478 20.0849 206.961Z" fill="#D4ECFF"/>
<path d="M22.7517 208.503C22.7517 208.986 22.4173 209.181 21.9992 208.94C21.5812 208.698 21.2468 208.113 21.2468 207.63C21.2468 207.147 21.5812 206.952 21.9992 207.193C22.4173 207.435 22.7517 208.02 22.7517 208.503Z" fill="#FF2C9C"/>
<path d="M33.9826 216.371L32.4312 215.47C32.1989 215.34 32.0131 214.978 32.0131 214.671V213.027C32.0131 212.72 32.1989 212.572 32.4312 212.711L33.9826 213.612C34.2148 213.742 34.4006 214.104 34.4006 214.411V216.055C34.4006 216.362 34.2148 216.51 33.9826 216.371Z" fill="#FF2C9C"/>
<path d="M36.2312 232.21L3.43793 213.277C2.70403 212.85 2.10948 211.716 2.10948 210.741V204.489C2.10948 203.513 2.70403 203.058 3.43793 203.485L36.2312 222.418C36.9651 222.846 37.5596 223.979 37.5596 224.954V231.206C37.5596 232.182 36.9651 232.637 36.2312 232.21Z" fill="#681CFF"/>
<path opacity="0.4" d="M35.2826 230.017L4.3659 212.171C3.9943 211.958 3.68774 211.382 3.68774 210.88V206.179C3.68774 205.687 3.9943 205.455 4.3659 205.669L35.2826 223.514C35.6542 223.728 35.9608 224.304 35.9608 224.806V229.506C35.9608 229.999 35.6635 230.231 35.2826 230.017Z" fill="#D4ECFF"/>
<path d="M10.8142 213.519L6.19712 210.852C5.83482 210.648 5.54683 210.081 5.54683 209.598C5.54683 209.115 5.84411 208.892 6.19712 209.106L10.8142 211.772C11.1765 211.976 11.4645 212.543 11.4645 213.026C11.4645 213.509 11.1672 213.732 10.8142 213.519Z" fill="#D4ECFF"/>
<path d="M14.7432 214.912C14.7432 215.395 14.4087 215.59 13.9907 215.348C13.5726 215.107 13.2382 214.522 13.2382 214.039C13.2382 213.555 13.5726 213.36 13.9907 213.602C14.4087 213.843 14.7432 214.429 14.7432 214.912Z" fill="white"/>
<path d="M17.4105 216.454C17.4105 216.937 17.076 217.132 16.658 216.891C16.2399 216.649 15.9055 216.064 15.9055 215.581C15.9055 215.098 16.2399 214.903 16.658 215.144C17.076 215.386 17.4105 215.971 17.4105 216.454Z" fill="#FF2C9C"/>
<path d="M20.0849 217.996C20.0849 218.479 19.7505 218.674 19.3324 218.433C18.9144 218.191 18.5799 217.606 18.5799 217.123C18.5799 216.64 18.9144 216.445 19.3324 216.686C19.7505 216.928 20.0849 217.513 20.0849 217.996Z" fill="#D4ECFF"/>
<path d="M22.7517 219.529C22.7517 220.013 22.4173 220.208 21.9992 219.966C21.5812 219.725 21.2468 219.139 21.2468 218.656C21.2468 218.173 21.5812 217.978 21.9992 218.22C22.4173 218.461 22.7517 219.046 22.7517 219.529Z" fill="#FF2C9C"/>
<path d="M33.9826 227.397L32.4312 226.496C32.1989 226.366 32.0131 226.004 32.0131 225.697V224.053C32.0131 223.746 32.1989 223.598 32.4312 223.737L33.9826 224.638C34.2148 224.768 34.4006 225.131 34.4006 225.437V227.082C34.4006 227.388 34.2148 227.537 33.9826 227.397Z" fill="#FF2C9C"/>
<path d="M36.2312 243.237L3.43793 224.304C2.70403 223.877 2.10948 222.744 2.10948 221.768V215.516C2.10948 214.541 2.70403 214.085 3.43793 214.513L36.2312 233.446C36.9651 233.873 37.5596 235.006 37.5596 235.982V242.234C37.5596 243.209 36.9651 243.664 36.2312 243.237Z" fill="#681CFF"/>
<path opacity="0.4" d="M35.2826 241.045L4.3659 223.199C3.9943 222.985 3.68774 222.409 3.68774 221.908V217.207C3.68774 216.714 3.9943 216.482 4.3659 216.696L35.2826 234.542C35.6542 234.755 35.9608 235.331 35.9608 235.833V240.534C35.9608 241.026 35.6635 241.258 35.2826 241.045Z" fill="#D4ECFF"/>
<path d="M10.8142 224.546L6.19712 221.88C5.83482 221.675 5.54683 221.109 5.54683 220.626C5.54683 220.143 5.84411 219.92 6.19712 220.133L10.8142 222.8C11.1765 223.004 11.4645 223.571 11.4645 224.054C11.4645 224.537 11.1672 224.76 10.8142 224.546Z" fill="#D4ECFF"/>
<path d="M14.7432 225.939C14.7432 226.422 14.4087 226.617 13.9907 226.375C13.5726 226.134 13.2382 225.549 13.2382 225.066C13.2382 224.583 13.5726 224.387 13.9907 224.629C14.4087 224.871 14.7432 225.456 14.7432 225.939Z" fill="#FF2C9C"/>
<path d="M17.4105 227.481C17.4105 227.964 17.076 228.16 16.658 227.918C16.2399 227.676 15.9055 227.091 15.9055 226.608C15.9055 226.125 16.2399 225.93 16.658 226.171C17.076 226.413 17.4105 226.998 17.4105 227.481Z" fill="#FF2C9C"/>
<path d="M20.0849 229.023C20.0849 229.507 19.7505 229.702 19.3324 229.46C18.9144 229.219 18.5799 228.633 18.5799 228.15C18.5799 227.667 18.9144 227.472 19.3324 227.714C19.7505 227.955 20.0849 228.54 20.0849 229.023Z" fill="#D4ECFF"/>
<path d="M22.7517 230.557C22.7517 231.04 22.4173 231.235 21.9992 230.993C21.5812 230.752 21.2468 230.167 21.2468 229.684C21.2468 229.2 21.5812 229.005 21.9992 229.247C22.4173 229.488 22.7517 230.074 22.7517 230.557Z" fill="#FF2C9C"/>
<path d="M33.9826 238.434L32.4312 237.533C32.1989 237.403 32.0131 237.041 32.0131 236.734V235.09C32.0131 234.784 32.1989 234.635 32.4312 234.774L33.9826 235.675C34.2148 235.805 34.4006 236.168 34.4006 236.474V238.119C34.4006 238.425 34.2148 238.574 33.9826 238.434Z" fill="#D4ECFF"/>
<path d="M36.2312 254.273L3.43793 235.34C2.70403 234.913 2.10948 233.78 2.10948 232.804V226.552C2.10948 225.577 2.70403 225.122 3.43793 225.549L36.2312 244.482C36.9651 244.909 37.5596 246.042 37.5596 247.018V253.27C37.5596 254.245 36.9651 254.701 36.2312 254.273Z" fill="#681CFF"/>
<path opacity="0.4" d="M35.2826 252.072L4.3659 234.226C3.9943 234.012 3.68774 233.436 3.68774 232.935V228.234C3.68774 227.742 3.9943 227.509 4.3659 227.723L35.2826 245.569C35.6542 245.783 35.9608 246.359 35.9608 246.86V251.561C35.9608 252.053 35.6635 252.286 35.2826 252.072Z" fill="#D4ECFF"/>
<path d="M10.8142 235.573L6.19712 232.907C5.83482 232.702 5.54683 232.136 5.54683 231.653C5.54683 231.17 5.84411 230.947 6.19712 231.16L10.8142 233.827C11.1765 234.031 11.4645 234.598 11.4645 235.081C11.4645 235.564 11.1672 235.787 10.8142 235.573Z" fill="#D4ECFF"/>
<path d="M14.7432 236.966C14.7432 237.449 14.4087 237.644 13.9907 237.403C13.5726 237.161 13.2382 236.576 13.2382 236.093C13.2382 235.61 13.5726 235.415 13.9907 235.656C14.4087 235.898 14.7432 236.483 14.7432 236.966Z" fill="#FF2C9C"/>
<path d="M17.4105 238.508C17.4105 238.991 17.076 239.186 16.658 238.945C16.2399 238.703 15.9055 238.118 15.9055 237.635C15.9055 237.152 16.2399 236.957 16.658 237.198C17.076 237.44 17.4105 238.025 17.4105 238.508Z" fill="white"/>
<path d="M20.0849 240.051C20.0849 240.534 19.7505 240.729 19.3324 240.487C18.9144 240.246 18.5799 239.661 18.5799 239.177C18.5799 238.694 18.9144 238.499 19.3324 238.741C19.7505 238.982 20.0849 239.568 20.0849 240.051Z" fill="#D4ECFF"/>
<path d="M22.7517 241.583C22.7517 242.066 22.4173 242.261 21.9992 242.02C21.5812 241.778 21.2468 241.193 21.2468 240.71C21.2468 240.227 21.5812 240.032 21.9992 240.273C22.4173 240.515 22.7517 241.1 22.7517 241.583Z" fill="white"/>
<path d="M33.9826 249.461L32.4312 248.56C32.1989 248.43 32.0131 248.067 32.0131 247.761V246.116C32.0131 245.81 32.1989 245.661 32.4312 245.801L33.9826 246.702C34.2148 246.832 34.4006 247.194 34.4006 247.501V249.145C34.4006 249.452 34.2148 249.6 33.9826 249.461Z" fill="#D4ECFF"/>
<path d="M36.2312 265.301L3.43793 246.368C2.70403 245.94 2.10948 244.807 2.10948 243.832V237.58C2.10948 236.604 2.70403 236.149 3.43793 236.576L36.2312 255.509C36.9651 255.936 37.5596 257.07 37.5596 258.045V264.297C37.5596 265.273 36.9651 265.728 36.2312 265.301Z" fill="#681CFF"/>
<path opacity="0.4" d="M35.2826 263.108L4.3659 245.262C3.9943 245.049 3.68774 244.473 3.68774 243.971V239.27C3.68774 238.778 3.9943 238.546 4.3659 238.759L35.2826 256.605C35.6542 256.819 35.9608 257.395 35.9608 257.896V262.597C35.9608 263.09 35.6635 263.322 35.2826 263.108Z" fill="#D4ECFF"/>
<path d="M10.8142 246.6L6.19712 243.934C5.83482 243.73 5.54683 243.163 5.54683 242.68C5.54683 242.197 5.84411 241.974 6.19712 242.187L10.8142 244.854C11.1765 245.058 11.4645 245.625 11.4645 246.108C11.4645 246.591 11.1672 246.814 10.8142 246.6Z" fill="#D4ECFF"/>
<path d="M14.7432 247.993C14.7432 248.476 14.4087 248.671 13.9907 248.43C13.5726 248.188 13.2382 247.603 13.2382 247.12C13.2382 246.637 13.5726 246.442 13.9907 246.683C14.4087 246.925 14.7432 247.51 14.7432 247.993Z" fill="#FF2C9C"/>
<path d="M17.4105 249.536C17.4105 250.019 17.076 250.214 16.658 249.972C16.2399 249.731 15.9055 249.145 15.9055 248.662C15.9055 248.179 16.2399 247.984 16.658 248.226C17.076 248.467 17.4105 249.053 17.4105 249.536Z" fill="#FF2C9C"/>
<path d="M20.0849 251.078C20.0849 251.561 19.7505 251.756 19.3324 251.515C18.9144 251.273 18.5799 250.688 18.5799 250.205C18.5799 249.722 18.9144 249.526 19.3324 249.768C19.7505 250.01 20.0849 250.595 20.0849 251.078Z" fill="#D4ECFF"/>
<path d="M22.7517 252.62C22.7517 253.103 22.4173 253.299 21.9992 253.057C21.5812 252.815 21.2468 252.23 21.2468 251.747C21.2468 251.264 21.5812 251.069 21.9992 251.311C22.4173 251.552 22.7517 252.137 22.7517 252.62Z" fill="#FF2C9C"/>
<path d="M33.9826 260.488L32.4312 259.587C32.1989 259.457 32.0131 259.094 32.0131 258.788V257.144C32.0131 256.837 32.1989 256.688 32.4312 256.828L33.9826 257.729C34.2148 257.859 34.4006 258.221 34.4006 258.528V260.172C34.4006 260.479 34.2148 260.627 33.9826 260.488Z" fill="#FF2C9C"/>
<path d="M36.2312 276.328L3.43793 257.395C2.70403 256.968 2.10948 255.834 2.10948 254.859V248.607C2.10948 247.631 2.70403 247.176 3.43793 247.604L36.2312 266.536C36.9651 266.964 37.5596 268.097 37.5596 269.072V275.324C37.5596 276.3 36.9651 276.755 36.2312 276.328Z" fill="#681CFF"/>
<path opacity="0.4" d="M35.2826 274.135L4.3659 256.289C3.9943 256.076 3.68774 255.5 3.68774 254.998V250.297C3.68774 249.805 3.9943 249.573 4.3659 249.786L35.2826 267.632C35.6542 267.846 35.9608 268.422 35.9608 268.924V273.624C35.9608 274.117 35.6635 274.349 35.2826 274.135Z" fill="#D4ECFF"/>
<path d="M10.8142 257.628L6.19712 254.962C5.83482 254.757 5.54683 254.19 5.54683 253.707C5.54683 253.224 5.84411 253.001 6.19712 253.215L10.8142 255.881C11.1765 256.086 11.4645 256.652 11.4645 257.135C11.4645 257.618 11.1672 257.841 10.8142 257.628Z" fill="#D4ECFF"/>
<path d="M15.5883 259.625C15.5883 260.535 14.9473 260.907 14.1577 260.452C13.368 259.996 12.727 258.891 12.727 257.981C12.727 257.07 13.368 256.699 14.1577 257.154C14.9473 257.609 15.5883 258.714 15.5883 259.625Z" fill="white"/>
<path d="M21.1173 262.857C21.1173 263.34 20.7829 263.535 20.3648 263.294C19.9468 263.052 19.6124 262.467 19.6124 261.984C19.6124 261.501 19.9468 261.306 20.3648 261.547C20.7829 261.789 21.1173 262.374 21.1173 262.857Z" fill="#FF2C9C"/>
<path d="M23.7828 264.39C23.7828 264.873 23.4483 265.069 23.0303 264.827C22.6123 264.585 22.2778 264 22.2778 263.517C22.2778 263.034 22.6123 262.839 23.0303 263.081C23.4483 263.322 23.7828 263.907 23.7828 264.39Z" fill="#D4ECFF"/>
<path d="M26.4477 265.933C26.4477 266.416 26.1133 266.611 25.6952 266.37C25.2772 266.128 24.9427 265.543 24.9427 265.06C24.9427 264.577 25.2772 264.381 25.6952 264.623C26.1133 264.865 26.4477 265.45 26.4477 265.933Z" fill="#FF2C9C"/>
<path d="M33.9826 271.515L32.4312 270.614C32.1989 270.484 32.0131 270.122 32.0131 269.815V268.171C32.0131 267.864 32.1989 267.716 32.4312 267.855L33.9826 268.756C34.2148 268.886 34.4006 269.249 34.4006 269.555V271.199C34.4006 271.506 34.2148 271.655 33.9826 271.515Z" fill="#D4ECFF"/>
<path d="M34.5673 99.0406C34.5673 99.139 34.5673 99.2374 34.5673 99.3412C34.5673 102.871 31.7056 105.732 28.1764 105.732C24.6462 105.732 21.7855 102.87 21.7855 99.3412C21.7855 99.2374 21.7855 99.139 21.7855 99.0406H0.322266V154.78H56.0615V99.0406H34.5673Z" fill="#654FF0"/>
<path d="M13.2701 129.078H16.9642L19.4861 142.51H19.5316L22.5627 129.078H26.0182L28.7559 142.674H28.8097L31.6841 129.078H35.3071L30.5993 148.814H26.9335L24.2185 135.383H24.1474L21.2412 148.814H17.507L13.2701 129.078ZM39.4721 129.078H45.2955L51.0789 148.814H47.2683L46.0105 144.422H39.3764L38.4056 148.814H34.6942L39.4721 129.078ZM41.6889 133.943L40.0777 141.183H45.0924L43.2427 133.943H41.6889Z" fill="white"/>
<defs>
<linearGradient id="paint0_linear_274_25" x1="96.89" y1="170.558" x2="158.358" y2="170.558" gradientUnits="userSpaceOnUse">
<stop stop-color="#483CA6"/>
<stop offset="1" stop-color="#59278F"/>
</linearGradient>
<linearGradient id="paint1_linear_274_25" x1="96.89" y1="170.558" x2="158.358" y2="170.558" gradientUnits="userSpaceOnUse">
<stop stop-color="#483CA6"/>
<stop offset="1" stop-color="#59278F"/>
</linearGradient>
<linearGradient id="paint2_linear_274_25" x1="158.357" y1="170.558" x2="219.826" y2="170.558" gradientUnits="userSpaceOnUse">
<stop stop-color="#440BB5"/>
<stop offset="1" stop-color="#681CFF"/>
</linearGradient>
<linearGradient id="paint3_linear_274_25" x1="158.358" y1="94.7272" x2="158.358" y2="147.553" gradientUnits="userSpaceOnUse">
<stop stop-color="#681CFF"/>
<stop offset="1" stop-color="#FD3F83"/>
</linearGradient>
<linearGradient id="paint4_linear_274_25" x1="158.363" y1="155.27" x2="158.363" y2="-52.1916" gradientUnits="userSpaceOnUse">
<stop stop-color="#681CFF"/>
<stop offset="0.11" stop-color="#5D2CBE"/>
<stop offset="0.22" stop-color="#50289E"/>
<stop offset="0.34" stop-color="#452389"/>
<stop offset="0.46" stop-color="#32166A"/>
<stop offset="0.58" stop-color="#2C1559"/>
<stop offset="0.71" stop-color="#1E0B44"/>
<stop offset="0.85" stop-color="#1F0651"/>
<stop offset="1" stop-color="#160240"/>
</linearGradient>
<linearGradient id="paint5_linear_274_25" x1="196.643" y1="80.3905" x2="196.643" y2="89.7077" gradientUnits="userSpaceOnUse">
<stop stop-color="#681CFF"/>
<stop offset="1" stop-color="#FD3F83"/>
</linearGradient>
<linearGradient id="paint6_linear_274_25" x1="249.475" y1="226.971" x2="316.213" y2="226.971" gradientUnits="userSpaceOnUse">
<stop stop-color="#483CA6"/>
<stop offset="1" stop-color="#59278F"/>
</linearGradient>
<linearGradient id="paint7_linear_274_25" x1="274.873" y1="226.977" x2="316.225" y2="226.977" gradientUnits="userSpaceOnUse">
<stop stop-color="#440BB5"/>
<stop offset="1" stop-color="#681CFF"/>
</linearGradient>
<linearGradient id="paint8_linear_274_25" x1="275.269" y1="198.181" x2="275.269" y2="281.619" gradientUnits="userSpaceOnUse">
<stop stop-color="#681CFF"/>
<stop offset="1" stop-color="#FD3F83"/>
</linearGradient>
<linearGradient id="paint9_linear_274_25" x1="282.853" y1="161.435" x2="282.853" y2="199.711" gradientUnits="userSpaceOnUse">
<stop stop-color="#681CFF"/>
<stop offset="1" stop-color="#FD3F83"/>
</linearGradient>
<linearGradient id="paint10_linear_274_25" x1="67.2393" y1="226.971" x2="0.500885" y2="226.971" gradientUnits="userSpaceOnUse">
<stop stop-color="#440BB5"/>
<stop offset="1" stop-color="#681CFF"/>
</linearGradient>
<linearGradient id="paint11_linear_274_25" x1="41.8412" y1="226.977" x2="0.48885" y2="226.977" gradientUnits="userSpaceOnUse">
<stop stop-color="#483CA6"/>
<stop offset="1" stop-color="#59278F"/>
</linearGradient>
<linearGradient id="paint12_linear_274_25" x1="41.445" y1="198.181" x2="41.445" y2="281.619" gradientUnits="userSpaceOnUse">
<stop stop-color="#681CFF"/>
<stop offset="1" stop-color="#FD3F83"/>
</linearGradient>
<linearGradient id="paint13_linear_274_25" x1="33.861" y1="161.435" x2="33.861" y2="199.71" gradientUnits="userSpaceOnUse">
<stop stop-color="#681CFF"/>
<stop offset="1" stop-color="#FD3F83"/>
</linearGradient>
</defs>
</svg>
