<svg width="132" height="264" viewBox="0 0 132 264" fill="none" xmlns="http://www.w3.org/2000/svg">
<path d="M65.9907 251.061L0.542969 213.346L65.9907 175.632L131.447 213.346L65.9907 251.061Z" fill="url(#paint0_linear_804_1208)"/>
<path d="M131.446 213.46V225.421L65.9902 263.136V251.174L131.446 213.46Z" fill="url(#paint1_linear_804_1208)"/>
<path d="M0.542969 213.46V225.421L65.9907 263.136V251.174L0.542969 213.46Z" fill="url(#paint2_linear_804_1208)"/>
<path d="M47.5824 230.776C47.0127 231.143 46.3678 231.395 45.6477 231.533C44.9275 231.661 44.1835 231.656 43.4157 231.519C42.6479 231.372 41.9077 231.069 41.1951 230.611L39.1999 229.329C38.131 228.641 37.6122 227.921 37.6434 227.167C37.6667 226.408 38.1927 225.697 39.2212 225.034C40.2418 224.376 41.3022 224.045 42.4024 224.039C43.5025 224.023 44.5158 224.313 45.4421 224.908L45.4896 224.939L43.9468 225.933L43.8518 225.872C43.5589 225.684 43.2303 225.554 42.8662 225.483C42.51 225.407 42.142 225.404 41.7621 225.476C41.3743 225.542 40.9945 225.695 40.6226 225.935C40.0688 226.292 39.8039 226.682 39.8279 227.104C39.8518 227.527 40.1568 227.927 40.7427 228.304L42.7854 229.617C43.3634 229.988 43.9888 230.187 44.6615 230.212C45.3264 230.232 45.9436 230.058 46.5133 229.691C47.083 229.324 47.3479 228.96 47.3081 228.598C47.2683 228.236 47.0188 227.908 46.5596 227.613L46.4409 227.536L44.4708 228.806L43.1406 227.951L46.6535 225.687L50.9053 228.42L49.4574 229.353L48.6617 228.842L48.4481 228.979C48.5273 229.102 48.5788 229.252 48.6026 229.43C48.6344 229.603 48.5791 229.802 48.4368 230.026C48.2944 230.251 48.0096 230.5 47.5824 230.776ZM52.4019 227.456L44.0884 222.111L47.6962 219.786C48.2184 219.45 48.7644 219.215 49.3342 219.082C49.904 218.95 50.462 218.921 51.0081 218.997C51.5543 219.074 52.053 219.257 52.5043 219.547L52.6468 219.638C53.1456 219.959 53.4308 220.295 53.5022 220.647C53.5736 220.998 53.5065 221.332 53.3009 221.648L53.5147 221.785C53.847 221.591 54.2031 221.505 54.583 221.525C54.955 221.54 55.3073 221.654 55.6399 221.868L58.3595 223.616L56.793 224.626L54.299 223.023C54.1089 222.9 53.9031 222.834 53.6815 222.824C53.4678 222.809 53.2462 222.875 53.0168 223.023L50.8331 224.431L53.9685 226.446L52.4019 227.456ZM49.4079 223.514L51.283 222.306C51.6549 222.066 51.8447 221.817 51.8525 221.557C51.8602 221.287 51.6979 221.045 51.3653 220.831L51.2466 220.755C50.914 220.541 50.5459 220.437 50.1423 220.442C49.7307 220.442 49.335 220.565 48.9553 220.81L47.0802 222.018L49.4079 223.514ZM59.3308 222.99L53.201 216.239L55.9306 214.48L66.4277 218.417L64.8137 219.457L62.5337 218.572L59.5668 220.484L60.9448 221.95L59.3308 222.99ZM58.4858 219.315L60.7169 217.878L55.6583 215.924L55.4447 216.062L58.4858 219.315ZM67.4221 217.776L59.1086 212.432L62.0875 210.512L70.9817 214.106L71.1953 213.968L63.9507 209.311L65.4935 208.317L73.807 213.661L70.8282 215.581L61.9339 211.987L61.7203 212.125L68.9649 216.782L67.4221 217.776ZM75.1353 212.805L73.7576 211.92L74.8494 211.216L69.2913 207.643L68.1994 208.347L66.8218 207.461L70.2397 205.258C71.3553 204.539 72.4869 204.177 73.6345 204.171C74.7822 204.155 75.9142 204.506 77.0305 205.224L78.5982 206.232C79.7146 206.949 80.2651 207.68 80.2497 208.424C80.2343 209.158 79.6688 209.884 78.5532 210.603L75.1353 212.805ZM76.3685 210.176L77.1518 209.671C77.7847 209.263 78.0813 208.858 78.0415 208.456C78.0017 208.053 77.6809 207.659 77.0792 207.272L75.4165 206.203C74.8068 205.811 74.1933 205.605 73.576 205.585C72.9507 205.56 72.3216 205.751 71.6886 206.159L70.9053 206.664L76.3685 210.176ZM83.2768 207.559L74.9633 202.214L78.3812 200.012C78.9034 199.675 79.4692 199.448 80.0785 199.331C80.6879 199.203 81.2934 199.19 81.895 199.291C82.5044 199.388 83.0705 199.604 83.593 199.94L83.7593 200.047C84.2739 200.378 84.6066 200.744 84.7572 201.147C84.9078 201.539 84.8882 201.934 84.6985 202.331C84.5087 202.718 84.1607 203.075 83.6543 203.401L81.803 204.595L84.8433 206.549L83.2768 207.559ZM80.3778 203.678L82.0749 202.585C82.4467 202.345 82.6445 202.085 82.6681 201.805C82.6916 201.525 82.5253 201.27 82.169 201.041L82.0502 200.965C81.6939 200.736 81.2981 200.629 80.8628 200.644C80.4275 200.66 80.024 200.788 79.6521 201.027L77.955 202.121L80.3778 203.678ZM89.2321 203.721L83.1023 196.969L85.8319 195.21L96.329 199.147L94.715 200.187L92.4351 199.302L89.4681 201.214L90.8461 202.681L89.2321 203.721ZM88.3871 200.046L90.6183 198.608L85.5596 196.654L85.346 196.792L88.3871 200.046Z" fill="white"/>
<path d="M65.9907 189.535L0.542969 151.821L65.9907 114.106L131.447 151.821L65.9907 189.535Z" fill="url(#paint3_linear_804_1208)"/>
<path d="M131.446 151.82V163.782L65.9902 201.496V189.535L131.446 151.82Z" fill="url(#paint4_linear_804_1208)"/>
<path d="M0.542969 151.82V163.782L65.9907 201.496V189.535L0.542969 151.82Z" fill="url(#paint5_linear_804_1208)"/>
<path d="M52.4057 167.711L50.5688 166.53L52.0246 165.592L44.6137 160.828L43.1579 161.766L41.3211 160.585L47.0176 156.914C47.6928 156.479 48.3944 156.176 49.1224 156.006C49.8505 155.822 50.5628 155.778 51.2593 155.872C51.9559 155.954 52.5944 156.181 53.1751 156.554L53.3334 156.656C53.8401 156.982 54.1622 157.311 54.2996 157.644C54.4264 157.97 54.4477 158.275 54.3634 158.561C54.2791 158.832 54.1579 159.067 53.9997 159.264L54.2848 159.447C54.5802 159.338 54.9548 159.253 55.4085 159.192C55.8517 159.123 56.3319 159.133 56.849 159.221C57.3767 159.303 57.9045 159.513 58.4323 159.852L58.5907 159.954C59.2029 160.348 59.5884 160.779 59.7469 161.247C59.8949 161.709 59.8319 162.178 59.5578 162.653C59.2942 163.122 58.8301 163.571 58.1655 163.999L52.4057 167.711ZM54.05 164.205L56.0121 162.941C56.4657 162.648 56.7188 162.343 56.7714 162.023C56.8346 161.697 56.6603 161.402 56.2486 161.137L56.0902 161.035C55.6785 160.771 55.2246 160.656 54.7287 160.69C54.2327 160.724 53.7526 160.891 53.2885 161.19L51.3263 162.454L54.05 164.205ZM49.4261 161.233L51.3566 159.989C51.7891 159.71 52.0317 159.411 52.0843 159.092C52.1474 158.766 51.9837 158.477 51.5931 158.226L51.4347 158.124C51.0335 157.866 50.5903 157.758 50.1048 157.799C49.6089 157.833 49.1394 157.993 48.6963 158.278L46.7658 159.523L49.4261 161.233ZM62.3779 161.285L54.2048 152.282L57.8443 149.937L71.8405 155.186L69.6884 156.573L66.6485 155.393L62.6926 157.942L64.5299 159.898L62.3779 161.285ZM61.2512 156.384L64.2261 154.467L57.4813 151.863L57.1964 152.046L61.2512 156.384ZM72.8498 154.536L71.013 153.355L72.4687 152.417L65.0579 147.653L63.6021 148.591L61.7652 147.41L67.4618 143.739C68.1369 143.304 68.8385 143.001 69.5666 142.831C70.2946 142.647 71.0069 142.603 71.7035 142.697C72.4 142.778 73.0386 143.006 73.6192 143.379L73.7776 143.481C74.2843 143.806 74.6064 144.136 74.7437 144.468C74.8705 144.794 74.8918 145.1 74.8076 145.385C74.7233 145.657 74.6021 145.892 74.4439 146.089L74.7289 146.272C75.0243 146.163 75.3989 146.078 75.8527 146.017C76.2958 145.948 76.776 145.958 77.2932 146.046C77.8209 146.128 78.3486 146.338 78.8765 146.677L79.0348 146.779C79.6471 147.173 80.0325 147.604 80.1911 148.072C80.3391 148.534 80.276 149.003 80.0019 149.478C79.7384 149.947 79.2743 150.396 78.6097 150.824L72.8498 154.536ZM74.4941 151.03L76.4563 149.766C76.9099 149.473 77.163 149.167 77.2156 148.848C77.2787 148.522 77.1044 148.227 76.6927 147.962L76.5344 147.86C76.1226 147.596 75.6688 147.48 75.1728 147.515C74.6769 147.549 74.1968 147.716 73.7326 148.015L71.7705 149.279L74.4941 151.03ZM69.8703 148.058L71.8008 146.814C72.2333 146.535 72.4758 146.236 72.5284 145.917C72.5915 145.59 72.4278 145.302 72.0372 145.051L71.8789 144.949C71.4777 144.691 71.0344 144.583 70.549 144.624C70.053 144.658 69.5835 144.818 69.1405 145.103L67.21 146.347L69.8703 148.058ZM83.6743 147.56L72.5896 140.434L79.7103 135.845L81.6106 137.067L76.5786 140.31L79.2231 142.01L83.812 139.053L85.7122 140.274L81.1233 143.231L83.8628 144.993L88.9897 141.689L90.8899 142.91L83.6743 147.56Z" fill="white"/>
<path opacity="0.4" d="M65.9907 128.011L0.542969 90.2961L65.9907 52.5815L131.447 90.2961L65.9907 128.011Z" fill="url(#paint6_linear_804_1208)"/>
<mask id="mask0_804_1208" style="mask-type:alpha" maskUnits="userSpaceOnUse" x="0" y="52" width="132" height="77">
<path d="M65.9907 128.011L0.542969 90.2961L65.9907 52.5815L131.447 90.2961L65.9907 128.011Z" fill="url(#paint7_linear_804_1208)"/>
</mask>
<g mask="url(#mask0_804_1208)">
<g filter="url(#filter0_d_804_1208)">
<path d="M15.2344 78.5L86.4612 119.84" stroke="url(#paint8_linear_804_1208)" stroke-width="3.1375" stroke-linejoin="round"/>
<path d="M30.377 67.8696L101.604 109.21" stroke="url(#paint9_linear_804_1208)" stroke-width="3.1375" stroke-linejoin="round"/>
<path d="M50.8496 59.2822L122.076 100.622" stroke="url(#paint10_linear_804_1208)" stroke-width="3.1375" stroke-linejoin="round"/>
<path d="M13.6602 100.623L86.9558 58.8115" stroke="url(#paint11_linear_804_1208)" stroke-width="3.1375" stroke-linejoin="round"/>
<path d="M25.8867 113.173L99.1823 71.3618" stroke="url(#paint12_linear_804_1208)" stroke-width="3.1375" stroke-linejoin="round"/>
<path d="M48.5 119.841L121.796 78.0293" stroke="url(#paint13_linear_804_1208)" stroke-width="3.1375" stroke-linejoin="round"/>
</g>
</g>
<path d="M131.446 90.2959V102.257L65.9902 139.972V128.01L131.446 90.2959Z" fill="url(#paint14_linear_804_1208)"/>
<path d="M0.542969 90.2959V102.257L65.9907 139.972V128.01L0.542969 90.2959Z" fill="url(#paint15_linear_804_1208)"/>
<path d="M38.3645 51.5981V35.1263H44.2708L47.5417 49.4803H47.9652V35.1263H51.0243V51.5981H45.118L41.8471 37.2441H41.4235V51.5981H38.3645ZM54.1286 51.5981V35.1263H60.9056C61.941 35.1263 62.8508 35.338 63.6352 35.7616C64.4353 36.1695 65.0549 36.7499 65.4942 37.5029C65.9491 38.2559 66.1766 39.1501 66.1766 40.1855V40.5149C66.1766 41.5346 65.9413 42.4288 65.4706 43.1975C65.0157 43.9505 64.3882 44.5388 63.5881 44.9623C62.8038 45.3702 61.9096 45.5741 60.9056 45.5741H57.2347V51.5981H54.1286ZM57.2347 42.7504H60.5997C61.337 42.7504 61.9331 42.5465 62.3881 42.1386C62.843 41.7307 63.0705 41.1738 63.0705 40.4679V40.2326C63.0705 39.5266 62.843 38.9697 62.3881 38.5618C61.9331 38.154 61.337 37.95 60.5997 37.95H57.2347V42.7504ZM73.7018 51.9276C72.5409 51.9276 71.4977 51.6923 70.5721 51.2216C69.6466 50.751 68.9171 50.0686 68.3837 49.1744C67.8504 48.2802 67.5837 47.2056 67.5837 45.9506V45.5741C67.5837 44.3191 67.8504 43.2446 68.3837 42.3504C68.9171 41.4562 69.6466 40.7738 70.5721 40.3031C71.4977 39.8325 72.5409 39.5972 73.7018 39.5972C74.8627 39.5972 75.9059 39.8325 76.8315 40.3031C77.757 40.7738 78.4865 41.4562 79.0199 42.3504C79.5532 43.2446 79.8199 44.3191 79.8199 45.5741V45.9506C79.8199 47.2056 79.5532 48.2802 79.0199 49.1744C78.4865 50.0686 77.757 50.751 76.8315 51.2216C75.9059 51.6923 74.8627 51.9276 73.7018 51.9276ZM73.7018 49.2921C74.6117 49.2921 75.3647 49.0019 75.9608 48.4214C76.5569 47.8253 76.855 46.9782 76.855 45.8801V45.6447C76.855 44.5466 76.5569 43.7073 75.9608 43.1269C75.3804 42.5308 74.6274 42.2327 73.7018 42.2327C72.7919 42.2327 72.0389 42.5308 71.4428 43.1269C70.8467 43.7073 70.5486 44.5466 70.5486 45.6447V45.8801C70.5486 46.9782 70.8467 47.8253 71.4428 48.4214C72.0389 49.0019 72.7919 49.2921 73.7018 49.2921ZM88.1807 51.9276C86.91 51.9276 85.7883 51.7001 84.8157 51.2452C83.8431 50.7902 83.0823 50.1392 82.5332 49.2921C81.9841 48.445 81.7096 47.4253 81.7096 46.233V45.5741H84.7687V46.233C84.7687 47.2213 85.0746 47.9665 85.6864 48.4685C86.2982 48.9548 87.1296 49.198 88.1807 49.198C89.2474 49.198 90.0397 48.9862 90.5573 48.5626C91.0907 48.1391 91.3574 47.5978 91.3574 46.939C91.3574 46.484 91.2241 46.1154 90.9574 45.833C90.7064 45.5506 90.3299 45.3231 89.8279 45.1506C89.3416 44.9623 88.7454 44.7898 88.0395 44.6329L87.4983 44.5152C86.3688 44.2642 85.3962 43.9505 84.5804 43.574C83.7803 43.1818 83.1607 42.672 82.7214 42.0445C82.2979 41.417 82.0861 40.6012 82.0861 39.5972C82.0861 38.5932 82.3214 37.7382 82.792 37.0323C83.2783 36.3107 83.9529 35.7616 84.8157 35.3851C85.6942 34.9929 86.7218 34.7968 87.8983 34.7968C89.0749 34.7968 90.1181 35.0008 91.028 35.4086C91.9535 35.8008 92.6752 36.397 93.1928 37.197C93.7262 37.9814 93.9929 38.9697 93.9929 40.162V40.8679H90.9338V40.162C90.9338 39.5345 90.8083 39.0325 90.5573 38.656C90.322 38.2638 89.9769 37.9814 89.522 37.8088C89.067 37.6206 88.5258 37.5265 87.8983 37.5265C86.9571 37.5265 86.259 37.7069 85.804 38.0677C85.3648 38.4128 85.1452 38.8913 85.1452 39.5031C85.1452 39.911 85.2471 40.2561 85.4511 40.5385C85.6707 40.8208 85.9923 41.0561 86.4158 41.2444C86.8394 41.4326 87.3806 41.5974 88.0395 41.7386L88.5807 41.8562C89.7573 42.1072 90.777 42.4288 91.6398 42.821C92.5183 43.2132 93.2007 43.7309 93.687 44.3741C94.1733 45.0172 94.4165 45.8408 94.4165 46.8448C94.4165 47.8488 94.1576 48.7352 93.6399 49.5039C93.1379 50.2569 92.4163 50.853 91.4751 51.2922C90.5495 51.7158 89.4514 51.9276 88.1807 51.9276Z" fill="white"/>
<path style="mix-blend-mode:lighten" d="M131.631 213.922V0.936035H0.787109V213.922L66.0438 251.046L131.631 213.922Z" fill="url(#paint16_linear_804_1208)"/>
<defs>
<filter id="filter0_d_804_1208" x="9.74531" y="57.4487" width="116.255" height="70.0294" filterUnits="userSpaceOnUse" color-interpolation-filters="sRGB">
<feFlood flood-opacity="0" result="BackgroundImageFix"/>
<feColorMatrix in="SourceAlpha" type="matrix" values="0 0 0 0 0 0 0 0 0 0 0 0 0 0 0 0 0 0 127 0" result="hardAlpha"/>
<feOffset dy="3.1375"/>
<feGaussianBlur stdDeviation="1.56875"/>
<feComposite in2="hardAlpha" operator="out"/>
<feColorMatrix type="matrix" values="0 0 0 0 0 0 0 0 0 0 0 0 0 0 0 0 0 0 0.25 0"/>
<feBlend mode="normal" in2="BackgroundImageFix" result="effect1_dropShadow_804_1208"/>
<feBlend mode="normal" in="SourceGraphic" in2="effect1_dropShadow_804_1208" result="shape"/>
</filter>
<linearGradient id="paint0_linear_804_1208" x1="65.9948" y1="175.632" x2="65.9948" y2="251.061" gradientUnits="userSpaceOnUse">
<stop stop-color="#681CFF"/>
<stop offset="1" stop-color="#FD3F83"/>
</linearGradient>
<linearGradient id="paint1_linear_804_1208" x1="65.9902" y1="243.004" x2="131.446" y2="243.004" gradientUnits="userSpaceOnUse">
<stop stop-color="#440BB5"/>
<stop offset="1" stop-color="#681CFF"/>
</linearGradient>
<linearGradient id="paint2_linear_804_1208" x1="0.542969" y1="243.004" x2="65.9907" y2="243.004" gradientUnits="userSpaceOnUse">
<stop stop-color="#681CFF"/>
<stop offset="1" stop-color="#681CFF"/>
</linearGradient>
<linearGradient id="paint3_linear_804_1208" x1="65.9948" y1="114.106" x2="65.9948" y2="189.535" gradientUnits="userSpaceOnUse">
<stop stop-color="#681CFF"/>
<stop offset="1" stop-color="#FD3F83"/>
</linearGradient>
<linearGradient id="paint4_linear_804_1208" x1="65.9902" y1="181.364" x2="131.446" y2="181.364" gradientUnits="userSpaceOnUse">
<stop stop-color="#440BB5"/>
<stop offset="1" stop-color="#681CFF"/>
</linearGradient>
<linearGradient id="paint5_linear_804_1208" x1="0.542969" y1="181.364" x2="65.9907" y2="181.364" gradientUnits="userSpaceOnUse">
<stop stop-color="#681CFF"/>
<stop offset="1" stop-color="#681CFF"/>
</linearGradient>
<linearGradient id="paint6_linear_804_1208" x1="0.542969" y1="90.2961" x2="131.447" y2="90.2961" gradientUnits="userSpaceOnUse">
<stop stop-color="#440BB5"/>
<stop offset="1" stop-color="#681CFF"/>
</linearGradient>
<linearGradient id="paint7_linear_804_1208" x1="0.542969" y1="90.2961" x2="131.447" y2="90.2961" gradientUnits="userSpaceOnUse">
<stop stop-color="#681CFF"/>
<stop offset="1" stop-color="#681CFF"/>
</linearGradient>
<linearGradient id="paint8_linear_804_1208" x1="92.1262" y1="123.369" x2="-67.236" y2="25.0664" gradientUnits="userSpaceOnUse">
<stop stop-color="#681CFF"/>
<stop offset="1" stop-color="#FD3F83"/>
</linearGradient>
<linearGradient id="paint9_linear_804_1208" x1="107.269" y1="112.738" x2="-52.0934" y2="14.436" gradientUnits="userSpaceOnUse">
<stop stop-color="#681CFF"/>
<stop offset="1" stop-color="#FD3F83"/>
</linearGradient>
<linearGradient id="paint10_linear_804_1208" x1="127.741" y1="104.151" x2="-31.6207" y2="5.84858" gradientUnits="userSpaceOnUse">
<stop stop-color="#681CFF"/>
<stop offset="1" stop-color="#FD3F83"/>
</linearGradient>
<linearGradient id="paint11_linear_804_1208" x1="113.453" y1="45.1946" x2="15.7733" y2="100.623" gradientUnits="userSpaceOnUse">
<stop stop-color="#681CFF"/>
<stop offset="1" stop-color="#FD3F83"/>
</linearGradient>
<linearGradient id="paint12_linear_804_1208" x1="125.679" y1="57.7449" x2="27.9999" y2="113.173" gradientUnits="userSpaceOnUse">
<stop stop-color="#681CFF"/>
<stop offset="1" stop-color="#FD3F83"/>
</linearGradient>
<linearGradient id="paint13_linear_804_1208" x1="148.293" y1="64.4123" x2="50.6132" y2="119.841" gradientUnits="userSpaceOnUse">
<stop stop-color="#681CFF"/>
<stop offset="1" stop-color="#FD3F83"/>
</linearGradient>
<linearGradient id="paint14_linear_804_1208" x1="65.9902" y1="119.84" x2="131.446" y2="119.84" gradientUnits="userSpaceOnUse">
<stop stop-color="#440BB5"/>
<stop offset="1" stop-color="#681CFF"/>
</linearGradient>
<linearGradient id="paint15_linear_804_1208" x1="0.542969" y1="119.84" x2="65.9907" y2="119.84" gradientUnits="userSpaceOnUse">
<stop stop-color="#681CFF"/>
<stop offset="1" stop-color="#681CFF"/>
</linearGradient>
<linearGradient id="paint16_linear_804_1208" x1="65.9726" y1="250.886" x2="65.9726" y2="30.0793" gradientUnits="userSpaceOnUse">
<stop stop-color="#681CFF"/>
<stop offset="0.11" stop-color="#5D2CBE"/>
<stop offset="0.22" stop-color="#50289E"/>
<stop offset="0.40746" stop-color="#452389"/>
<stop offset="0.73775" stop-color="#1E0B44"/>
<stop offset="1" stop-color="#160240"/>
</linearGradient>
</defs>
</svg>
