<svg width="236" height="89" viewBox="0 0 236 89" fill="none" xmlns="http://www.w3.org/2000/svg">
<path d="M154.095 59.2477C153.056 59.2477 152.084 59.4652 151.179 59.9013C150.274 60.3041 149.486 60.8585 148.815 61.5628C148.145 62.2681 147.609 63.0897 147.207 64.0287C146.838 64.9353 146.654 65.8915 146.654 66.8983C146.654 67.7037 146.805 68.4758 147.107 69.2134C147.408 69.9187 147.81 70.5389 148.314 71.0762C148.849 71.6135 149.47 72.0324 150.173 72.334C150.877 72.6699 151.632 72.8379 152.435 72.8379C153.408 72.8379 154.329 72.6203 155.202 72.1832C156.074 71.7805 156.828 71.227 157.465 70.5217C158.134 69.7841 158.653 68.9453 159.022 68.0063C159.425 67.0663 159.626 66.0767 159.626 65.0365C159.626 63.3922 159.106 62.0161 158.067 60.9091C157.062 59.8012 155.737 59.2477 154.095 59.2477Z" fill="url(#paint0_linear_171_17398)"/>
<path d="M101.248 55.0195C101.65 54.0795 102.137 53.1061 102.706 52.1003C103.277 51.0592 103.914 50.02 104.617 48.9798C105.355 47.9386 106.176 47.0158 107.081 46.2104C108.019 45.3715 109.042 44.7007 110.148 44.1978C111.254 43.6949 112.444 43.4429 113.718 43.4429H114.171C114.304 43.4429 114.454 43.4591 114.621 43.4925C115.025 43.5603 115.376 43.7445 115.678 44.047C116.013 44.3485 116.181 44.7513 116.181 45.2552C116.181 45.8582 115.896 46.5807 115.327 47.4185C114.757 48.225 113.718 49.0962 112.21 50.0362C111.874 50.2375 111.288 50.6241 110.45 51.1937C109.646 51.7644 108.689 52.4019 107.584 53.1061C106.478 53.8114 105.287 54.55 104.013 55.3211C102.774 56.0931 101.567 56.7812 100.394 57.3853C100.596 56.7478 100.881 55.9585 101.248 55.0195ZM67.3113 52.1003C67.8803 51.0592 68.5171 50.02 69.2215 48.9798C69.9594 47.9386 70.7801 47.0158 71.6857 46.2104C72.6236 45.3715 73.6455 44.7007 74.7523 44.1978C75.859 43.6949 77.0486 43.4429 78.3221 43.4429H78.7749C78.9084 43.4429 79.059 43.4591 79.2267 43.4925C79.629 43.5603 79.9807 43.7445 80.2829 44.047C80.6185 44.3485 80.7863 44.7513 80.7863 45.2552C80.7863 45.8582 80.5013 46.5807 79.9312 47.4185C79.3612 48.225 78.3221 49.0962 76.8131 50.0362C76.4786 50.2375 75.8923 50.6241 75.0534 51.1937C74.2499 51.7644 73.2948 52.4019 72.188 53.1061C71.0813 53.8114 69.8927 54.55 68.6181 55.3211C67.471 56.0354 66.3551 56.6699 65.2645 57.2406C65.217 57.1748 65.1675 57.11 65.1119 57.0503C65.304 56.4726 65.5425 55.8118 65.8528 55.0195C66.2551 54.0795 66.7412 53.1061 67.3113 52.1003ZM173.448 19.2829C173.046 18.1416 172.509 17.2015 171.839 16.4639C171.202 15.7253 170.448 15.1718 169.577 14.8024C168.739 14.4341 167.85 14.249 166.911 14.249C164.901 14.249 162.789 14.6011 160.577 15.3053C158.398 16.0106 156.152 17.2693 153.84 19.0806C151.527 20.8928 149.164 23.3597 146.75 26.4802C144.37 29.6008 141.991 33.5602 139.611 38.3594H133.678C132.07 38.3594 130.846 38.7449 130.008 39.5169C129.17 40.2546 128.75 41.0266 128.75 41.8321C128.75 42.6031 129.086 43.275 129.756 43.8457C130.427 44.4163 131.684 44.7007 133.527 44.7007H136.192L130.634 56.4918C130.296 56.6689 129.806 56.9481 129.153 57.3347C128.281 57.872 127.175 58.5094 125.834 59.2471C124.528 59.9857 123.053 60.774 121.41 61.6128C119.768 62.4182 118.074 63.1741 116.333 63.8783C114.621 64.5826 112.88 65.1704 111.103 65.6399C109.361 66.0761 107.718 66.2946 106.176 66.2946C104.734 66.2946 103.578 66.0255 102.706 65.4892C101.836 64.9185 101.316 64.1465 101.148 63.1741C105.707 61.4954 109.494 59.835 112.511 58.1907C115.561 56.513 117.991 54.885 119.801 53.3085C121.612 51.6976 122.885 50.1202 123.622 48.5771C124.36 47.033 124.729 45.5567 124.729 44.1472C124.729 41.7643 124.041 39.9025 122.666 38.5597C121.293 37.218 119.215 36.5472 116.432 36.5472C113.785 36.5472 111.288 36.9327 108.94 37.7047C106.629 38.4768 104.5 39.4997 102.556 40.7747C100.612 42.0506 98.852 43.5269 97.2773 45.2046C95.7349 46.8488 94.4281 48.5437 93.3547 50.2881C92.2823 52.0326 91.4616 53.778 90.8915 55.5234C90.4246 56.9228 90.1598 58.2291 90.0749 59.4494C88.858 60.1294 87.5096 60.8498 86.0148 61.6128C84.3723 62.4182 82.6794 63.1741 80.9359 63.8783C79.2267 64.5826 77.4832 65.1704 75.7074 65.6399C73.9649 66.0761 72.3225 66.2946 70.7801 66.2946C69.3388 66.2946 68.1825 66.0255 67.3113 65.4892C66.44 64.9185 65.9205 64.1465 65.7527 63.1741C70.3111 61.4954 74.0993 59.835 77.1153 58.1907C80.1657 56.513 82.5955 54.885 84.4057 53.3085C86.2159 51.6976 87.4894 50.1202 88.2263 48.5771C88.9641 47.033 89.333 45.5567 89.333 44.1472C89.333 41.7643 88.6457 39.9025 87.2711 38.5597C85.8975 37.218 83.8195 36.5472 81.037 36.5472C78.3888 36.5472 75.8923 36.9327 73.5454 37.7047C71.2329 38.4768 69.1043 39.4997 67.1597 40.7747C65.217 42.0506 63.4563 43.5269 61.8816 45.2046C60.3393 46.8488 59.0314 48.5437 57.96 50.2881C56.8866 52.0326 56.0659 53.778 55.4959 55.5234C54.9258 57.2335 54.6418 58.811 54.6418 60.2539C54.6418 61.1463 54.7105 62.0185 54.8389 62.8735C53.8544 63.4786 52.7457 64.0503 51.4833 64.5826C49.572 65.388 47.3939 65.7907 44.9469 65.7907H44.2434C44.0079 65.7907 43.7563 65.7735 43.4894 65.7401C42.1472 65.64 40.8747 64.9691 39.6669 63.7265C38.4611 62.485 37.3543 60.9925 36.3486 59.2471C35.3773 57.4692 34.5394 55.6064 33.8349 53.6606C33.1648 51.6804 32.6787 49.9016 32.3765 48.3251C34.5222 47.9558 36.7347 47.3517 39.0139 46.5129C41.3265 45.6741 43.5733 44.6501 45.7514 43.4429C47.9296 42.2348 49.9753 40.8587 51.8845 39.3146C53.8292 37.7381 55.5221 36.0271 56.9634 34.1814C58.4037 32.3024 59.5438 30.3061 60.3817 28.1913C61.254 26.0441 61.6886 23.7958 61.6886 21.4463C61.6886 17.9574 60.9679 14.9036 59.5277 12.286C58.1197 9.6683 56.2084 7.50496 53.7958 5.79291C51.3822 4.04746 48.5997 2.73914 45.4492 1.86692C42.3321 0.994702 39.0645 0.558594 35.6452 0.558594C32.1592 0.558594 28.8581 0.92792 25.741 1.66556C22.6229 2.36981 19.7404 3.32702 17.0922 4.53416C14.4775 5.70892 12.1144 7.08504 10.004 8.66252C7.89159 10.2056 6.09856 11.8165 4.62289 13.4941C3.18261 15.1718 2.05969 16.8494 1.25515 18.5271C0.484975 20.2047 0.098877 21.766 0.098877 23.2089C0.098877 24.752 0.518329 25.9601 1.35521 26.8324C2.1931 27.6712 3.45045 28.0911 5.12624 28.0911C6.3664 28.0911 7.40543 27.8058 8.24332 27.2351C9.08223 26.6644 9.83623 25.9268 10.5063 25.0211C11.2098 24.1145 11.8809 23.0743 12.5177 21.8996C13.1544 20.7248 13.8579 19.5177 14.6291 18.2761C15.4336 17.0336 16.3716 15.8264 17.445 14.6517C18.5507 13.4769 19.892 12.4377 21.4667 11.5311C23.0758 10.6245 24.9688 9.88686 27.149 9.31618C29.3605 8.74549 31.9924 8.46015 35.0418 8.46015C37.7576 8.46015 40.0863 8.77889 42.0299 9.41737C44.0079 10.0548 45.617 10.9098 46.8572 11.9844C48.1307 13.058 49.0525 14.3157 49.6225 15.7586C50.2259 17.2015 50.5271 18.7284 50.5271 20.3393C50.5271 22.5876 49.9581 24.9028 48.818 27.2857C47.7112 29.6676 46.186 31.8319 44.2434 33.7787C42.2988 35.7245 40.0196 37.3354 37.4048 38.6103C34.8234 39.8519 32.0763 40.4731 29.1593 40.4731H28.4548C28.2537 40.4731 28.0536 40.4559 27.8525 40.4226C28.7237 38.5769 29.5616 36.7819 30.3661 35.0365C31.1707 33.2586 31.8741 31.6306 32.4775 30.1543C33.0809 28.678 33.5671 27.3697 33.935 26.2283C34.3049 25.0869 34.4889 24.1985 34.4889 23.561C34.4889 22.9236 34.3888 22.4035 34.1867 22.0008C33.9855 21.5647 33.7521 21.2459 33.4832 21.0436C33.2144 20.8088 32.9142 20.658 32.5786 20.5913C32.2431 20.4901 31.958 20.4405 31.7235 20.4405C30.8523 20.4405 29.8628 20.9434 28.7571 21.9502C27.6847 22.9236 26.5284 24.2319 25.2882 25.8762C24.0804 27.5204 22.8241 29.4166 21.5172 31.5638C20.2427 33.6775 18.9702 35.8763 17.6957 38.157L2.86423 65.3374C2.49531 66.0427 2.21029 66.7975 2.00915 67.6029C1.80802 68.4084 1.70796 69.1966 1.70796 69.9687C1.70796 70.506 1.77466 71.0756 1.90909 71.6797C2.07687 72.2838 2.34471 72.8373 2.71363 73.3412C3.08154 73.844 3.60206 74.264 4.27217 74.5989C4.94228 74.9348 5.81353 75.1028 6.88693 75.1028C8.1938 75.1028 9.40061 74.6323 10.5063 73.6933C11.6121 72.7533 12.6521 71.5289 13.6234 70.0192C14.5957 68.4752 15.4842 66.7469 16.2877 64.8345C17.0922 62.8877 17.8634 60.9247 18.6003 58.9455C19.3381 56.9653 20.0264 55.0529 20.6631 53.2073C21.2989 51.3283 21.9195 49.7012 22.5219 48.3251C23.5953 51.815 24.8193 55.1369 26.1928 58.2909C27.5674 61.4114 29.0916 64.1465 30.7684 66.495C32.4442 68.8445 34.3049 70.7063 36.3486 72.0824C38.3933 73.4585 40.623 74.1466 43.0356 74.1466C45.9849 74.1466 49.103 73.4079 52.3879 71.9316C53.9777 71.2082 55.5838 70.2783 57.205 69.1541C57.4405 69.5052 57.6922 69.8442 57.96 70.17C59.0658 71.4783 60.3898 72.5185 61.9322 73.2906C63.5069 74.0626 65.2999 74.4481 67.3113 74.4481C69.6572 74.4481 72.0374 74.1294 74.45 73.4919C76.8637 72.8878 79.1772 72.1158 81.3897 71.1768C83.6345 70.2368 85.7459 69.2138 87.7239 68.1058C88.9358 67.4188 90.0446 66.7591 91.0745 66.1196C91.6324 67.6313 92.3854 68.9872 93.3547 70.17C94.4614 71.4783 95.7855 72.5185 97.3269 73.2906C98.9026 74.0626 100.696 74.4481 102.706 74.4481C105.053 74.4481 107.433 74.1294 109.847 73.4919C112.259 72.8878 114.573 72.1158 116.784 71.1768C119.03 70.2368 121.142 69.2138 123.12 68.1058C124.122 67.5372 125.062 66.9857 125.94 66.4504L118.444 82.3507C118.074 83.1227 117.79 83.7936 117.589 84.3633C117.388 84.9684 117.288 85.4885 117.288 85.9246C117.288 86.7968 117.606 87.4342 118.242 87.837C118.88 88.2397 119.6 88.441 120.405 88.441C120.975 88.441 121.594 88.3065 122.265 88.0383C122.936 87.8036 123.589 87.4514 124.225 86.9809C124.863 86.5114 125.449 85.9418 125.985 85.2699C126.522 84.6324 126.975 83.9282 127.342 83.1561C127.879 82.0826 128.584 80.6225 129.455 78.7768C130.326 76.9646 131.298 74.9348 132.371 72.6865C133.443 70.4048 134.566 68.0057 135.74 65.4892C136.946 62.9383 138.136 60.4218 139.309 57.9387C140.516 55.4557 141.655 53.0899 142.728 50.8416C143.834 48.5599 144.823 46.5635 145.694 44.8524H154.443C155.918 44.818 157.426 44.7847 158.967 44.7513C160.543 44.7179 162.202 44.6673 163.945 44.6005C164.851 44.5327 165.587 44.3991 166.157 44.1978C166.727 43.963 167.163 43.6949 167.464 43.3923C167.8 43.0564 168.034 42.7043 168.169 42.335C168.303 41.9666 168.37 41.5973 168.37 41.228C168.37 40.4893 168.169 39.9359 167.767 39.5675C167.398 39.1648 166.862 38.8785 166.157 38.7115C165.487 38.5435 164.7 38.4434 163.794 38.409C162.89 38.3756 161.916 38.3594 160.878 38.3594H149.164C150.001 36.3458 151.074 34.3828 152.381 32.4694C153.689 30.5236 155.046 28.7954 156.453 27.2857C157.895 25.776 159.303 24.5678 160.677 23.6612C162.084 22.7556 163.308 22.3023 164.347 22.3023C165.219 22.3023 165.906 22.6038 166.409 23.2089C166.945 23.813 167.214 24.8188 167.214 26.2283C167.214 26.5976 167.179 26.9669 167.113 27.3363C167.079 27.7046 167.063 28.1073 167.063 28.5434C167.063 29.2153 167.347 29.7182 167.917 30.0541C168.486 30.3556 169.107 30.5064 169.778 30.5064C170.046 30.5064 170.364 30.473 170.733 30.4062C171.102 30.3061 171.47 30.1543 171.839 29.9529C172.208 29.7516 172.543 29.5006 172.844 29.1981C173.147 28.8621 173.348 28.4594 173.448 27.9899C173.85 26.2455 174.051 24.6518 174.051 23.2089C174.051 21.6982 173.85 20.3899 173.448 19.2829Z" fill="#681CFF"/>
<path d="M193.368 31.9387C196.218 31.9387 198.68 32.4761 200.755 33.551C202.855 34.6009 204.454 36.1133 205.554 38.0881C206.679 40.0629 207.242 42.3877 207.242 45.0624C207.242 47.7372 206.679 50.062 205.554 52.0368C204.454 53.9866 202.855 55.4865 200.755 56.5364C198.68 57.5613 196.218 58.0737 193.368 58.0737H185.231V31.9387H193.368ZM193.368 55.2615C196.743 55.2615 199.317 54.3741 201.092 52.5992C202.867 50.7994 203.755 48.2871 203.755 45.0624C203.755 41.8127 202.855 39.2755 201.055 37.4507C199.28 35.6258 196.718 34.7134 193.368 34.7134H188.643V55.2615H193.368Z" fill="url(#paint1_linear_171_17398)"/>
<path d="M210.468 44.9875C210.468 42.4377 211.043 40.1504 212.192 38.1256C213.342 36.0758 214.905 34.4759 216.879 33.326C218.879 32.1761 221.092 31.6012 223.516 31.6012C226.366 31.6012 228.853 32.2886 230.978 33.6635C233.103 35.0384 234.653 36.9882 235.628 39.513H231.541C230.816 37.9381 229.766 36.7257 228.391 35.8758C227.041 35.0259 225.416 34.6009 223.516 34.6009C221.691 34.6009 220.054 35.0259 218.604 35.8758C217.154 36.7257 216.017 37.9381 215.192 39.513C214.367 41.0628 213.955 42.8876 213.955 44.9875C213.955 47.0623 214.367 48.8871 215.192 50.4619C216.017 52.0118 217.154 53.2117 218.604 54.0616C220.054 54.9115 221.691 55.3365 223.516 55.3365C225.416 55.3365 227.041 54.924 228.391 54.0991C229.766 53.2492 230.816 52.0368 231.541 50.4619H235.628C234.653 52.9617 233.103 54.899 230.978 56.2739C228.853 57.6238 226.366 58.2987 223.516 58.2987C221.092 58.2987 218.879 57.7363 216.879 56.6114C214.905 55.4615 213.342 53.8741 212.192 51.8493C211.043 49.8245 210.468 47.5372 210.468 44.9875Z" fill="url(#paint2_linear_171_17398)"/>
<defs>
<linearGradient id="paint0_linear_171_17398" x1="153.14" y1="59.2477" x2="153.14" y2="72.8379" gradientUnits="userSpaceOnUse">
<stop stop-color="#681CFF"/>
<stop offset="1" stop-color="#FD3F83"/>
</linearGradient>
<linearGradient id="paint1_linear_171_17398" x1="210.429" y1="31.6012" x2="210.429" y2="58.2987" gradientUnits="userSpaceOnUse">
<stop stop-color="#681CFF"/>
<stop offset="1" stop-color="#FD3F83"/>
</linearGradient>
<linearGradient id="paint2_linear_171_17398" x1="210.429" y1="31.6012" x2="210.429" y2="58.2987" gradientUnits="userSpaceOnUse">
<stop stop-color="#681CFF"/>
<stop offset="1" stop-color="#FD3F83"/>
</linearGradient>
</defs>
</svg>
