<svg width="173" height="229" viewBox="0 0 173 229" fill="none" xmlns="http://www.w3.org/2000/svg">
<path opacity="0.6" d="M0.734375 199.586V44.9653L62.1996 28.8827L73.5189 22.3442C76.1202 20.8502 80.655 21.026 83.6606 22.7661L94.2241 28.8651H127.004L117.302 178.108C117.372 179.127 116.81 180.111 115.562 180.832L54.2198 227.111C51.6185 228.605 47.0838 228.429 44.0782 226.689L3.21267 203.084C1.49017 202.082 0.646492 200.799 0.751952 199.586H0.734375Z" fill="url(#paint0_linear_804_1252)"/>
<path d="M78.2454 21.3423C80.1437 21.395 82.1123 21.8696 83.6766 22.766L94.2401 28.8651H127.02V183.89C127.091 184.91 126.528 185.894 125.28 186.615L54.2358 227.129C52.9879 227.849 51.283 228.183 49.5253 228.13L48.7871 72.121L78.2278 21.3423H78.2454Z" fill="url(#paint1_linear_804_1252)"/>
<path opacity="0.2" d="M53.5872 227.428C51.3549 228.395 48.1033 228.342 45.4844 227.34V70.2583H53.5872V227.428Z" fill="url(#paint2_linear_804_1252)"/>
<path d="M54.238 72.1212L125.282 31.6072C127.884 30.1132 127.55 27.4943 124.562 25.7542L83.6787 2.16647C80.6731 0.426386 76.1384 0.25062 73.537 1.74463L2.49259 42.2586C-0.108739 43.7526 0.225215 46.3715 3.21323 48.1116L44.0963 71.7169C47.1019 73.457 51.6366 73.6327 54.238 72.1387V72.1212Z" fill="url(#paint3_linear_804_1252)"/>
<g style="mix-blend-mode:screen">
<path d="M3.2144 45.2289L44.0975 68.8342C47.1031 70.5743 51.6378 70.7501 54.2391 69.2561L125.284 28.7421C125.864 28.4081 126.285 28.0214 126.584 27.5996C127.481 29.0409 127.076 30.5876 125.284 31.6246L54.2391 72.1386C51.6378 73.6326 47.1031 73.4568 44.0975 71.7168L3.2144 48.1115C0.876713 46.7581 0.173651 44.8774 1.19309 43.4009C1.59735 44.0513 2.28284 44.684 3.2144 45.2289Z" fill="#681CFF"/>
</g>
<path d="M52.235 55.7053L99.5335 28.2858C100.746 27.5828 100.606 26.3524 99.1996 25.5439L80.0763 14.5058C78.6701 13.6973 76.5434 13.6094 75.3306 14.3125L28.0321 41.7319C26.8193 42.435 26.9775 43.6653 28.366 44.4738L47.4893 55.5119C48.8955 56.3204 51.0222 56.4083 52.235 55.7053Z" fill="#681CFF"/>
<path d="M77.7758 29.5164L80.5178 27.9345C80.6935 27.8291 80.6584 27.6709 80.465 27.5478L77.811 26.0187C77.6176 25.9132 77.3188 25.8956 77.1606 25.9835L74.4187 27.5654C74.2429 27.6709 74.2781 27.8291 74.4714 27.9521L77.1255 29.4813C77.3188 29.5867 77.6176 29.6043 77.7758 29.5164Z" fill="#FF2C9C"/>
<path d="M68.6 34.7894L71.342 33.2075C71.5177 33.102 71.4826 32.9438 71.2892 32.8208L68.6352 31.2916C68.4418 31.1862 68.143 31.1686 67.9848 31.2565L65.2429 32.8384C65.0671 32.9438 65.1023 33.102 65.2956 33.225L67.9497 34.7542C68.143 34.8597 68.4418 34.8772 68.6 34.7894Z" fill="#D4ECFF"/>
<path d="M59.4418 40.0452L62.1838 38.4633C62.3595 38.3579 62.3244 38.1997 62.131 38.0766L59.477 36.5475C59.2836 36.442 58.9848 36.4244 58.8266 36.5123L56.0847 38.0942C55.9089 38.1997 55.9441 38.3579 56.1374 38.4809L58.7915 40.0101C58.9848 40.1155 59.2836 40.1331 59.4418 40.0452Z" fill="#D4ECFF"/>
<path d="M50.2856 45.3182L53.0275 43.7363C53.2033 43.6308 53.1681 43.4726 52.9748 43.3496L50.3207 41.8204C50.1274 41.715 49.8286 41.6974 49.6704 41.7853L46.9285 43.3672C46.7527 43.4726 46.7878 43.6308 46.9812 43.7538L49.6352 45.283C49.8286 45.3885 50.1274 45.406 50.2856 45.3182Z" fill="#D4ECFF"/>
<g style="mix-blend-mode:screen">
<path d="M99.534 28.2858L99.4813 28.321C99.3934 28.2507 99.3055 28.1804 99.2001 28.1276L80.0768 17.0896C78.6707 16.281 76.5439 16.1932 75.3311 16.8962L28.0853 44.2805C26.9604 43.472 26.9077 42.3822 28.0326 41.7319L75.3311 14.3125C76.5439 13.6094 78.6707 13.6973 80.0768 14.5058L99.2001 25.5439C100.606 26.3524 100.764 27.5828 99.534 28.2858Z" fill="#681CFF"/>
</g>
<path d="M36.1165 102.756L9.22436 87.3594C7.71278 86.4805 6.48242 84.1429 6.48242 82.1216V72.5072C6.48242 70.4859 7.71278 69.5543 9.22436 70.4331L36.1165 85.8302C37.6281 86.709 38.8584 89.0467 38.8584 91.068V100.682C38.8584 102.704 37.6281 103.635 36.1165 102.756Z" fill="#681CFF"/>
<g style="mix-blend-mode:screen">
<path d="M7.88855 70.1519C7.46671 70.5561 7.20306 71.224 7.20306 72.1556V81.77C7.20306 83.7913 8.43342 86.1289 9.945 87.0078L36.8371 102.405C37.3293 102.686 37.7687 102.756 38.1729 102.686C37.6632 103.161 36.9426 103.231 36.1165 102.756L9.22436 87.3593C7.71278 86.4805 6.48242 84.1428 6.48242 82.1215V72.5071C6.48242 71.1361 7.06245 70.2925 7.88855 70.1519Z" fill="#681CFF"/>
</g>
<path d="M28.029 92.3151L25.5683 90.8914C25.2344 90.6981 24.9707 90.1884 24.9707 89.7489V87.1125C24.9707 86.673 25.2344 86.4621 25.5683 86.6555L28.029 88.0792C28.363 88.2725 28.6266 88.7822 28.6266 89.2216V91.8581C28.6266 92.2975 28.363 92.5085 28.029 92.3151Z" fill="#FF2C9C"/>
<path d="M19.7693 87.5524L17.3085 86.1287C16.9746 85.9354 16.7109 85.4257 16.7109 84.9862V82.3498C16.7109 81.9103 16.9746 81.6994 17.3085 81.8928L19.7693 83.3165C20.1032 83.5098 20.3669 84.0195 20.3669 84.4589V87.0954C20.3669 87.5348 20.1032 87.7458 19.7693 87.5524Z" fill="white"/>
<path d="M36.1165 172.273L9.22436 156.875C7.71278 155.997 6.48242 153.659 6.48242 151.638V142.023C6.48242 140.002 7.71278 139.07 9.22436 139.949L36.1165 155.346C37.6281 156.225 38.8584 158.563 38.8584 160.584V170.199C38.8584 172.22 37.6281 173.151 36.1165 172.273Z" fill="#681CFF"/>
<g style="mix-blend-mode:screen">
<path d="M7.88855 139.65C7.46671 140.055 7.20306 140.723 7.20306 141.654V151.268C7.20306 153.29 8.43342 155.627 9.945 156.506L36.8371 171.903C37.3293 172.185 37.7687 172.255 38.1729 172.185C37.6632 172.659 36.9426 172.729 36.1165 172.255L9.22436 156.858C7.71278 155.979 6.48242 153.641 6.48242 151.62V142.006C6.48242 140.635 7.06245 139.791 7.88855 139.65Z" fill="#681CFF"/>
</g>
<path d="M28.029 161.815L25.5683 160.391C25.2344 160.198 24.9707 159.688 24.9707 159.249V156.612C24.9707 156.173 25.2344 155.962 25.5683 156.155L28.029 157.579C28.363 157.772 28.6266 158.282 28.6266 158.722V161.358C28.6266 161.798 28.363 162.008 28.029 161.815Z" fill="#FF2C9C"/>
<path d="M19.7693 157.051L17.3085 155.628C16.9746 155.434 16.7109 154.925 16.7109 154.485V151.849C16.7109 151.409 16.9746 151.198 17.3085 151.392L19.7693 152.815C20.1032 153.009 20.3669 153.519 20.3669 153.958V156.594C20.3669 157.034 20.1032 157.245 19.7693 157.051Z" fill="white"/>
<path d="M36.1165 207.022L9.22436 191.624C7.71278 190.746 6.48242 188.408 6.48242 186.387V176.772C6.48242 174.751 7.71278 173.819 9.22436 174.698L36.1165 190.095C37.6281 190.974 38.8584 193.312 38.8584 195.333V204.948C38.8584 206.969 37.6281 207.9 36.1165 207.022Z" fill="#681CFF"/>
<g style="mix-blend-mode:screen">
<path d="M7.88855 174.399C7.46671 174.804 7.20306 175.472 7.20306 176.403V186.018C7.20306 188.039 8.43342 190.377 9.945 191.255L36.8371 206.652C37.3293 206.934 37.7687 207.004 38.1729 206.934C37.6632 207.408 36.9426 207.478 36.1165 207.004L9.22436 191.607C7.71278 190.728 6.48242 188.39 6.48242 186.369V176.755C6.48242 175.384 7.06245 174.54 7.88855 174.399Z" fill="#681CFF"/>
</g>
<path d="M28.029 196.564L25.5683 195.14C25.2344 194.947 24.9707 194.437 24.9707 193.998V191.361C24.9707 190.922 25.2344 190.711 25.5683 190.904L28.029 192.328C28.363 192.522 28.6266 193.031 28.6266 193.471V196.107C28.6266 196.547 28.363 196.757 28.029 196.564Z" fill="#FF2C9C"/>
<path d="M19.7693 191.8L17.3085 190.377C16.9746 190.183 16.7109 189.674 16.7109 189.234V186.598C16.7109 186.158 16.9746 185.947 17.3085 186.141L19.7693 187.565C20.1032 187.758 20.3669 188.268 20.3669 188.707V191.343C20.3669 191.783 20.1032 191.994 19.7693 191.8Z" fill="white"/>
<path d="M36.1165 137.505L9.22436 122.108C7.71278 121.23 6.48242 118.892 6.48242 116.871V107.256C6.48242 105.235 7.71278 104.303 9.22436 105.182L36.1165 120.579C37.6281 121.458 38.8584 123.796 38.8584 125.817V135.431C38.8584 137.453 37.6281 138.384 36.1165 137.505Z" fill="#681CFF"/>
<g style="mix-blend-mode:screen">
<path d="M7.88855 104.901C7.46671 105.305 7.20306 105.973 7.20306 106.905V116.519C7.20306 118.54 8.43342 120.878 9.945 121.757L36.8371 137.154C37.3293 137.435 37.7687 137.505 38.1729 137.435C37.6632 137.91 36.9426 137.98 36.1165 137.505L9.22436 122.108C7.71278 121.229 6.48242 118.892 6.48242 116.871V107.256C6.48242 105.885 7.06245 105.041 7.88855 104.901Z" fill="#681CFF"/>
</g>
<path d="M28.029 127.064L25.5683 125.64C25.2344 125.447 24.9707 124.937 24.9707 124.498V121.861C24.9707 121.422 25.2344 121.211 25.5683 121.404L28.029 122.828C28.363 123.022 28.6266 123.531 28.6266 123.971V126.607C28.6266 127.047 28.363 127.257 28.029 127.064Z" fill="#FF2C9C"/>
<path d="M19.7693 122.301L17.3085 120.878C16.9746 120.684 16.7109 120.175 16.7109 119.735V117.099C16.7109 116.659 16.9746 116.448 17.3085 116.642L19.7693 118.065C20.1032 118.259 20.3669 118.769 20.3669 119.208V121.844C20.3669 122.284 20.1032 122.495 19.7693 122.301Z" fill="white"/>
<path d="M59.4041 92.914L121.449 57.093C122.838 56.2845 123.963 54.1402 123.963 52.2946V40.4656C123.963 38.6201 122.838 37.7588 121.449 38.5673L59.4041 74.3884C58.0155 75.1969 56.8906 77.3412 56.8906 79.1868V91.0158C56.8906 92.8613 58.0155 93.7226 59.4041 92.914Z" fill="#681CFF"/>
<path opacity="0.4" d="M61.1972 88.766L119.692 55.0015C120.395 54.5972 120.975 53.5075 120.975 52.5583V43.6646C120.975 42.733 120.395 42.2936 119.692 42.6979L61.1972 76.4624C60.4941 76.8667 59.9141 77.9565 59.9141 78.9056V87.7993C59.9141 88.7309 60.4765 89.1703 61.1972 88.766Z" fill="#D4ECFF"/>
<path d="M107.494 57.5323L116.23 52.4878C116.915 52.1012 117.46 51.029 117.46 50.115C117.46 49.201 116.897 48.7792 116.23 49.1835L107.494 54.2279C106.809 54.6146 106.264 55.6868 106.264 56.6008C106.264 57.5147 106.826 57.9366 107.494 57.5323Z" fill="#D4ECFF"/>
<path d="M100.059 60.186C100.059 61.1 100.691 61.4691 101.482 61.0121C102.273 60.5551 102.906 59.4478 102.906 58.5338C102.906 57.6199 102.273 57.2507 101.482 57.7077C100.691 58.1647 100.059 59.2721 100.059 60.186Z" fill="#FF2C9C"/>
<path d="M95.0137 63.1045C95.0137 64.0185 95.6464 64.3876 96.4374 63.9306C97.2283 63.4736 97.8611 62.3663 97.8611 61.4523C97.8611 60.5383 97.2283 60.1692 96.4374 60.6262C95.6464 61.0832 95.0137 62.1905 95.0137 63.1045Z" fill="#FF2C9C"/>
<path d="M89.9531 66.0044C89.9531 66.9184 90.5859 67.2875 91.3768 66.8305C92.1678 66.3735 92.8005 65.2662 92.8005 64.3522C92.8005 63.4382 92.1678 63.0691 91.3768 63.5261C90.5859 63.9831 89.9531 65.0904 89.9531 66.0044Z" fill="#D4ECFF"/>
<path d="M84.9082 68.9224C84.9082 69.8363 85.541 70.2054 86.3319 69.7485C87.1229 69.2915 87.7556 68.1841 87.7556 67.2702C87.7556 66.3562 87.1229 65.9871 86.3319 66.4441C85.541 66.9011 84.9082 68.0084 84.9082 68.9224Z" fill="#FF2C9C"/>
<path d="M63.6581 83.8093L66.5934 82.1044C67.0328 81.8583 67.3844 81.1728 67.3844 80.5928V77.4818C67.3844 76.9017 67.0328 76.6205 66.5934 76.8842L63.6581 78.5891C63.2187 78.8351 62.8672 79.5206 62.8672 80.1007V83.2117C62.8672 83.7917 63.2187 84.073 63.6581 83.8093Z" fill="#FF2C9C"/>
<path d="M59.4041 113.778L121.449 77.9568C122.838 77.1483 123.963 75.0039 123.963 73.1584V61.3294C123.963 59.4838 122.838 58.6226 121.449 59.4311L59.4041 95.2521C58.0155 96.0606 56.8906 98.205 56.8906 100.051V111.88C56.8906 113.725 58.0155 114.586 59.4041 113.778Z" fill="#681CFF"/>
<path opacity="0.4" d="M61.1972 109.63L119.692 75.8652C120.395 75.461 120.975 74.3712 120.975 73.4221V64.5284C120.975 63.5968 120.395 63.1574 119.692 63.5617L61.1972 97.3262C60.4941 97.7305 59.9141 98.8202 59.9141 99.7694V108.663C59.9141 109.595 60.4765 110.034 61.1972 109.63Z" fill="#D4ECFF"/>
<path d="M107.494 78.4137L116.23 73.3692C116.915 72.9825 117.46 71.9103 117.46 70.9964C117.46 70.0824 116.897 69.6605 116.23 70.0648L107.494 75.1093C106.809 75.496 106.264 76.5681 106.264 77.4821C106.264 78.3961 106.826 78.8179 107.494 78.4137Z" fill="#D4ECFF"/>
<path d="M100.059 81.0508C100.059 81.9648 100.691 82.3339 101.482 81.8769C102.273 81.4199 102.906 80.3126 102.906 79.3986C102.906 78.4846 102.273 78.1155 101.482 78.5725C100.691 79.0295 100.059 80.1368 100.059 81.0508Z" fill="white"/>
<path d="M95.0137 83.9683C95.0137 84.8822 95.6464 85.2513 96.4374 84.7944C97.2283 84.3374 97.8611 83.23 97.8611 82.3161C97.8611 81.4021 97.2283 81.033 96.4374 81.49C95.6464 81.947 95.0137 83.0543 95.0137 83.9683Z" fill="#FF2C9C"/>
<path d="M89.9531 86.8682C89.9531 87.7821 90.5859 88.1513 91.3768 87.6943C92.1678 87.2373 92.8005 86.1299 92.8005 85.216C92.8005 84.302 92.1678 83.9329 91.3768 84.3899C90.5859 84.8469 89.9531 85.9542 89.9531 86.8682Z" fill="#D4ECFF"/>
<path d="M84.9082 89.7861C84.9082 90.7001 85.541 91.0692 86.3319 90.6122C87.1229 90.1552 87.7556 89.0479 87.7556 88.1339C87.7556 87.22 87.1229 86.8508 86.3319 87.3078C85.541 87.7648 84.9082 88.8721 84.9082 89.7861Z" fill="#FF2C9C"/>
<path d="M63.6581 104.673L66.5934 102.968C67.0328 102.722 67.3844 102.037 67.3844 101.457V98.3455C67.3844 97.7655 67.0328 97.4843 66.5934 97.7479L63.6581 99.4528C63.2187 99.6989 62.8672 100.384 62.8672 100.964V104.075C62.8672 104.656 63.2187 104.937 63.6581 104.673Z" fill="#FF2C9C"/>
<path d="M59.4041 134.641L121.449 98.8201C122.838 98.0116 123.963 95.8672 123.963 94.0217V82.1927C123.963 80.3471 122.838 79.4859 121.449 80.2944L59.4041 116.115C58.0155 116.924 56.8906 119.068 56.8906 120.914V132.743C56.8906 134.588 58.0155 135.45 59.4041 134.641Z" fill="#681CFF"/>
<path opacity="0.4" d="M61.1972 130.493L119.692 96.7285C120.395 96.3243 120.975 95.2345 120.975 94.2854V85.3916C120.975 84.4601 120.395 84.0207 119.692 84.4249L61.1972 118.189C60.4941 118.594 59.9141 119.684 59.9141 120.633V129.526C59.9141 130.458 60.4765 130.897 61.1972 130.493Z" fill="#D4ECFF"/>
<path d="M107.494 99.2769L116.23 94.2325C116.915 93.8458 117.46 92.7736 117.46 91.8596C117.46 90.9457 116.897 90.5238 116.23 90.9281L107.494 95.9726C106.809 96.3592 106.264 97.4314 106.264 98.3454C106.264 99.2594 106.826 99.6812 107.494 99.2769Z" fill="#D4ECFF"/>
<path d="M100.059 101.914C100.059 102.828 100.691 103.197 101.482 102.74C102.273 102.283 102.906 101.176 102.906 100.262C102.906 99.3479 102.273 98.9788 101.482 99.4358C100.691 99.8928 100.059 101 100.059 101.914Z" fill="white"/>
<path d="M95.0137 104.832C95.0137 105.746 95.6464 106.115 96.4374 105.658C97.2283 105.201 97.8611 104.093 97.8611 103.179C97.8611 102.265 97.2283 101.896 96.4374 102.353C95.6464 102.81 95.0137 103.918 95.0137 104.832Z" fill="#FF2C9C"/>
<path d="M89.9531 107.749C89.9531 108.663 90.5859 109.032 91.3768 108.575C92.1678 108.118 92.8005 107.011 92.8005 106.097C92.8005 105.183 92.1678 104.814 91.3768 105.271C90.5859 105.728 89.9531 106.835 89.9531 107.749Z" fill="#D4ECFF"/>
<path d="M84.9082 110.649C84.9082 111.563 85.541 111.932 86.3319 111.476C87.1229 111.019 87.7556 109.911 87.7556 108.997C87.7556 108.083 87.1229 107.714 86.3319 108.171C85.541 108.628 84.9082 109.735 84.9082 110.649Z" fill="#FF2C9C"/>
<path d="M63.6581 125.536L66.5934 123.831C67.0328 123.585 67.3844 122.9 67.3844 122.32V119.209C67.3844 118.629 67.0328 118.348 66.5934 118.611L63.6581 120.316C63.2187 120.562 62.8672 121.248 62.8672 121.828V124.939C62.8672 125.519 63.2187 125.8 63.6581 125.536Z" fill="#FF2C9C"/>
<path d="M59.4041 155.504L121.449 119.683C122.838 118.875 123.963 116.73 123.963 114.885V103.056C123.963 101.21 122.838 100.349 121.449 101.158L59.4041 136.979C58.0155 137.787 56.8906 139.932 56.8906 141.777V153.606C56.8906 155.452 58.0155 156.313 59.4041 155.504Z" fill="#681CFF"/>
<path opacity="0.4" d="M61.1972 151.356L119.692 117.592C120.395 117.188 120.975 116.098 120.975 115.149V106.255C120.975 105.323 120.395 104.884 119.692 105.288L61.1972 139.053C60.4941 139.457 59.9141 140.547 59.9141 141.496V150.39C59.9141 151.321 60.4765 151.761 61.1972 151.356Z" fill="#D4ECFF"/>
<path d="M107.494 120.14L116.23 115.096C116.915 114.709 117.46 113.637 117.46 112.723C117.46 111.809 116.897 111.387 116.23 111.791L107.494 116.836C106.809 117.223 106.264 118.295 106.264 119.209C106.264 120.123 106.826 120.544 107.494 120.14Z" fill="#D4ECFF"/>
<path d="M100.059 122.777C100.059 123.691 100.691 124.06 101.482 123.603C102.273 123.146 102.906 122.039 102.906 121.125C102.906 120.211 102.273 119.842 101.482 120.299C100.691 120.756 100.059 121.863 100.059 122.777Z" fill="#FF2C9C"/>
<path d="M95.0137 125.695C95.0137 126.609 95.6464 126.978 96.4374 126.521C97.2283 126.064 97.8611 124.957 97.8611 124.043C97.8611 123.129 97.2283 122.76 96.4374 123.217C95.6464 123.674 95.0137 124.781 95.0137 125.695Z" fill="#FF2C9C"/>
<path d="M89.9531 128.612C89.9531 129.526 90.5859 129.895 91.3768 129.438C92.1678 128.981 92.8005 127.874 92.8005 126.96C92.8005 126.046 92.1678 125.677 91.3768 126.134C90.5859 126.591 89.9531 127.698 89.9531 128.612Z" fill="#D4ECFF"/>
<path d="M84.9082 131.513C84.9082 132.427 85.541 132.796 86.3319 132.339C87.1229 131.882 87.7556 130.774 87.7556 129.86C87.7556 128.947 87.1229 128.577 86.3319 129.034C85.541 129.491 84.9082 130.599 84.9082 131.513Z" fill="#FF2C9C"/>
<path d="M63.6581 146.418L66.5934 144.713C67.0328 144.467 67.3844 143.781 67.3844 143.201V140.09C67.3844 139.51 67.0328 139.229 66.5934 139.493L63.6581 141.197C63.2187 141.444 62.8672 142.129 62.8672 142.709V145.82C62.8672 146.4 63.2187 146.681 63.6581 146.418Z" fill="#D4ECFF"/>
<path d="M59.4041 176.385L121.449 140.564C122.838 139.756 123.963 137.611 123.963 135.766V123.937C123.963 122.091 122.838 121.23 121.449 122.039L59.4041 157.86C58.0155 158.668 56.8906 160.812 56.8906 162.658V174.487C56.8906 176.333 58.0155 177.194 59.4041 176.385Z" fill="#681CFF"/>
<path opacity="0.4" d="M61.1972 172.22L119.692 138.455C120.395 138.051 120.975 136.961 120.975 136.012V127.118C120.975 126.187 120.395 125.747 119.692 126.151L61.1972 159.916C60.4941 160.32 59.9141 161.41 59.9141 162.359V171.253C59.9141 172.184 60.4765 172.624 61.1972 172.22Z" fill="#D4ECFF"/>
<path d="M107.494 141.004L116.23 135.959C116.915 135.572 117.46 134.5 117.46 133.586C117.46 132.672 116.897 132.25 116.23 132.655L107.494 137.699C106.809 138.086 106.264 139.158 106.264 140.072C106.264 140.986 106.826 141.408 107.494 141.004Z" fill="#D4ECFF"/>
<path d="M100.059 143.641C100.059 144.555 100.691 144.924 101.482 144.467C102.273 144.01 102.906 142.902 102.906 141.988C102.906 141.074 102.273 140.705 101.482 141.162C100.691 141.619 100.059 142.727 100.059 143.641Z" fill="#FF2C9C"/>
<path d="M95.0137 146.558C95.0137 147.472 95.6464 147.841 96.4374 147.384C97.2283 146.927 97.8611 145.82 97.8611 144.906C97.8611 143.992 97.2283 143.623 96.4374 144.08C95.6464 144.537 95.0137 145.644 95.0137 146.558Z" fill="white"/>
<path d="M89.9531 149.476C89.9531 150.39 90.5859 150.759 91.3768 150.302C92.1678 149.845 92.8005 148.737 92.8005 147.823C92.8005 146.909 92.1678 146.54 91.3768 146.997C90.5859 147.454 89.9531 148.562 89.9531 149.476Z" fill="#D4ECFF"/>
<path d="M84.9082 152.376C84.9082 153.29 85.541 153.659 86.3319 153.202C87.1229 152.745 87.7556 151.638 87.7556 150.724C87.7556 149.81 87.1229 149.441 86.3319 149.898C85.541 150.355 84.9082 151.462 84.9082 152.376Z" fill="white"/>
<path d="M63.6581 167.281L66.5934 165.576C67.0328 165.33 67.3844 164.644 67.3844 164.064V160.953C67.3844 160.373 67.0328 160.092 66.5934 160.355L63.6581 162.06C63.2187 162.306 62.8672 162.992 62.8672 163.572V166.683C62.8672 167.263 63.2187 167.544 63.6581 167.281Z" fill="#D4ECFF"/>
<path d="M59.4041 197.249L121.449 161.428C122.838 160.619 123.963 158.475 123.963 156.629V144.8C123.963 142.955 122.838 142.093 121.449 142.902L59.4041 178.723C58.0155 179.531 56.8906 181.676 56.8906 183.521V195.35C56.8906 197.196 58.0155 198.057 59.4041 197.249Z" fill="#681CFF"/>
<path opacity="0.4" d="M61.1972 193.101L119.692 159.336C120.395 158.932 120.975 157.842 120.975 156.893V147.999C120.975 147.068 120.395 146.628 119.692 147.032L61.1972 180.797C60.4941 181.201 59.9141 182.291 59.9141 183.24V192.134C59.9141 193.065 60.4765 193.505 61.1972 193.101Z" fill="#D4ECFF"/>
<path d="M107.494 161.867L116.23 156.822C116.915 156.436 117.46 155.363 117.46 154.449C117.46 153.536 116.897 153.114 116.23 153.518L107.494 158.562C106.809 158.949 106.264 160.021 106.264 160.935C106.264 161.849 106.826 162.271 107.494 161.867Z" fill="#D4ECFF"/>
<path d="M100.059 164.503C100.059 165.417 100.691 165.786 101.482 165.329C102.273 164.872 102.906 163.765 102.906 162.851C102.906 161.937 102.273 161.568 101.482 162.025C100.691 162.482 100.059 163.589 100.059 164.503Z" fill="#FF2C9C"/>
<path d="M95.0137 167.421C95.0137 168.335 95.6464 168.704 96.4374 168.247C97.2283 167.79 97.8611 166.683 97.8611 165.769C97.8611 164.855 97.2283 164.486 96.4374 164.943C95.6464 165.4 95.0137 166.507 95.0137 167.421Z" fill="#FF2C9C"/>
<path d="M89.9531 170.339C89.9531 171.253 90.5859 171.622 91.3768 171.165C92.1678 170.708 92.8005 169.601 92.8005 168.687C92.8005 167.773 92.1678 167.404 91.3768 167.861C90.5859 168.318 89.9531 169.425 89.9531 170.339Z" fill="#D4ECFF"/>
<path d="M84.9082 173.257C84.9082 174.171 85.541 174.54 86.3319 174.083C87.1229 173.626 87.7556 172.519 87.7556 171.605C87.7556 170.691 87.1229 170.322 86.3319 170.779C85.541 171.236 84.9082 172.343 84.9082 173.257Z" fill="#FF2C9C"/>
<path d="M63.6581 188.144L66.5934 186.439C67.0328 186.193 67.3844 185.507 67.3844 184.927V181.816C67.3844 181.236 67.0328 180.955 66.5934 181.219L63.6581 182.924C63.2187 183.17 62.8672 183.855 62.8672 184.435V187.546C62.8672 188.126 63.2187 188.407 63.6581 188.144Z" fill="#FF2C9C"/>
<path d="M59.4041 218.112L121.449 182.291C122.838 181.482 123.963 179.338 123.963 177.492V165.663C123.963 163.818 122.838 162.957 121.449 163.765L59.4041 199.586C58.0155 200.395 56.8906 202.539 56.8906 204.385V216.214C56.8906 218.059 58.0155 218.92 59.4041 218.112Z" fill="#681CFF"/>
<path opacity="0.4" d="M61.1972 213.964L119.692 180.199C120.395 179.795 120.975 178.705 120.975 177.756V168.862C120.975 167.931 120.395 167.491 119.692 167.896L61.1972 201.66C60.4941 202.064 59.9141 203.154 59.9141 204.103V212.997C59.9141 213.929 60.4765 214.368 61.1972 213.964Z" fill="#D4ECFF"/>
<path d="M107.494 182.73L116.23 177.686C116.915 177.299 117.46 176.227 117.46 175.313C117.46 174.399 116.897 173.977 116.23 174.381L107.494 179.426C106.809 179.812 106.264 180.885 106.264 181.799C106.264 182.712 106.826 183.134 107.494 182.73Z" fill="#D4ECFF"/>
<path d="M98.459 186.509C98.459 188.231 99.6718 188.934 101.166 188.073C102.66 187.212 103.873 185.12 103.873 183.398C103.873 181.675 102.66 180.972 101.166 181.833C99.6718 182.694 98.459 184.786 98.459 186.509Z" fill="white"/>
<path d="M88 192.625C88 193.539 88.6328 193.909 89.4237 193.452C90.2146 192.995 90.8474 191.887 90.8474 190.973C90.8474 190.059 90.2146 189.69 89.4237 190.147C88.6328 190.604 88 191.712 88 192.625Z" fill="#FF2C9C"/>
<path d="M82.9551 195.526C82.9551 196.44 83.5878 196.809 84.3788 196.352C85.1697 195.895 85.8025 194.788 85.8025 193.874C85.8025 192.96 85.1697 192.591 84.3788 193.048C83.5878 193.505 82.9551 194.612 82.9551 195.526Z" fill="#D4ECFF"/>
<path d="M77.9121 198.444C77.9121 199.358 78.5449 199.727 79.3358 199.27C80.1268 198.813 80.7595 197.706 80.7595 196.792C80.7595 195.878 80.1268 195.509 79.3358 195.966C78.5449 196.423 77.9121 197.53 77.9121 198.444Z" fill="#FF2C9C"/>
<path d="M63.6581 209.007L66.5934 207.302C67.0328 207.056 67.3844 206.371 67.3844 205.791V202.68C67.3844 202.099 67.0328 201.818 66.5934 202.082L63.6581 203.787C63.2187 204.033 62.8672 204.718 62.8672 205.298V208.409C62.8672 208.99 63.2187 209.271 63.6581 209.007Z" fill="#D4ECFF"/>
<path d="M140.527 155.59H160.107" stroke="url(#paint4_linear_804_1252)" stroke-width="1.56875" stroke-linecap="round" stroke-linejoin="round"/>
<path d="M143.098 162.302H157.244" stroke="url(#paint5_linear_804_1252)" stroke-width="1.56875" stroke-linecap="round" stroke-linejoin="round"/>
<path d="M146.934 169.013H154.007" stroke="url(#paint6_linear_804_1252)" stroke-width="1.56875" stroke-linecap="round" stroke-linejoin="round"/>
<path d="M132.111 75.1035H141.645V148.443H162.352V75.1035H171.27L151.793 53.1665L132.111 75.1035Z" fill="url(#paint7_linear_804_1252)"/>
<path d="M132.111 75.1035H141.618L141.645 148.443H162.352V75.1035H171.27L151.793 53.1665L132.111 75.1035Z" stroke="url(#paint8_linear_804_1252)" stroke-width="1.56875" stroke-linecap="round" stroke-linejoin="round"/>
<defs>
<linearGradient id="paint0_linear_804_1252" x1="0.734375" y1="124.728" x2="127.004" y2="124.728" gradientUnits="userSpaceOnUse">
<stop stop-color="#483CA6"/>
<stop offset="1" stop-color="#59278F"/>
</linearGradient>
<linearGradient id="paint1_linear_804_1252" x1="48.7871" y1="124.739" x2="127.026" y2="124.739" gradientUnits="userSpaceOnUse">
<stop stop-color="#440BB5"/>
<stop offset="1" stop-color="#681CFF"/>
</linearGradient>
<linearGradient id="paint2_linear_804_1252" x1="49.5358" y1="70.2583" x2="49.5358" y2="228.123" gradientUnits="userSpaceOnUse">
<stop stop-color="#681CFF"/>
<stop offset="1" stop-color="#FD3F83"/>
</linearGradient>
<linearGradient id="paint3_linear_804_1252" x1="63.8875" y1="0.732422" x2="63.8875" y2="73.1509" gradientUnits="userSpaceOnUse">
<stop stop-color="#681CFF"/>
<stop offset="1" stop-color="#FD3F83"/>
</linearGradient>
<linearGradient id="paint4_linear_804_1252" x1="150.317" y1="155.59" x2="150.317" y2="156.59" gradientUnits="userSpaceOnUse">
<stop stop-color="#FF4081"/>
<stop offset="1" stop-color="#FF4081"/>
</linearGradient>
<linearGradient id="paint5_linear_804_1252" x1="150.171" y1="162.302" x2="150.171" y2="163.302" gradientUnits="userSpaceOnUse">
<stop stop-color="#FF4081"/>
<stop offset="1" stop-color="#FF4081"/>
</linearGradient>
<linearGradient id="paint6_linear_804_1252" x1="150.47" y1="169.013" x2="150.47" y2="170.013" gradientUnits="userSpaceOnUse">
<stop stop-color="#FF4081"/>
<stop offset="1" stop-color="#FF4081"/>
</linearGradient>
<linearGradient id="paint7_linear_804_1252" x1="151.691" y1="53.1665" x2="151.691" y2="148.443" gradientUnits="userSpaceOnUse">
<stop stop-color="#FF2C9C"/>
<stop offset="1" stop-color="#681CFF" stop-opacity="0"/>
</linearGradient>
<linearGradient id="paint8_linear_804_1252" x1="151.691" y1="53.1665" x2="151.691" y2="148.443" gradientUnits="userSpaceOnUse">
<stop stop-color="#681CFF"/>
<stop offset="1" stop-color="#FF4081"/>
</linearGradient>
</defs>
</svg>
