<svg width="78" height="100" viewBox="0 0 78 100" fill="none" xmlns="http://www.w3.org/2000/svg">
<path d="M1.6319 0.999999C1.6319 0.861929 1.74382 0.75 1.8819 0.75H51.2612C51.316 0.75 51.3694 0.768045 51.413 0.801347L76.5896 20.0378C76.6515 20.0851 76.6879 20.1586 76.6879 20.2365V50V99C76.6879 99.1381 76.5759 99.25 76.4379 99.25H1.8819C1.74383 99.25 1.6319 99.1381 1.6319 99V0.999999Z" stroke="white" stroke-width="1.5"/>
<path d="M51.4915 1.10474V20.0207H76.5171" stroke="white" stroke-width="1.5"/>
<path d="M25.035 42.9687C21.1929 42.9687 17.3491 42.9687 13.507 42.9687C13.3276 42.9687 13.1449 42.9789 12.9671 42.9602C12.3214 42.894 11.8519 42.3554 11.8487 41.6929C11.8439 41.0287 12.3102 40.4817 12.9527 40.4103C13.1305 40.3899 13.3132 40.4018 13.4926 40.4001C21.2185 40.4001 57.1159 40.4001 64.8402 40.4001C65.0405 40.4001 65.244 40.3882 65.4394 40.4188C66.0435 40.5139 66.4809 41.0711 66.4697 41.7065C66.4585 42.3181 66.0323 42.8498 65.4555 42.9466C65.26 42.9789 65.0565 42.967 64.8562 42.967C60.9741 42.967 28.9187 42.967 25.0366 42.967L25.035 42.9687Z" fill="white"/>
<path d="M25.035 59.6354C21.1929 59.6354 17.3491 59.6354 13.507 59.6354C13.3276 59.6354 13.1449 59.6456 12.9671 59.6269C12.3214 59.5606 11.8519 59.0221 11.8487 58.3596C11.8439 57.6953 12.3102 57.1483 12.9527 57.077C13.1305 57.0566 13.3132 57.0685 13.4926 57.0668C21.2185 57.0668 57.1159 57.0668 64.8402 57.0668C65.0405 57.0668 65.244 57.0549 65.4394 57.0855C66.0435 57.1806 66.4809 57.7378 66.4697 58.3732C66.4585 58.9847 66.0323 59.5164 65.4555 59.6133C65.26 59.6456 65.0565 59.6337 64.8562 59.6337C60.9741 59.6337 28.9187 59.6337 25.0366 59.6337L25.035 59.6354Z" fill="white"/>
<path d="M25.035 76.302C21.1929 76.302 17.3491 76.302 13.507 76.302C13.3276 76.302 13.1449 76.3122 12.9671 76.2935C12.3214 76.2273 11.8519 75.6888 11.8487 75.0262C11.8439 74.362 12.3102 73.815 12.9527 73.7436C13.1305 73.7233 13.3132 73.7351 13.4926 73.7334C21.2185 73.7334 57.1159 73.7334 64.8402 73.7334C65.0405 73.7334 65.244 73.7216 65.4394 73.7521C66.0435 73.8473 66.4809 74.4045 66.4697 75.0398C66.4585 75.6514 66.0323 76.1831 65.4555 76.2799C65.26 76.3122 65.0565 76.3003 64.8562 76.3003C60.9741 76.3003 28.9187 76.3003 25.0366 76.3003L25.035 76.302Z" fill="white"/>
</svg>
