<svg width="145" height="25" viewBox="0 0 145 25" fill="none" xmlns="http://www.w3.org/2000/svg">
<rect width="144.25" height="24" transform="translate(0.0720215 0.501465)" fill="white"/>
<path d="M0.131496 1.08447L9.56815 13.6788L0.0720215 23.9185H2.20939L10.5234 14.9533L17.2407 23.9185H24.5137L14.5459 10.616L23.3849 1.08447H21.2476L13.591 9.34106L7.40453 1.08447H0.131496ZM3.27459 2.65579H6.61578L21.3702 22.3472H18.029L3.27459 2.65579Z" fill="#681CFF"/>
<path d="M45.3348 21.7015C43.8522 21.7015 42.5615 21.4135 41.4628 20.8375C40.3748 20.2721 39.5322 19.4615 38.9348 18.4055C38.3375 17.3495 38.0388 16.0801 38.0388 14.5975V14.2295C38.0388 12.7575 38.3268 11.4935 38.9028 10.4375C39.4788 9.38146 40.2948 8.5708 41.3508 8.00546C42.4175 7.44013 43.6655 7.15746 45.0948 7.15746H45.4308C46.7748 7.15746 47.9482 7.4348 48.9508 7.98946C49.9535 8.53346 50.7322 9.3068 51.2868 10.3095C51.8415 11.3015 52.1188 12.4748 52.1188 13.8295V14.7095C52.1188 15.9468 51.8788 16.8908 51.3988 17.5415C50.9295 18.1815 50.2415 18.5015 49.3348 18.5015H48.5988C48.1295 18.5015 47.7722 18.4055 47.5268 18.2135C47.2815 18.0108 47.1588 17.7388 47.1588 17.3975V17.3015H46.9028C46.8175 17.5255 46.6842 17.7441 46.5028 17.9575C46.3322 18.1601 46.1028 18.3255 45.8148 18.4535C45.5375 18.5815 45.1748 18.6455 44.7268 18.6455C44.0762 18.6455 43.5002 18.4695 42.9988 18.1175C42.5082 17.7655 42.1242 17.2961 41.8468 16.7095C41.5802 16.1121 41.4468 15.4401 41.4468 14.6935V14.4215C41.4468 13.6748 41.5802 13.0081 41.8468 12.4215C42.1135 11.8241 42.4815 11.3548 42.9508 11.0135C43.4308 10.6615 43.9855 10.4855 44.6148 10.4855C45.0522 10.4855 45.4095 10.5441 45.6868 10.6615C45.9748 10.7681 46.2042 10.9121 46.3748 11.0935C46.5455 11.2748 46.6842 11.4668 46.7908 11.6695H47.0468V10.6295H48.6468V16.5655C48.6468 16.7255 48.6788 16.8481 48.7428 16.9335C48.8175 17.0081 48.9348 17.0455 49.0948 17.0455H49.2228C49.6815 17.0455 50.0068 16.8588 50.1988 16.4855C50.4015 16.1015 50.5028 15.4988 50.5028 14.6775V13.8615C50.5028 12.7735 50.3055 11.8401 49.9108 11.0615C49.5162 10.2828 48.9402 9.68546 48.1828 9.26946C47.4362 8.85346 46.5082 8.64546 45.3988 8.64546H45.1428C44.0335 8.64546 43.0628 8.8588 42.2308 9.28546C41.4095 9.71213 40.7748 10.3468 40.3268 11.1895C39.8788 12.0215 39.6548 13.0561 39.6548 14.2935V14.5495C39.6548 15.7761 39.8895 16.8108 40.3588 17.6535C40.8282 18.4961 41.4948 19.1308 42.3588 19.5575C43.2228 19.9948 44.2468 20.2135 45.4308 20.2135H48.6628V21.7015H45.3348ZM45.0468 17.2055C45.6442 17.2055 46.1242 16.9815 46.4868 16.5335C46.8602 16.0748 47.0468 15.4455 47.0468 14.6455V14.4695C47.0468 13.6695 46.8602 13.0455 46.4868 12.5975C46.1242 12.1388 45.6442 11.9095 45.0468 11.9095C44.4495 11.9095 43.9695 12.1388 43.6068 12.5975C43.2548 13.0561 43.0788 13.6801 43.0788 14.4695V14.6615C43.0788 15.4508 43.2548 16.0748 43.6068 16.5335C43.9695 16.9815 44.4495 17.2055 45.0468 17.2055ZM54.3673 18.5015V7.30146H59.0713C59.7647 7.30146 60.3727 7.42413 60.8953 7.66946C61.4287 7.90413 61.8393 8.24546 62.1273 8.69346C62.426 9.14146 62.5753 9.6748 62.5753 10.2935V10.4695C62.5753 11.1735 62.4047 11.7388 62.0633 12.1655C61.7327 12.5815 61.3273 12.8748 60.8473 13.0455V13.3015C61.2527 13.3228 61.578 13.4615 61.8233 13.7175C62.0687 13.9628 62.1913 14.3201 62.1913 14.7895V18.5015H60.4473V15.0295C60.4473 14.7415 60.3727 14.5121 60.2233 14.3415C60.074 14.1708 59.834 14.0855 59.5033 14.0855H56.0953V18.5015H54.3673ZM56.0953 12.5175H58.8793C59.498 12.5175 59.978 12.3628 60.3193 12.0535C60.6607 11.7335 60.8313 11.3015 60.8313 10.7575V10.6295C60.8313 10.0855 60.6607 9.6588 60.3193 9.34946C59.9887 9.02946 59.5087 8.86946 58.8793 8.86946H56.0953V12.5175ZM68.1407 18.7255C67.3407 18.7255 66.642 18.5601 66.0447 18.2295C65.4474 17.8881 64.978 17.4135 64.6367 16.8055C64.306 16.1868 64.1407 15.4721 64.1407 14.6615V14.4695C64.1407 13.6481 64.306 12.9335 64.6367 12.3255C64.9674 11.7068 65.426 11.2321 66.0127 10.9015C66.61 10.5601 67.298 10.3895 68.0767 10.3895C68.834 10.3895 69.4954 10.5601 70.0607 10.9015C70.6367 11.2321 71.0847 11.6961 71.4047 12.2935C71.7247 12.8908 71.8847 13.5895 71.8847 14.3895V15.0135H65.8207C65.842 15.7068 66.0714 16.2615 66.5087 16.6775C66.9567 17.0828 67.5114 17.2855 68.1727 17.2855C68.7914 17.2855 69.2554 17.1468 69.5647 16.8695C69.8847 16.5921 70.13 16.2721 70.3007 15.9095L71.6607 16.6135C71.5114 16.9121 71.2927 17.2268 71.0047 17.5575C70.7274 17.8881 70.3594 18.1655 69.9007 18.3895C69.442 18.6135 68.8554 18.7255 68.1407 18.7255ZM65.8367 13.7495H70.2047C70.162 13.1521 69.9487 12.6881 69.5647 12.3575C69.1807 12.0161 68.6794 11.8455 68.0607 11.8455C67.442 11.8455 66.9354 12.0161 66.5407 12.3575C66.1567 12.6881 65.922 13.1521 65.8367 13.7495ZM77.4845 18.7255C76.6845 18.7255 75.9858 18.5601 75.3885 18.2295C74.7911 17.8881 74.3218 17.4135 73.9805 16.8055C73.6498 16.1868 73.4845 15.4721 73.4845 14.6615V14.4695C73.4845 13.6481 73.6498 12.9335 73.9805 12.3255C74.3111 11.7068 74.7698 11.2321 75.3565 10.9015C75.9538 10.5601 76.6418 10.3895 77.4205 10.3895C78.1778 10.3895 78.8391 10.5601 79.4045 10.9015C79.9805 11.2321 80.4285 11.6961 80.7485 12.2935C81.0685 12.8908 81.2285 13.5895 81.2285 14.3895V15.0135H75.1645C75.1858 15.7068 75.4151 16.2615 75.8525 16.6775C76.3005 17.0828 76.8551 17.2855 77.5165 17.2855C78.1351 17.2855 78.5991 17.1468 78.9085 16.8695C79.2285 16.5921 79.4738 16.2721 79.6445 15.9095L81.0045 16.6135C80.8551 16.9121 80.6365 17.2268 80.3485 17.5575C80.0711 17.8881 79.7031 18.1655 79.2445 18.3895C78.7858 18.6135 78.1991 18.7255 77.4845 18.7255ZM75.1805 13.7495H79.5485C79.5058 13.1521 79.2925 12.6881 78.9085 12.3575C78.5245 12.0161 78.0231 11.8455 77.4045 11.8455C76.7858 11.8455 76.2791 12.0161 75.8845 12.3575C75.5005 12.6881 75.2658 13.1521 75.1805 13.7495ZM84.3393 18.5015V12.0055H82.1313V10.6135H84.3393V8.88546C84.3393 8.40546 84.4833 8.02146 84.7713 7.73346C85.0593 7.44546 85.4433 7.30146 85.9233 7.30146H87.9553V8.69346H86.4513C86.142 8.69346 85.9873 8.85346 85.9873 9.17346V10.6135H88.2593V12.0055H85.9873V18.5015H84.3393ZM89.8666 20.7735V19.2855H97.5146V20.7735H89.8666ZM103.98 18.7255C102.615 18.7255 101.532 18.3415 100.732 17.5735C99.9325 16.7948 99.5325 15.6748 99.5325 14.2135V11.5895C99.5325 10.1281 99.9325 9.01346 100.732 8.24546C101.532 7.4668 102.615 7.07746 103.98 7.07746C105.324 7.07746 106.359 7.4508 107.084 8.19746C107.82 8.94413 108.188 9.9628 108.188 11.2535V11.3495H106.476V11.2055C106.476 10.4481 106.268 9.82946 105.852 9.34946C105.447 8.86946 104.823 8.62946 103.98 8.62946C103.127 8.62946 102.46 8.8908 101.98 9.41346C101.5 9.92546 101.26 10.6401 101.26 11.5575V14.2455C101.26 15.1521 101.5 15.8668 101.98 16.3895C102.46 16.9121 103.127 17.1735 103.98 17.1735C104.823 17.1735 105.447 16.9335 105.852 16.4535C106.268 15.9628 106.476 15.3441 106.476 14.5975V14.3255H108.188V14.5495C108.188 15.8401 107.82 16.8588 107.084 17.6055C106.359 18.3521 105.324 18.7255 103.98 18.7255ZM110.15 18.5015V7.30146H111.798V11.7335H112.054C112.16 11.5308 112.31 11.3335 112.502 11.1415C112.704 10.9495 112.966 10.7948 113.286 10.6775C113.616 10.5495 114.032 10.4855 114.534 10.4855C115.131 10.4855 115.659 10.6188 116.118 10.8855C116.587 11.1521 116.955 11.5308 117.222 12.0215C117.488 12.5015 117.622 13.0828 117.622 13.7655V18.5015H115.974V13.8935C115.974 13.2108 115.803 12.7095 115.462 12.3895C115.12 12.0588 114.651 11.8935 114.054 11.8935C113.371 11.8935 112.822 12.1175 112.406 12.5655C112 13.0135 111.798 13.6641 111.798 14.5175V18.5015H110.15ZM122.441 18.7255C121.876 18.7255 121.369 18.6295 120.921 18.4375C120.484 18.2455 120.132 17.9628 119.865 17.5895C119.609 17.2161 119.481 16.7628 119.481 16.2295C119.481 15.6855 119.609 15.2375 119.865 14.8855C120.132 14.5228 120.489 14.2508 120.937 14.0695C121.396 13.8881 121.913 13.7975 122.489 13.7975H124.889V13.2855C124.889 12.8268 124.751 12.4588 124.473 12.1815C124.196 11.9041 123.769 11.7655 123.193 11.7655C122.628 11.7655 122.196 11.8988 121.897 12.1655C121.599 12.4321 121.401 12.7788 121.305 13.2055L119.769 12.7095C119.897 12.2828 120.1 11.8988 120.377 11.5575C120.665 11.2055 121.044 10.9228 121.513 10.7095C121.983 10.4961 122.548 10.3895 123.209 10.3895C124.233 10.3895 125.039 10.6508 125.625 11.1735C126.212 11.6961 126.505 12.4375 126.505 13.3975V16.6455C126.505 16.9655 126.655 17.1255 126.953 17.1255H127.625V18.5015H126.393C126.02 18.5015 125.716 18.4055 125.481 18.2135C125.247 18.0215 125.129 17.7601 125.129 17.4295V17.3815H124.889C124.804 17.5415 124.676 17.7281 124.505 17.9415C124.335 18.1548 124.084 18.3415 123.753 18.5015C123.423 18.6508 122.985 18.7255 122.441 18.7255ZM122.681 17.3655C123.343 17.3655 123.876 17.1788 124.281 16.8055C124.687 16.4215 124.889 15.8988 124.889 15.2375V15.0775H122.585C122.148 15.0775 121.796 15.1735 121.529 15.3655C121.263 15.5468 121.129 15.8188 121.129 16.1815C121.129 16.5441 121.268 16.8321 121.545 17.0455C121.823 17.2588 122.201 17.3655 122.681 17.3655ZM129.228 18.5015V10.6135H130.876V18.5015H129.228ZM130.06 9.54146C129.74 9.54146 129.468 9.44013 129.244 9.23746C129.03 9.02413 128.924 8.75213 128.924 8.42146C128.924 8.0908 129.03 7.82413 129.244 7.62146C129.468 7.40813 129.74 7.30146 130.06 7.30146C130.39 7.30146 130.662 7.40813 130.876 7.62146C131.089 7.82413 131.196 8.0908 131.196 8.42146C131.196 8.75213 131.089 9.02413 130.876 9.23746C130.662 9.44013 130.39 9.54146 130.06 9.54146ZM133.322 18.5015V10.6135H134.938V11.7975H135.194C135.343 11.4775 135.61 11.1788 135.994 10.9015C136.378 10.6241 136.948 10.4855 137.706 10.4855C138.303 10.4855 138.831 10.6188 139.29 10.8855C139.759 11.1521 140.127 11.5308 140.394 12.0215C140.66 12.5015 140.794 13.0828 140.794 13.7655V18.5015H139.146V13.8935C139.146 13.2108 138.975 12.7095 138.634 12.3895C138.292 12.0588 137.823 11.8935 137.226 11.8935C136.543 11.8935 135.994 12.1175 135.578 12.5655C135.172 13.0135 134.97 13.6641 134.97 14.5175V18.5015H133.322Z" fill="#681CFF"/>
</svg>
